<svg xmlns="http://www.w3.org/2000/svg" xmlns:xlink="http://www.w3.org/1999/xlink" width="333.176" height="234.929" viewBox="0 0 333.176 234.929">
  <defs>
    <clipPath id="clip-path">
      <rect id="長方形_503" data-name="長方形 503" width="333.176" height="144.888" fill="#97ce1c"/>
    </clipPath>
  </defs>
  <g id="グループ_2095" data-name="グループ 2095" transform="translate(-22 -788.959)">
    <g id="グループ_1863" data-name="グループ 1863" transform="translate(158 788.959)">
      <g id="グループ_114" data-name="グループ 114" transform="translate(0 0)">
        <path id="パス_89" data-name="パス 89" d="M408.1,287.229H406.36v-6.865h-2.523v-1.476h6.781v1.476H408.1Z" transform="translate(-386.946 -278.889)" fill="#f2f2f2"/>
        <path id="パス_90" data-name="パス 90" d="M416.06,283.488v3.741h-1.742v-8.341h1.742v3.162h3.251v-3.162h1.744v8.341h-1.744v-3.741Z" transform="translate(-390.026 -278.889)" fill="#f2f2f2"/>
        <path id="パス_91" data-name="パス 91" d="M430.913,280.364h-4.38v1.754h3.86v1.476h-3.86v2.163h4.379v1.474h-6v-8.341h6Z" transform="translate(-393.138 -278.889)" fill="#f2f2f2"/>
        <path id="パス_92" data-name="パス 92" d="M385.085,291.913h1.628v8.341H384.97l-3.4-5.947h-.025v5.947h-1.627v-8.341h1.834l3.307,5.807h.027Z" transform="translate(-379.916 -282.716)" fill="#f2f2f2"/>
        <path id="パス_93" data-name="パス 93" d="M394.667,291.6c1.105,0,4.008.477,4.008,4.391s-2.9,4.389-4.008,4.389-4.009-.477-4.009-4.389,2.906-4.391,4.009-4.391m0,7.306c.942,0,2.264-.58,2.264-2.916s-1.322-2.915-2.264-2.915-2.265.582-2.265,2.915,1.326,2.916,2.265,2.916" transform="translate(-383.073 -282.624)" fill="#f2f2f2"/>
        <path id="パス_94" data-name="パス 94" d="M417.641,300.254H415.9v-6.867h-2.524v-1.474h6.781v1.474h-2.516Z" transform="translate(-389.749 -282.716)" fill="#f2f2f2"/>
        <path id="パス_95" data-name="パス 95" d="M425.611,296.514v3.738H423.87v-8.34h1.741v3.158h3.251v-3.158h1.745v8.34h-1.745v-3.738Z" transform="translate(-392.832 -282.716)" fill="#f2f2f2"/>
        <path id="パス_96" data-name="パス 96" d="M403.037,291.913h4.219a2.348,2.348,0,0,1,2.623,2.361,2,2,0,0,1-1.292,1.986c.687.3,1.058.555,1.058,2.112,0,1.22,0,1.523.371,1.662v.22h-1.93a5.623,5.623,0,0,1-.183-1.683c0-1.14-.068-1.58-1.361-1.58h-1.8v3.262h-1.709Zm3.754,3.672c.907,0,1.348-.314,1.348-1.139,0-.44-.2-1.09-1.22-1.09h-2.173v2.229Z" transform="translate(-386.71 -282.716)" fill="#f2f2f2"/>
        <path id="パス_97" data-name="パス 97" d="M397.487,313.275h-1.74v-8.34h5.932v1.476h-4.193v1.881h3.669v1.478h-3.669Z" transform="translate(-384.568 -286.543)" fill="#f2f2f2"/>
        <path id="パス_98" data-name="パス 98" d="M404.494,313.275h-1.836l2.973-8.34h2.01l2.938,8.34h-1.894l-.534-1.72h-3.077Zm1.046-3.159h2.124l-1.034-3.3h-.019Z" transform="translate(-386.599 -286.543)" fill="#f2f2f2"/>
        <path id="パス_99" data-name="パス 99" d="M419.083,307.615a1.692,1.692,0,0,0-1.844-1.438c-.837,0-2.072.557-2.072,2.914,0,1.5.595,2.848,2.072,2.848a1.777,1.777,0,0,0,1.844-1.57h1.741a3.467,3.467,0,0,1-3.621,3.077c-2.219,0-3.81-1.494-3.81-4.378,0-2.914,1.682-4.4,3.836-4.4a3.316,3.316,0,0,1,3.595,2.949Z" transform="translate(-389.754 -286.464)" fill="#f2f2f2"/>
        <path id="パス_100" data-name="パス 100" d="M430.913,306.411h-4.38v1.753h3.86v1.476h-3.86V311.8h4.379v1.473h-6v-8.34h6Z" transform="translate(-393.138 -286.543)" fill="#f2f2f2"/>
        <path id="パス_101" data-name="パス 101" d="M391.85,313.484a1.28,1.28,0,1,1-1.29,1.272,1.272,1.272,0,0,1,1.29-1.272m0,2.371a1.092,1.092,0,1,0-1.058-1.1,1.057,1.057,0,0,0,1.058,1.1m-.5-1.842h.578c.357,0,.523.14.523.428a.383.383,0,0,1-.393.407l.427.662h-.249l-.408-.644h-.246v.644h-.233Zm.233.664h.242c.206,0,.393-.01.393-.246,0-.2-.17-.23-.328-.23h-.307Z" transform="translate(-383.044 -289.055)" fill="#f2f2f2"/>
        <path id="パス_102" data-name="パス 102" d="M454.94,298.218a19.319,19.319,0,0,0-19.33-19.329h-.383v8.34h.383a11.321,11.321,0,0,1,11.327,11.19h0v7.2h8Z" transform="translate(-396.17 -278.889)" fill="#f2f2f2"/>
        <path id="パス_103" data-name="パス 103" d="M435.611,304.935h-.382v8.34h4v-4.722a3.616,3.616,0,0,0-3.618-3.618" transform="translate(-396.17 -286.543)" fill="#f2f2f2"/>
        <path id="パス_104" data-name="パス 104" d="M446.084,302.344a10.471,10.471,0,0,0-10.464-10.431h-.393v8.34h.383a4.47,4.47,0,0,1,4.473,4.473v4.722h6Z" transform="translate(-396.17 -282.716)" fill="#f2f2f2"/>
      </g>
    </g>
    <g id="グループ_2070" data-name="グループ 2070" transform="translate(22 879)">
      <g id="グループ_2065" data-name="グループ 2065">
        <g id="グループ_2064" data-name="グループ 2064" clip-path="url(#clip-path)">
          <path id="パス_697" data-name="パス 697" d="M53.737,131.083a4.091,4.091,0,0,1,8.175-.285c0,3.023-2.814,5.532-6.027,7.985H60.6c.647,0,.856-.076,1.141-1.654h.514L61.8,140.95h-.514c0-.171-.057-.418-.323-.418H53.889V139.7c4.031-3.821,6.027-5.893,6.027-8.9,0-1.9-.8-3-2.452-3-1.54,0-2.8,1.026-2.8,3.289Z" fill="#97ce1c"/>
          <path id="パス_698" data-name="パス 698" d="M73.259,133.878c0,3.954-1.559,6.939-4.658,6.939s-4.657-2.985-4.657-6.939,1.558-6.939,4.657-6.939,4.658,2.984,4.658,6.939m-2,0c0-3.574-.437-6.122-2.662-6.122s-2.661,2.548-2.661,6.122c0,3.556.437,6.1,2.661,6.1s2.662-2.547,2.662-6.1" fill="#97ce1c"/>
          <path id="パス_699" data-name="パス 699" d="M74.984,131.083a4.091,4.091,0,0,1,8.176-.285c0,3.023-2.815,5.532-6.028,7.985h4.715c.647,0,.856-.076,1.141-1.654H83.5l-.456,3.821h-.514c0-.171-.057-.418-.323-.418H75.136V139.7c4.031-3.821,6.027-5.893,6.027-8.9,0-1.9-.8-3-2.452-3-1.54,0-2.795,1.026-2.795,3.289Z" fill="#97ce1c"/>
          <path id="パス_700" data-name="パス 700" d="M90.532,140.532V137.11H85.171v-.646l5.742-9.24h1.444v9.031h2.168v.855H92.357v3.422Zm-4.239-4.277h4.239v-6.788Z" fill="#97ce1c"/>
          <path id="パス_701" data-name="パス 701" d="M98.456,139.525a1.2,1.2,0,1,1-2.4,0,1.2,1.2,0,0,1,2.4,0" fill="#97ce1c"/>
          <path id="パス_702" data-name="パス 702" d="M109.12,136.35c0,2.51-1.787,4.468-5.038,4.468-1.807,0-3.745-.627-3.745-1.958a.947.947,0,0,1,.931-.989c1.559,0,1.236,2.091,2.89,2.091,2.225,0,2.966-1.349,2.966-3.156a3.05,3.05,0,0,0-3.251-3.175h-.343v-.837h.457a2.413,2.413,0,0,0,2.509-2.6,2.162,2.162,0,0,0-2.205-2.4,2.563,2.563,0,0,0-2.605,2.681h-.931a3.626,3.626,0,0,1,3.879-3.536c2.566,0,3.859,1.52,3.859,2.966a3.054,3.054,0,0,1-2.319,2.985,3.61,3.61,0,0,1,2.946,3.46" fill="#97ce1c"/>
          <path id="パス_703" data-name="パス 703" d="M113.28,139.525a1.2,1.2,0,1,1-2.4,0,1.2,1.2,0,0,1,2.4,0" fill="#97ce1c"/>
          <path id="パス_704" data-name="パス 704" d="M124.152,137.073c0,2.11-1.653,3.745-4.733,3.745-3.024,0-4.582-1.807-4.582-3.46,0-1.978,1.33-2.91,2.813-3.594a3.689,3.689,0,0,1-2.243-3.5c0-1.35,1.159-3.327,4.3-3.327,2.509,0,3.9,1.482,3.9,3.022,0,1.787-1.16,2.644-2.51,3.271,1.749.779,3.061,1.73,3.061,3.841m-1.768.474c0-1.653-1.216-2.338-3.688-3.289-1.388.628-2.567,1.389-2.567,3.024,0,1.369.951,2.718,3.232,2.718,2.263,0,3.023-1.331,3.023-2.453m-5.19-7.661c0,1.615,1.312,2.224,2.813,2.852,1.312-.59,2.416-1.275,2.416-2.7,0-1.293-.856-2.281-2.606-2.281-1.635,0-2.623.779-2.623,2.13" fill="#97ce1c"/>
          <path id="パス_705" data-name="パス 705" d="M132.342,129a7.948,7.948,0,0,0,0,11.373l-.279.329a7.3,7.3,0,0,1,0-12.031Z" fill="#97ce1c"/>
          <path id="パス_706" data-name="パス 706" d="M135.027,133.771h2.052c.937,0,1.114-.418,1.19-1.229h.329v3.028h-.329c-.076-.811-.253-1.229-1.19-1.229h-2.052v2.926c0,.962.215,1.038,1.229,1.1v.316h-3.711v-.316c1.013-.064,1.228-.14,1.228-1.1v-6.029c0-.975-.215-1.038-1.228-1.1v-.316h7.016l.849,2.064-.267.139a3.67,3.67,0,0,0-3.317-1.634h-1.419a.348.348,0,0,0-.38.381Z" fill="#97ce1c"/>
          <path id="パス_707" data-name="パス 707" d="M148.076,137.609a1.705,1.705,0,0,0,1.469.759v.317h-2.166l-3.077-4.357h-1.191v2.939c0,.962.215,1.038,1.229,1.1v.317h-3.711v-.317c1.013-.063,1.228-.139,1.228-1.1v-6.029c0-.975-.152-1.038-1.228-1.1v-.316h4.394c2.1,0,3.584.607,3.584,2.254,0,1.457-1.228,2.115-2.9,2.216Zm-4.585-7.22a.348.348,0,0,0-.38.381v3h1.9c1.418,0,2.2-.532,2.2-1.7s-.786-1.685-2.192-1.685Z" fill="#97ce1c"/>
          <path id="パス_708" data-name="パス 708" d="M149.522,138.685v-.316c1.014-.064,1.229-.14,1.229-1.1v-6.029c0-.975-.215-1.038-1.229-1.1v-.316h3.711v.316c-1.014.064-1.229.127-1.229,1.1v6.029c0,.962.215,1.038,1.229,1.1v.316Z" fill="#97ce1c"/>
          <path id="パス_709" data-name="パス 709" d="M153.439,140.369a7.951,7.951,0,0,0,0-11.373l.278-.329a7.281,7.281,0,0,1,0,12.031Z" fill="#97ce1c"/>
          <path id="パス_710" data-name="パス 710" d="M237.453,129a7.948,7.948,0,0,0,0,11.373l-.279.329a7.3,7.3,0,0,1,0-12.031Z" fill="#97ce1c"/>
          <path id="パス_711" data-name="パス 711" d="M240.139,133.771h2.052c.937,0,1.114-.418,1.19-1.229h.329v3.028h-.329c-.076-.811-.253-1.229-1.19-1.229h-2.052v2.926c0,.962.215,1.038,1.229,1.1v.316h-3.711v-.316c1.013-.064,1.228-.14,1.228-1.1v-6.029c0-.975-.215-1.038-1.228-1.1v-.316h7.016l.849,2.064-.267.139a3.67,3.67,0,0,0-3.317-1.634h-1.419a.348.348,0,0,0-.38.381Z" fill="#97ce1c"/>
          <path id="パス_712" data-name="パス 712" d="M253.188,137.609a1.7,1.7,0,0,0,1.468.759v.317H252.49l-3.077-4.357h-1.191v2.939c0,.962.216,1.038,1.229,1.1v.317H245.74v-.317c1.013-.063,1.228-.139,1.228-1.1v-6.029c0-.975-.152-1.038-1.228-1.1v-.316h4.394c2.1,0,3.584.607,3.584,2.254,0,1.457-1.228,2.115-2.9,2.216Zm-4.586-7.22a.348.348,0,0,0-.38.381v3h1.9c1.418,0,2.2-.532,2.2-1.7s-.786-1.685-2.192-1.685Z" fill="#97ce1c"/>
          <path id="パス_713" data-name="パス 713" d="M254.634,138.685v-.316c1.014-.064,1.229-.14,1.229-1.1v-6.029c0-.975-.215-1.038-1.229-1.1v-.316h3.711v.316c-1.014.064-1.229.127-1.229,1.1v6.029c0,.962.215,1.038,1.229,1.1v.316Z" fill="#97ce1c"/>
          <path id="パス_714" data-name="パス 714" d="M258.55,140.369a7.951,7.951,0,0,0,0-11.373l.278-.329a7.281,7.281,0,0,1,0,12.031Z" fill="#97ce1c"/>
        </g>
      </g>
      <path id="パス_715" data-name="パス 715" d="M199.672,140.532V137.11h-5.361v-.646l5.742-9.24H201.5v9.031h2.168v.855H201.5v3.422Zm-4.239-4.277h4.239v-6.788Z" fill="#97ce1c"/>
      <g id="グループ_2067" data-name="グループ 2067">
        <g id="グループ_2066" data-name="グループ 2066" clip-path="url(#clip-path)">
          <path id="パス_716" data-name="パス 716" d="M207.6,139.525a1.2,1.2,0,1,1-2.4,0,1.2,1.2,0,0,1,2.4,0" fill="#97ce1c"/>
          <path id="パス_717" data-name="パス 717" d="M210.483,140.533v-.476c1.939-.094,2.415-.209,2.415-1.653v-8.613c0-.456-.171-.609-.59-.609h-1.8v-.4l3.517-1.845h.7V138.4c0,1.444.494,1.559,2.415,1.653v.476Z" fill="#97ce1c"/>
          <path id="パス_718" data-name="パス 718" d="M219.815,131.083a4.091,4.091,0,0,1,8.175-.285c0,3.023-2.814,5.532-6.027,7.985h4.715c.647,0,.856-.076,1.141-1.654h.514l-.456,3.821h-.514c0-.171-.057-.418-.323-.418h-7.073V139.7c4.031-3.821,6.027-5.893,6.027-8.9,0-1.9-.8-3-2.452-3-1.54,0-2.8,1.026-2.8,3.289Z" fill="#97ce1c"/>
        </g>
      </g>
      <rect id="長方形_505" data-name="長方形 505" width="26.395" height="0.527" transform="translate(162.818 134.463)" fill="#97ce1c"/>
      <g id="グループ_2069" data-name="グループ 2069">
        <g id="グループ_2068" data-name="グループ 2068" clip-path="url(#clip-path)">
          <path id="パス_719" data-name="パス 719" d="M40.067,17.862c-.013,6.46-2.551,11.925-6.233,17.233a57.031,57.031,0,0,1-8.287,9.9A25.9,25.9,0,0,1,12.44,51.852,10.624,10.624,0,0,1,.384,43.52,23.283,23.283,0,0,1,1.3,31.64c2.837-8.279,8.227-14.733,14.754-20.326a53.762,53.762,0,0,1,5.727-4.18c3.855-2.5,8.156-2.737,12.451-1.722,2.964.7,4.587,3.085,5.22,5.966a46.909,46.909,0,0,1,.614,6.484m-3.08-1.533a15.716,15.716,0,0,0-1.423-6.222A2.718,2.718,0,0,0,32.59,8.349a11.352,11.352,0,0,1-2.864-.314,8.088,8.088,0,0,0-5.253.824A45.877,45.877,0,0,0,4.715,30.786,19.2,19.2,0,0,0,3.927,43.87a6.2,6.2,0,0,0,2.281,3.389,7.049,7.049,0,0,0,7.429,1.213c3.876-1.592,7.582-3.433,10.63-6.433a57.937,57.937,0,0,0,8.525-10.775c2.8-4.5,3.884-9.484,4.2-14.93" fill="#97ce1c"/>
          <path id="パス_720" data-name="パス 720" d="M112.136,36.324c-1.19,3.172-3.667,3.958-6.829,4.721A88.192,88.192,0,0,1,90.99,43.774a14.989,14.989,0,0,1-5.337-.555,4.16,4.16,0,0,1-2.536-6.345A20.443,20.443,0,0,1,86.785,32.4c1.6-1.538,3.448-2.806,5.16-4.228a27.979,27.979,0,0,0,2.268-1.85c-1.241-.542-2.524-1.052-3.5-1.431-3.945-1.53-5.2-7.979-1.384-11.214a42.833,42.833,0,0,1,4.694-3.465,10.234,10.234,0,0,1,8.028-1.257c.779.177,2.253,1.3,1.892,1.9-.672,1.117-2.075.493-3.111.445-3.878-.18-6.546,1.932-8.915,4.6a5.308,5.308,0,0,0-.951,1.834c-.821,2.449.525,4.644,3.086,4.728a26.653,26.653,0,0,0,5.358-.56c1.223-.211,2.386-.752,3.6-1.039a2.819,2.819,0,0,1,2.272.163c1.473,1.081.311,2.55-1.009,3.385a12.412,12.412,0,0,1-2.252,1.084c-4.241,1.6-7.6,4.563-11.217,7.136a12.161,12.161,0,0,0-3.795,4.887,2.014,2.014,0,0,0,1.653,3.078,14.258,14.258,0,0,0,4.554-.051c3.94-.844,7.825-1.935,11.738-2.9a11.874,11.874,0,0,0,4.99-2.873c.68-.6,1.7-.522,2.184.854a2.8,2.8,0,0,1,.009.7" fill="#97ce1c"/>
          <path id="パス_721" data-name="パス 721" d="M68.218,29.042c.067,1.507,2.338-2.557,2.85-3.446,1.944-3.371,4.507-8.7,6.306-12.153.57-1.089.783-3.157,1.292-4.284a2.254,2.254,0,0,1,1.156-1.04,1.348,1.348,0,0,1,1.756.722,4.283,4.283,0,0,1,.345,2.347,15.155,15.155,0,0,1-1.247,3.079c-.316.593-2.059,3.762-2.4,4.34-3.146,5.323-5.493,10.187-8.753,15.443a2.814,2.814,0,0,1-1.737,1.132c-1.768.549-2.674-.818-2.772-2.366-.149-2.357-.1-4.728-.268-7.083s-.455-4.688-.805-7.014a5.422,5.422,0,0,0-2.826-4,1.041,1.041,0,0,0-.8-.106,6.761,6.761,0,0,0-3.9,2.886c-2.453,3.534-5.226,6.9-6.77,10.981a86.268,86.268,0,0,0-2.961,9.1,8.016,8.016,0,0,0,.164,5.323c.589,1.352.253,2.11-.6,2.418-1.357.494-2.777.107-3.183-1.091a6.773,6.773,0,0,1-.44-3.23,47.762,47.762,0,0,1,1.929-7.67,72.134,72.134,0,0,1,7.7-15.209,34.725,34.725,0,0,1,4.292-5.082c3.065-3.1,6.7-2.608,8.928,1.222A19.943,19.943,0,0,1,68,23.434c.07,1.379.139,3.835.218,5.608" fill="#97ce1c"/>
          <path id="パス_722" data-name="パス 722" d="M61.178,70.186A8,8,0,0,1,59.9,67.644a1.632,1.632,0,0,1,.509-1.434,1.244,1.244,0,0,1,1.148-.06,4.826,4.826,0,0,1,1.646,1.231,14.91,14.91,0,0,1,3.2,6.251c2.2,12.157-.13,23.222-8.3,32.731-2.35,2.735-4.947,5.266-7.531,7.788a19.057,19.057,0,0,1-3.665,2.738c-4.22,2.469-8.455.933-10.031-3.686A16.52,16.52,0,0,1,36,108.3c-.122-5.713.275-11.35,2.318-16.811a23.683,23.683,0,0,1,3.609-6.5A57.829,57.829,0,0,1,52.877,74.195c3.53-2.613,4.068-3.1,8.046-3.623.251-.033.255-.386.255-.386m2.4,3.592c-1.111-.115-1.45,1.191-2.763.424-1.47-.858-2.981.019-4.322.752a34.6,34.6,0,0,0-9.463,7.38c-2.216,2.5-4.472,5-5.745,8.12a36.635,36.635,0,0,0-2.108,19.212,9.814,9.814,0,0,0,1.075,3.123c1.173,2.235,2.979,2.851,5.2,1.69a20.234,20.234,0,0,0,4.119-2.788c2.269-2.035,4.441-4.189,6.536-6.4a29.192,29.192,0,0,0,7.282-12.431,45.676,45.676,0,0,0,1.7-10.225,21.325,21.325,0,0,0-.909-8.408.615.615,0,0,0-.607-.444" fill="#97ce1c"/>
          <path id="パス_723" data-name="パス 723" d="M95.659,97.133c3.264-3.958,6.838-7.644,9.2-12.26.633-1.236,1.254-2.481,1.979-3.663a16.616,16.616,0,0,0,2.629-7.391c.032-.555-.385-1.525-.207-2.051.3-.808,1.614-.9,2.474-.851a1.56,1.56,0,0,1,1.622,1.5l0,.052a7.14,7.14,0,0,1-.416,2.8,46.4,46.4,0,0,1-2.882,6c-3.062,5.117-5.815,10.444-9.729,15.011-1.356,1.583-2.684,3.195-4.143,4.677-1.415,1.438-2.534,1.382-3.891-.1A7.307,7.307,0,0,1,91,98.768a17.633,17.633,0,0,1-1.161-6.946,24.843,24.843,0,0,0-2.45-10.045c-1.084-2.47-2.524-2.722-4.409-.648a27.41,27.41,0,0,0-6.277,11.139A28.5,28.5,0,0,0,75.666,99.8c-.009.87-.438,2.427.806,2.7.882.2.753.983.624,1.69a3.919,3.919,0,0,1-2.652,3.224c-1.3.546-2.636-1.893-2.574-3.828a38.414,38.414,0,0,1,.943-7.414,69.309,69.309,0,0,1,3.981-11.8c1.437-3.326,3.858-5.734,6.479-8.024a2.673,2.673,0,0,1,3.462-.2,11.272,11.272,0,0,1,4.18,5.06c1.414,3.537,1.806,7.267,2.386,10.963a12.623,12.623,0,0,0,1.313,4.857c.363.665.81.384,1.045.1" fill="#97ce1c"/>
          <path id="パス_724" data-name="パス 724" d="M127.629,88.241c-1.262-.734-2.391-.248-3.483-.793a12.2,12.2,0,0,1-3.441-2.351,4.946,4.946,0,0,1-.078-6.118c3.842-4.9,7.852-8.236,14.266-9.42a14.869,14.869,0,0,1,4.118.038c.964.1,1.871,1.195,1.507,1.615-.448.484-.716,1.043-1.621,1.156-1.636.229-3.439-.2-5.013.213-4.053,1.077-7.064,3.824-9.762,6.857a3.306,3.306,0,0,0,1.167,5.264,6.8,6.8,0,0,0,4.864.64c1.342-.34,2.649-.816,3.981-1.2.976-.28,2.709-.327,2.7.665-.011,2.153-1.2,3.485-3.013,4.461-2.2,1.191-4.434,2.336-6.582,3.622-2.263,1.356-4.465,2.819-6.646,4.305-1.366.818-3.876,2.518-2.776,3.67a5.729,5.729,0,0,0,4.984,1.035A70.634,70.634,0,0,0,133.1,98.517c2.446-1,4.882-2.032,7.338-3.006a4.543,4.543,0,0,1,1.976-.429,1.5,1.5,0,0,1,1.026,1.026,2.743,2.743,0,0,1-2.147,3.1c-3.567,1.165-7.241,2.07-10.683,3.527a30.49,30.49,0,0,1-8.406,2.293,36.4,36.4,0,0,1-4.565.015,3.18,3.18,0,0,1-.82-.145,3.808,3.808,0,0,1-1.753-6.523,39.329,39.329,0,0,1,4.645-3.522c2.5-1.768,5.033-3.479,7.537-5.237.2-.141.852-.424.7-.842a1.609,1.609,0,0,0-.316-.537" fill="#97ce1c"/>
          <path id="パス_725" data-name="パス 725" d="M176.091,26.7c6.561-3.634,9.974-9.482,13.124-15.706a14.589,14.589,0,0,0,1.131-5.62c.1-1.792-1.24-2.581-2.764-1.8A14.423,14.423,0,0,0,182.9,6.955c-1.169,1.387-2.516,2.655-2.971,4.464-.464,1.848-2.54,2.459-3.011,4.359-.428,1.733-1.488,3.3-1.974,5.027-1.581,5.612-3.037,11.253-4.492,16.9a11.81,11.81,0,0,0-.033,2.039,33.992,33.992,0,0,1-.454,4.5,3.975,3.975,0,0,1-1.325,2.022,2.156,2.156,0,0,1-1.839.409,1.95,1.95,0,0,1-.931-1.6,56.992,56.992,0,0,1,1.374-7.352c2.439-8.83,4.271-17.834,7.415-26.463a2.416,2.416,0,0,0,.247-.79c-.037-2.209.584-3.793,3.181-3.968.581-.039,1.125-.742,1.661-1.169,1.3-1.038,2.544-2.165,3.9-3.12A14.867,14.867,0,0,1,186.937.437c3.775-1.41,6.723.7,6.609,4.8a14.8,14.8,0,0,1-1.572,6.861,64.094,64.094,0,0,1-4.418,7.043c-1.861,3.405-4.743,5.033-7.163,7.985a13.163,13.163,0,0,0,3.923,6.212c6.993,5.5,14.1,10.857,22.564,14,1.412.525,1.906,1.29,1.476,2.045-.615,1.075-1.6,1.01-2.554.679a55.644,55.644,0,0,1-5.438-2.079,78.742,78.742,0,0,1-14.046-8.929,90.911,90.911,0,0,1-7.606-6.474,9.562,9.562,0,0,1-2.795-5.151,1.345,1.345,0,0,1,.174-.727" fill="#97ce1c"/>
          <path id="パス_726" data-name="パス 726" d="M141.3,24.287c2.33-1.325,2.577-3.1,2.9-5.262.729-4.934,2.5-9.661,2.986-14.654.188-1.919,1.213-2.365,3.219-1.573.242.1.482.195.887.361,1.962-1.348,3.956-2.941,6.587-3.049a22.82,22.82,0,0,1,4.141,0c4.94.709,7.564,5.074,6.011,9.855a20.272,20.272,0,0,1-5.172,7.971A24.426,24.426,0,0,1,150.3,24.952c-1.491.309-2.961.716-4.477,1.09a16.27,16.27,0,0,0-1.871,5.943c-1.112,6.147-2.23,12.295-3.273,18.454-.243,1.436-.583,2.7-1.939,3.475-.742.422-1.929-.034-1.935-.849a15.512,15.512,0,0,1,.284-3.282c.661-3.125,1.433-6.226,2.132-9.343.88-3.929,1.664-7.883,2.628-11.789.359-1.458-.808-2.052-.933-3.863-.01-.157.386-.5.386-.5m5.534-1.146a50.765,50.765,0,0,0,5.927-1.57c5.038-2.016,9.267-5.087,11.649-10.147a10.857,10.857,0,0,0,.983-3.986c.132-2.654-1.218-4.1-3.856-4.545a8.551,8.551,0,0,0-9.163,4.988c-.388.938-.533,1.795-1.775,1.962-.4.057-.882.642-1.065,1.095a42.587,42.587,0,0,0-1.991,5.476c-.5,1.971-1.28,3.959-.71,6.729" fill="#97ce1c"/>
          <path id="パス_727" data-name="パス 727" d="M225.266,37.038c-.7-4.99,1.612-9.1,2.45-13.561.819-4.36,2.187-8.352,2.706-13.288.1-.916-1.289-1.543-1.888-2.442-.857-1.291-.522-2.546.924-3.027a24.29,24.29,0,0,1,5.244-1.3,78.235,78.235,0,0,1,8.33-.244A14.314,14.314,0,0,1,250.121,5.4c3.477,2.042,4.488,4.427,3.63,8.418a14.048,14.048,0,0,1-2.834,5.986,113.747,113.747,0,0,1-7.987,9.063,92.682,92.682,0,0,1-7.751,6.3c-2.776,2.2-5.837,4.029-9.538,2.331a.573.573,0,0,1-.375-.465m8.574-25.789a130.089,130.089,0,0,0-3.817,16.563,29.817,29.817,0,0,0-.384,4.132c-.03,1.819,1.053,2.44,2.729,1.649a17.987,17.987,0,0,0,1.826-.993,50.735,50.735,0,0,0,14.245-13.757,18.511,18.511,0,0,0,2.479-4.771c1.093-3.216-.19-5.745-3.307-7.066a6.962,6.962,0,0,0-1.579-.5,24.363,24.363,0,0,0-11.162.3s-.6,3-1.03,4.44" fill="#97ce1c"/>
          <path id="パス_728" data-name="パス 728" d="M320.618,10.249c-1.173,6.452-2.859,14.6-4.2,20.31-2.187,9.3-2.5,10.537-5.325,20.465-.4,1.425-.806,1.555-.474,4.04-.036.958-1.263,1.925-1.558,2.155-.682.5-1.443,1.238-2.34.761-1.081-.573-.864-2.408-.688-3.433.375-2.187,1.534-3.762,2.272-6.481,1.561-5.756,2.15-7.479,3.562-13.27,1.182-4.847,2.291-8.681,3.665-14.385.856-3.554,2.415-10.933,2.523-15.553a.384.384,0,0,0-.372-.358c-.7-.038-2.2.093-2.893.095-2.216.159-4.42.458-6.637.578a4.1,4.1,0,0,1-1.93-.575,1.442,1.442,0,0,1,.1-2.154,5.388,5.388,0,0,1,1.584-.406q10.99-.975,21.987-1.9a6.059,6.059,0,0,1,2.059.046,1.858,1.858,0,0,1,1.138,1c.1.669.209,1.227-.264,1.688-.339.317-1.588.322-2.135.38-2.892.3-4.548.59-7.736.85-1.551.126-1.776,3.054-2.338,6.143" fill="#97ce1c"/>
          <path id="パス_729" data-name="パス 729" d="M201.371,9.8a.575.575,0,0,1,.158-.636c4.425-3.97,11.206-4.6,15.846-1.471a7.8,7.8,0,0,1,3.671,5.771,14.239,14.239,0,0,1-.39,6.181,35.845,35.845,0,0,1-4.09,8.62,16.8,16.8,0,0,1-5.8,5.27c-3.13,1.787-6.071,1.347-8.782-1.1a10.2,10.2,0,0,1-3.519-8.089,25.469,25.469,0,0,1,2.112-9.683c.423-1.02.907-1.6,1.408-2.6,0,0,.2-.22-.61-2.262m5.485,2.431a6.166,6.166,0,0,0-3.042,3.786c-.645,2.112-1.124,4.278-1.6,6.437a7.949,7.949,0,0,0,.525,4.482c1.748,4.8,4.523,5.676,8.5,2.555,3.759-2.944,5.825-6.991,6.987-11.517.651-2.534.414-5.1-1.448-7.034a7.673,7.673,0,0,0-6.9-2.478c-.134.017-.425.236-.371.361.465,1.056,1.379,1.538,1.7,2.449.173.607-.837.814-1.444.986a6.866,6.866,0,0,1-2.722-.045Z" fill="#97ce1c"/>
          <path id="パス_730" data-name="パス 730" d="M262.816,30.768A5,5,0,0,0,266.2,29.34c4.449-3.98,6.685-9.126,9.831-14.2a23.566,23.566,0,0,0,1.214-2.181c1.811-3.724,1.818-4.016.33-7.756,1.463-1.018,2.005-1.076,2.766-.32a3.9,3.9,0,0,1,1.159,3.811A18.022,18.022,0,0,1,279.93,13.4C275.94,20.429,273,27.17,267,32.681c-.105.094-.738.559-.837.657-3.455,1.81-7.387.454-8-2.741a23.091,23.091,0,0,1-.5-7.023,58.541,58.541,0,0,1,2.02-8.913c.77-2.806,1.862-5.519,2.826-8.269a5.9,5.9,0,0,1,.532-1.125,1.9,1.9,0,0,1,2.241-.539,1.427,1.427,0,0,1,.906,1.68,15.459,15.459,0,0,1-1.345,3.46,27.361,27.361,0,0,0-3.054,8.6,69.8,69.8,0,0,0-.744,7.853,9.119,9.119,0,0,0,.15,2.708c.271.663.27.939.812,1.406a1.459,1.459,0,0,0,.8.337" fill="#97ce1c"/>
          <path id="パス_731" data-name="パス 731" d="M304.175,27.111A15.832,15.832,0,0,1,298,32.873c-3.016,1.794-7.423,1.738-9.909-.737a10.744,10.744,0,0,1-2.952-6.3c-.6-4.019.427-7.765,2.041-11.334,1.366-3.023,2.779-6.051,5.167-8.509A18.088,18.088,0,0,0,294.2,2.8a1.8,1.8,0,0,1,2.869-.029,2.744,2.744,0,0,1,.123,3.459,12.823,12.823,0,0,1-1.812,1.681,20.363,20.363,0,0,0-7.048,13.31,10.847,10.847,0,0,0,1.821,7.949,4.556,4.556,0,0,0,6.021,1.434,25.332,25.332,0,0,0,5.011-3.3,13.075,13.075,0,0,0,2.082-2.272c.593-.658.981-1.678,1.629-1.057.5.477.12,1.836-.721,3.134" fill="#97ce1c"/>
          <path id="パス_732" data-name="パス 732" d="M204.924,73.53a14.809,14.809,0,0,1,7.577-.579c2.884.753,5.935,3.163,4.448,7.531a17.532,17.532,0,0,1-7.112,8.966c-1.373.922-2.886,1.632-4.607,2.59a13.543,13.543,0,0,0,1.155,1.988c1.332,1.6,2.692,3.181,4.127,4.688a28.366,28.366,0,0,0,9.776,6.925c3.97,1.636,8.957,3.789,13.319,4.169,1.952.171,2.664,1.175,2.289,2.069-.8,1.93-3.211,1.993-4.645,1.561-1.724-.519-3.431-1.115-5.1-1.791a61.868,61.868,0,0,1-12.987-6.546,43.183,43.183,0,0,1-5.466-4.469,112.114,112.114,0,0,1-7.94-8.531c-.491-.6-.8-.7-.939-.417-1.455,2.975-1.977,6.225-2.692,9.4a4.517,4.517,0,0,0,.3,2.006,4.954,4.954,0,0,1-1.5,4.884,1.865,1.865,0,0,1-2.248.578,1.62,1.62,0,0,1-.839-2.1,148.4,148.4,0,0,1,5.7-19.533c.7-1.888,1.81-3.683.62-5.929-.661-1.249,1.091-2,2.114-2.723,2.059-1.459,2.97-4.046,4.654-4.741M200.27,86.851c3.677,2.662,4.9,2.724,8.05.564a13.859,13.859,0,0,0,2.254-1.816,12.707,12.707,0,0,0,3.625-5.921,3.712,3.712,0,0,0-4.237-4.181,4.765,4.765,0,0,0-3.254,1.513c-.593.573-.858,1.745-1.334,2.422-1.173,1.669-1.623,3.525-3.78,4.348-.739.282-1.156,1.836-1.323,3.07" fill="#97ce1c"/>
          <path id="パス_733" data-name="パス 733" d="M265.141,84.666c-1.317-.1-2.436-.094-3.521-.282A6.436,6.436,0,0,1,256.3,77a6.5,6.5,0,0,1,.286-1.116,4.181,4.181,0,0,1,1.819-2.13,56.153,56.153,0,0,1,7.232-3.187,7.129,7.129,0,0,1,3.671-.047c2.224.482,2.636,1.876,1.285,4.272-.255.377-.564.3-.856.209-1.161-.345-1.939-1.582-3.4-1.342a11.511,11.511,0,0,0-5.238,2.433,3.151,3.151,0,0,0-.892,3.428A2.632,2.632,0,0,0,262.55,81.6a10.653,10.653,0,0,0,3.3,0c1.505-.229,2.965-.76,4.47-.994a2.323,2.323,0,0,1,2.454,1.073c.291,1.837-.915,3.02-2.763,4.08-2.944,1.689-4.991,4.4-7.343,6.751a9.864,9.864,0,0,0-1.882,3.207,2.46,2.46,0,0,0,1.663,3.643,15.708,15.708,0,0,0,5.726.634,50.734,50.734,0,0,0,14.449-3.881c5.719-2.528,8.6-6.644,14.3-9.227.773-.35,1.561-.761,2.3-.094a2.4,2.4,0,0,1,.472,2.434,4.483,4.483,0,0,1-.612,1.274c-1.751,2.494-7.3,4.66-12.113,7.067a62.416,62.416,0,0,1-13.3,4.789,25.39,25.39,0,0,1-10.745.595,15.829,15.829,0,0,1-1.629-.347c-4.446-1.406-6.082-4.28-3.6-8.569a21.93,21.93,0,0,1,4.561-5.363c1.227-1.092,2.875-2.108,3.307-3.963" fill="#97ce1c"/>
          <path id="パス_734" data-name="パス 734" d="M235.531,86.35c-2.059-.744-3.412-1.1-4.64-1.712a15.788,15.788,0,0,1-3.454-2.244,3.2,3.2,0,0,1-.271-4.8c4.414-4.358,9.3-7.972,15.67-8.892a9.612,9.612,0,0,1,2.873.084,1.364,1.364,0,0,1,1.221,1.447c-.287.853-1.06.76-1.7.8-4.913.27-9.1,2.351-12.983,5.176a7.767,7.767,0,0,0-1.261,1.085c-1.679,1.9-1.393,3.412.88,4.68a10.013,10.013,0,0,0,7.629,1.2c1.114-.29,2.185-.573,2.981.646a4.4,4.4,0,0,1-2.806,3.759q-1.129.542-2.253,1.092a15.789,15.789,0,0,0-6.5,5.681,1.282,1.282,0,0,0,1.45,1.583,21.756,21.756,0,0,0,4.532-.56c3.773-.943,7.51-2.034,11.264-3.055a3.375,3.375,0,0,1,1.588-.281c.394.111.972.785.908,1.1A3.262,3.262,0,0,1,248.039,96c-3.67.771-7.317,1.654-10.989,2.415a39.9,39.9,0,0,1-4.54.6,6.971,6.971,0,0,1-4.382-1.083c-2.154-1.339-2.337-3.529-.41-5.13,2.444-2.032,4.9-4.046,7.813-6.448" fill="#97ce1c"/>
          <path id="パス_735" data-name="パス 735" d="M184.02,79.379a22.49,22.49,0,0,1-.789,3.389,76.564,76.564,0,0,0-2.993,10.8c-.916,4.047-2.329,7.981-3.475,11.978-2.256,7.866-4.537,15.732-6.677,23.631-.6,2.217-1.448,6.517-1.2,7.28.892,2.757-1.054,5.264-2.741,7.7a2.359,2.359,0,0,1-1.743.732c-.712-.006-1.347-1.161-1.148-1.953a19.474,19.474,0,0,1,1.03-3.16c1.759-3.946,2.715-8.145,3.927-12.261,1.484-5.039,2.9-10.1,4.286-15.166q2.191-8.018,4.266-16.068c1.109-4.295,2.043-8.636,3.251-12.9a19.41,19.41,0,0,0,.475-4.934,1.672,1.672,0,0,1,1.621-1.572,1.891,1.891,0,0,1,1.824,1.417c.044.272.047.549.089,1.088" fill="#97ce1c"/>
          <path id="パス_736" data-name="パス 736" d="M195.965,68.478c-2.9.725-4.169.688-6.858,1.314-2.836.66-5.649,1.418-8.5,2.034s-5.723,1.122-8.593,1.647a3.35,3.35,0,0,1-1.234-.053c-.742-.147-1.391-.6-1.253-1.378a3.483,3.483,0,0,1,1.014-1.637,1.859,1.859,0,0,1,1.178-.3c5.632-.137,10.9-2.112,16.334-3.225,2.445-.5,4.906-.964,7.381-1.262,1.247-.151,3.184.946,1.98,2.315a4.973,4.973,0,0,1-1.452.544" fill="#97ce1c"/>
        </g>
      </g>
    </g>
  </g>
</svg>
