<svg xmlns="http://www.w3.org/2000/svg" width="261.822" height="100.727" viewBox="0 0 261.822 100.727">
  <g id="グループ_2100" data-name="グループ 2100" transform="translate(-96.167 -101)">
    <text id="_2022" data-name="2022" transform="translate(103.167 101) rotate(90)" fill="#fff" font-size="26" font-family="NimbusSanConL-Bol, Nimbus Sans Cond L"><tspan x="0" y="0">2022</tspan></text>
    <path id="パス_421" data-name="パス 421" d="M12.819-45.229c5.637,0,10-3.6,10-9.688,0-5.977-4.362-9.518-10-9.518s-10,3.541-10,9.518C2.82-48.826,7.182-45.229,12.819-45.229Zm0-3.654c-2.946,0-5.184-2.238-5.184-6.005,0-3.711,2.238-5.892,5.184-5.892S18-58.6,18-54.888C18-51.12,15.765-48.883,12.819-48.883Zm11.359,3.371h4.306v-6.657c0-2.663,1.36-3.994,3.626-3.994,1.9,0,3.031.878,3.031,2.861v7.79h4.306v-8.753c0-3.626-2.181-5.467-5.552-5.467-3.173,0-4.815,1.275-5.524,3.937h-.057l.17-3.711H24.178Zm30.734-7.393c0-4.589-2.748-6.827-6.657-6.827-4.731,0-7.62,2.748-7.62,7.365,0,4.447,2.889,7.082,7.535,7.082,3.994,0,6.657-1.87,6.742-5.07h-3.8C51-49,49.927-48.4,48.255-48.4c-1.926,0-3.088-.991-3.286-3.286h9.943Zm-3.8-1.076H45.083a2.846,2.846,0,0,1,3.173-2.634c1.785,0,2.861.821,2.861,2.408Zm11.274,8.47h4.646v-5.325h3.8c4.872,0,7.195-2.436,7.195-6.572,0-4.5-2.861-6.742-7.62-6.742H62.39Zm4.646-8.441V-60.5h3.229c2.209,0,3.4,1.19,3.4,3.314,0,2.181-1.076,3.229-3.031,3.229Zm12.152,8.441h4.306v-6.034c0-3.116,1.275-4.617,3.116-4.617,1.36,0,2.181.821,2.181,2.861,0,.425-.028,1.133-.085,1.813h3.909c.057-.736.142-1.983.142-2.776,0-3.626-1.671-5.467-4.532-5.467-2.748,0-4.249,1.558-4.844,4.221h-.057l.17-3.994H79.188Zm22.208.227c4.617,0,7.62-2.663,7.62-7.195,0-4.561-3-7.252-7.62-7.252s-7.62,2.691-7.62,7.252C93.776-47.948,96.778-45.285,101.4-45.285Zm0-3.286c-2.1,0-3.314-1.445-3.314-3.909,0-2.493,1.218-3.966,3.314-3.966s3.314,1.473,3.314,3.966C104.71-50.016,103.492-48.571,101.4-48.571Zm15.268,3.286c2.549,0,4.136-1.246,4.674-3.229h.057c-.085,1.5-.142,2.719-.17,3h4.306v-19.63h-4.306v7.7H121.2c-.623-1.445-2.1-2.294-4.362-2.294-4.079,0-6.742,2.833-6.742,7.11C110.092-48.231,112.613-45.285,116.664-45.285Zm.991-3.286c-1.983,0-3.286-1.643-3.286-4.022,0-2.323,1.331-3.852,3.343-3.852a3.265,3.265,0,0,1,3.512,3.371v.68A3.492,3.492,0,0,1,117.655-48.571Zm15.268,3.286c2.663,0,4.561-1.19,5.184-3.881h.057c-.028,1.53-.113,2.691-.2,3.654h4.306V-59.505h-4.306v6.062c0,3.059-1.388,4.589-3.711,4.589a2.576,2.576,0,0,1-2.918-2.861v-7.79h-4.306v8.3C127.031-47.1,129.3-45.285,132.923-45.285Zm17.817,0c4.136,0,7-2.1,7-6.118h-3.8a2.688,2.688,0,0,1-2.974,2.833c-1.9,0-3.031-1.473-3.031-3.937,0-2.549,1.1-3.937,3.116-3.937a2.671,2.671,0,0,1,2.861,2.889h3.8c0-3.881-2.691-6.175-6.8-6.175-4.306,0-7.28,2.691-7.28,7.252C143.63-47.948,146.548-45.285,150.74-45.285Zm15.438,0A13.679,13.679,0,0,0,168.9-45.6v-3.258a10.369,10.369,0,0,1-1.955.2c-1.7,0-2.379-.453-2.379-1.9v-5.609h4.476v-3.343h-4.476v-3.173h-3.541l-.2,1.955c-.085.85-.312,1.218-.963,1.218H158.19v3.343h2.068v5.835C160.258-47.211,161.816-45.285,166.178-45.285ZM12.819-20.217c5.637,0,10-3.6,10-9.688,0-5.977-4.362-9.518-10-9.518s-10,3.541-10,9.518C2.82-23.814,7.182-20.217,12.819-20.217Zm0-3.654c-2.946,0-5.184-2.238-5.184-6.005,0-3.711,2.238-5.892,5.184-5.892S18-33.587,18-29.876C18-26.109,15.765-23.871,12.819-23.871ZM24.178-20.5h4.306v-6.657c0-2.663,1.36-3.994,3.626-3.994,1.9,0,3.031.878,3.031,2.861v7.79h4.306v-8.753c0-3.626-2.181-5.467-5.552-5.467-3.173,0-4.815,1.275-5.524,3.937h-.057l.17-3.711H24.178Zm30.734-7.393c0-4.589-2.748-6.827-6.657-6.827-4.731,0-7.62,2.748-7.62,7.365,0,4.447,2.889,7.082,7.535,7.082,3.994,0,6.657-1.87,6.742-5.07h-3.8c-.113,1.36-1.19,1.955-2.861,1.955-1.926,0-3.088-.991-3.286-3.286h9.943Zm-3.8-1.076H45.083A2.846,2.846,0,0,1,48.255-31.6c1.785,0,2.861.821,2.861,2.408ZM66.923-20.5h4.646V-35.485h5.269v-3.654H61.625v3.654h5.3Zm10.056,0h4.306v-6.034c0-3.116,1.275-4.617,3.116-4.617,1.36,0,2.181.821,2.181,2.861,0,.425-.028,1.133-.085,1.813h3.909c.057-.736.142-1.983.142-2.776,0-3.626-1.671-5.467-4.532-5.467-2.748,0-4.249,1.558-4.844,4.221h-.057l.17-3.994H76.978Zm28.865-7.393c0-4.589-2.748-6.827-6.657-6.827-4.73,0-7.62,2.748-7.62,7.365,0,4.447,2.889,7.082,7.535,7.082,3.994,0,6.657-1.87,6.742-5.07h-3.8c-.113,1.36-1.19,1.955-2.861,1.955-1.926,0-3.088-.991-3.286-3.286h9.943Zm-3.8-1.076H96.014A2.846,2.846,0,0,1,99.186-31.6c1.785,0,2.861.821,2.861,2.408ZM121.2-27.893c0-4.589-2.748-6.827-6.657-6.827-4.73,0-7.62,2.748-7.62,7.365,0,4.447,2.889,7.082,7.535,7.082,3.994,0,6.657-1.87,6.742-5.07h-3.8c-.113,1.36-1.19,1.955-2.861,1.955-1.926,0-3.088-.991-3.286-3.286H121.2Zm-3.8-1.076h-6.034a2.846,2.846,0,0,1,3.173-2.634c1.785,0,2.861.821,2.861,2.408Zm11.076,8.47h4.306v-6.685c0-2.634,1.19-3.966,2.861-3.966,1.473,0,2.323.991,2.323,2.634V-20.5h4.306v-6.77c0-2.578,1.19-3.881,2.889-3.881,1.473,0,2.323.991,2.323,2.634V-20.5h4.306v-9.008c0-3.286-1.728-5.212-4.787-5.212a4.487,4.487,0,0,0-4.787,3.654h-.028c-.312-2.266-2.04-3.654-4.73-3.654a4.68,4.68,0,0,0-4.787,3.852h-.028l.142-3.626h-4.306Zm38.779-7.393c0-4.589-2.748-6.827-6.657-6.827-4.73,0-7.62,2.748-7.62,7.365,0,4.447,2.889,7.082,7.535,7.082,3.994,0,6.657-1.87,6.742-5.07h-3.8c-.113,1.36-1.19,1.955-2.861,1.955-1.926,0-3.088-.991-3.286-3.286h9.943Zm-3.8-1.076h-6.034A2.846,2.846,0,0,1,160.6-31.6c1.785,0,2.861.821,2.861,2.408Zm19.149,1.076c0-4.589-2.748-6.827-6.657-6.827-4.73,0-7.62,2.748-7.62,7.365,0,4.447,2.889,7.082,7.535,7.082,3.994,0,6.657-1.87,6.742-5.07h-3.8c-.113,1.36-1.19,1.955-2.861,1.955-1.926,0-3.088-.991-3.286-3.286h9.943Zm-3.8-1.076h-6.034a2.846,2.846,0,0,1,3.173-2.634c1.785,0,2.861.821,2.861,2.408Zm12.237,8.7a13.679,13.679,0,0,0,2.719-.312v-3.258a10.369,10.369,0,0,1-1.955.2c-1.7,0-2.379-.453-2.379-1.9v-5.609h4.476v-3.343h-4.476v-3.173h-3.541l-.2,1.955c-.085.85-.312,1.218-.963,1.218h-1.671v3.343h2.068v5.835C185.128-22.2,186.686-20.274,191.049-20.274Zm10.452,0c4.787,0,7.308-1.728,7.308-4.674a3.18,3.18,0,0,0-1.558-2.776,9.867,9.867,0,0,0-3.994-.935,31.456,31.456,0,0,1-3.456-.425,1.156,1.156,0,0,1-1.02-1.246c0-.963.85-1.615,2.776-1.615,2.124,0,2.8.765,2.833,2.238h3.8c0-3.258-2.1-5.014-6.685-5.014-3.881,0-7,1.671-7,4.7a3.369,3.369,0,0,0,1.331,2.748,9.875,9.875,0,0,0,4.419,1.076,26.053,26.053,0,0,1,3.258.4c.736.17.991.567.991,1.076,0,1.02-.793,1.671-3.031,1.671-2.464,0-3.116-.85-3.116-2.153H194.5C194.5-22.37,196.572-20.274,201.5-20.274ZM3.848,4.511h8.809c4.7,0,7.11-2.011,7.11-5.439A4.133,4.133,0,0,0,16.4-5.233v-.028c1.671-.453,2.663-1.926,2.663-3.994,0-3.059-2.606-4.872-7-4.872H3.848ZM8.493-6.394v-4.362h3.541c2.011,0,2.946.85,2.946,2.238s-.935,2.124-2.606,2.124Zm0,7.535V-3.59h4.051c1.785,0,2.8.878,2.8,2.181A2.408,2.408,0,0,1,12.657,1.14Zm17.959,3.6c2.549,0,4.136-1.076,4.561-3.059h.028a28.375,28.375,0,0,1-.2,2.833h4.306v-8.5c0-3.739-2.606-5.722-7.053-5.722-4.249,0-6.742,1.671-6.742,4.5a7.017,7.017,0,0,0,.057.821h3.966a5.876,5.876,0,0,1-.028-.595c0-1.133.935-1.813,2.549-1.813,1.983,0,2.946.68,2.946,2.379v.935H26.282c-3.711,0-5.354,1.671-5.354,3.966C20.928,3.322,23.194,4.738,26.452,4.738ZM27.3,1.82c-1.558,0-2.493-.567-2.493-1.643,0-.793.708-1.331,1.87-1.331h4.164v.283C30.843.829,29.54,1.82,27.3,1.82ZM43.448,4.738c4.136,0,7-2.1,7-6.118h-3.8a2.688,2.688,0,0,1-2.974,2.833c-1.9,0-3.031-1.473-3.031-3.937,0-2.549,1.1-3.937,3.116-3.937A2.671,2.671,0,0,1,46.62-3.533h3.8c0-3.881-2.691-6.175-6.8-6.175-4.306,0-7.28,2.691-7.28,7.252C36.338,2.075,39.256,4.738,43.448,4.738Zm8.385-.227h4.306V1.65L58.4-.644l3.654,5.155h5.665l-6.232-7.9,5.892-6.09h-5.24L56.166-2.74h-.028V-15.119H51.832Zm29.856.227a13.679,13.679,0,0,0,2.719-.312V1.169a10.369,10.369,0,0,1-1.955.2c-1.7,0-2.379-.453-2.379-1.9V-6.139h4.476V-9.482H80.074v-3.173H76.533l-.2,1.955c-.085.85-.312,1.218-.963,1.218H73.7v3.343h2.068V-.3C75.768,2.812,77.326,4.738,81.688,4.738Zm10.877,0c4.617,0,7.62-2.663,7.62-7.195,0-4.561-3-7.252-7.62-7.252s-7.62,2.691-7.62,7.252C84.946,2.075,87.949,4.738,92.566,4.738Zm0-3.286c-2.1,0-3.314-1.445-3.314-3.909,0-2.493,1.218-3.966,3.314-3.966S95.88-4.95,95.88-2.457C95.88.007,94.662,1.452,92.566,1.452Zm22.888,3.343c6.657,0,8.441-2.833,8.441-6.005a4.013,4.013,0,0,0-2.04-3.8,16.113,16.113,0,0,0-4.787-1.275,26.374,26.374,0,0,1-4.249-.878c-.652-.283-.906-.793-.906-1.7,0-1.246,1.076-2.181,3.6-2.181,2.549,0,3.654,1.161,3.654,3.286h4.107c0-4.192-1.926-6.657-7.846-6.657-5.382,0-8.13,2.436-8.13,5.949a4.264,4.264,0,0,0,1.813,3.852A13.366,13.366,0,0,0,113.9-3.25a33.311,33.311,0,0,1,4.306.793A1.482,1.482,0,0,1,119.277-.9c0,1.19-.708,2.323-3.852,2.323-3.116,0-3.937-1.3-3.937-3.314h-4.136C107.352,1.537,109.052,4.795,115.453,4.795Zm16.713-.057c4.136,0,7-2.1,7-6.118h-3.8a2.688,2.688,0,0,1-2.974,2.833c-1.9,0-3.031-1.473-3.031-3.937,0-2.549,1.1-3.937,3.116-3.937a2.671,2.671,0,0,1,2.861,2.889h3.8c0-3.881-2.691-6.175-6.8-6.175-4.306,0-7.28,2.691-7.28,7.252C125.056,2.075,127.974,4.738,132.166,4.738Zm8.385-.227h4.306V-2.145c0-2.663,1.36-3.994,3.626-3.994,1.926,0,3.031.878,3.031,2.861v7.79h4.306V-4.242c0-3.626-2.181-5.467-5.552-5.467-3.173,0-4.815,1.275-5.524,3.937h-.057c.085-1.048.17-2.634.17-3.173v-6.175h-4.306Zm24.077.227c4.617,0,7.62-2.663,7.62-7.195,0-4.561-3-7.252-7.62-7.252s-7.62,2.691-7.62,7.252C157.008,2.075,160.011,4.738,164.628,4.738Zm0-3.286c-2.1,0-3.314-1.445-3.314-3.909,0-2.493,1.218-3.966,3.314-3.966s3.314,1.473,3.314,3.966C167.942.007,166.724,1.452,164.628,1.452Zm16.316,3.286c4.617,0,7.62-2.663,7.62-7.195,0-4.561-3-7.252-7.62-7.252s-7.62,2.691-7.62,7.252C173.324,2.075,176.327,4.738,180.944,4.738Zm0-3.286c-2.1,0-3.314-1.445-3.314-3.909,0-2.493,1.218-3.966,3.314-3.966s3.314,1.473,3.314,3.966C184.258.007,183.04,1.452,180.944,1.452Zm9.008,3.059h4.306v-19.63h-4.306ZM12.649,29.806c5.127,0,8.668-2.889,8.668-7.167,0-.227,0-.538-.028-.906H17.21a5.876,5.876,0,0,1,.028.595c0,2.351-1.643,3.824-4.362,3.824-3,0-5.24-2.209-5.24-5.92,0-3.682,2.181-5.977,5.24-5.977,2.521,0,4.306,1.445,4.306,3.966,0,.142,0,.425-.028.736H21.2c.028-.255.057-.765.057-1.19,0-4.277-3.512-7.167-8.611-7.167C6.9,10.6,2.82,14.17,2.82,20.232,2.82,26.237,6.9,29.806,12.649,29.806Zm15.381-.057c2.549,0,4.136-1.076,4.561-3.059h.028a28.375,28.375,0,0,1-.2,2.833h4.306v-8.5c0-3.739-2.606-5.722-7.053-5.722-4.249,0-6.742,1.671-6.742,4.5a7.017,7.017,0,0,0,.057.821h3.966a5.876,5.876,0,0,1-.028-.595c0-1.133.935-1.813,2.549-1.813,1.983,0,2.946.68,2.946,2.379v.935H27.86c-3.711,0-5.354,1.671-5.354,3.966C22.507,28.333,24.773,29.749,28.03,29.749Zm.85-2.918c-1.558,0-2.493-.567-2.493-1.643,0-.793.708-1.331,1.87-1.331h4.164v.283C32.421,25.84,31.118,26.832,28.88,26.832Zm9.291,2.691h4.306V22.838c0-2.634,1.19-3.966,2.861-3.966,1.473,0,2.323.991,2.323,2.634v8.016h4.306v-6.77c0-2.578,1.19-3.881,2.889-3.881,1.473,0,2.323.991,2.323,2.634v8.016h4.306V20.515c0-3.286-1.728-5.212-4.787-5.212a4.487,4.487,0,0,0-4.787,3.654h-.028c-.312-2.266-2.039-3.654-4.73-3.654a4.68,4.68,0,0,0-4.787,3.852h-.028l.142-3.626H38.171Zm24.814,5.609h4.306v-5.3c0-.51-.085-1.9-.142-2.833h.028c.623,1.7,2.209,2.748,4.759,2.748,3.937,0,6.487-3,6.487-7.535,0-4.136-2.549-6.912-6.458-6.912-2.408,0-4.192,1.161-4.73,3.088h-.028l.085-2.861H62.985Zm7.931-8.668a3.293,3.293,0,0,1-3.626-3.343V22.5c0-2.351,1.445-3.909,3.6-3.909,1.955,0,3.258,1.53,3.258,3.8C74.146,24.821,72.843,26.464,70.917,26.464ZM84.4,29.749c2.549,0,4.136-1.076,4.561-3.059h.028a28.373,28.373,0,0,1-.2,2.833H93.1v-8.5c0-3.739-2.606-5.722-7.053-5.722-4.249,0-6.742,1.671-6.742,4.5a7.016,7.016,0,0,0,.057.821h3.966a5.877,5.877,0,0,1-.028-.595c0-1.133.935-1.813,2.549-1.813,1.983,0,2.946.68,2.946,2.379v.935H84.23c-3.711,0-5.354,1.671-5.354,3.966C78.876,28.333,81.142,29.749,84.4,29.749Zm.85-2.918c-1.558,0-2.493-.567-2.493-1.643,0-.793.708-1.331,1.87-1.331H88.79v.283C88.79,25.84,87.487,26.832,85.25,26.832Zm9.4-12.775H98.96V10.629H94.654Zm0,15.466H98.96V15.53H94.654ZM110.8,26.973h-4.532c-.85,0-1.36-.368-1.36-.991a1.729,1.729,0,0,1,.255-.906,11.744,11.744,0,0,0,2.323.227c4.136,0,6.572-1.841,6.572-4.985a4.629,4.629,0,0,0-.68-2.549,3.744,3.744,0,0,1-.312-1.275c0-.652.425-1.048,1.331-1.048a3.925,3.925,0,0,1,.85.085V12.81a6.733,6.733,0,0,0-1.558-.142c-1.785,0-2.946.68-2.946,1.841a2.186,2.186,0,0,0,.821,1.586l-.028.057a8.508,8.508,0,0,0-4.051-.85c-4.107,0-6.543,1.87-6.543,5.014a4.441,4.441,0,0,0,2.294,4.051V24.4a2.714,2.714,0,0,0-1.728,2.634,2.591,2.591,0,0,0,1.3,2.294v.028a2.5,2.5,0,0,0-2.521,2.549c0,2.323,2.918,3.682,7.846,3.682,4.844,0,7.7-1.7,7.7-4.9C115.842,28.361,113.973,26.973,110.8,26.973Zm-3.314-8.951a2.212,2.212,0,0,1,2.521,2.294c0,1.416-.935,2.266-2.521,2.266a2.2,2.2,0,0,1-2.493-2.266A2.2,2.2,0,0,1,107.486,18.022Zm.595,14.956c-2.209,0-3.512-.567-3.512-1.615,0-.793.68-1.275,1.841-1.275h3.314c1.246,0,1.813.425,1.813,1.19C111.537,32.384,110.262,32.979,108.081,32.979Zm8.838-3.456h4.306V22.866c0-2.663,1.36-3.994,3.626-3.994,1.9,0,3.031.878,3.031,2.861v7.79h4.306V20.77c0-3.626-2.181-5.467-5.552-5.467-3.173,0-4.815,1.275-5.524,3.937h-.057l.17-3.711h-4.306Z" transform="translate(149.18 166.142)" fill="#fff"/>
  </g>
</svg>
