<svg xmlns="http://www.w3.org/2000/svg" width="321.95" height="235.745"><g data-name="グループ 2097"><g data-name="グループ 1985"><g data-name="グループ 114"><path data-name="パス 89" d="M152.65 8.34h-1.74V1.475h-2.523V-.001h6.781v1.476h-2.518z"/><path data-name="パス 90" d="M157.53 4.599V8.34h-1.742V-.001h1.742v3.162h3.251V-.001h1.744V8.34h-1.744V4.599z"/><path data-name="パス 91" d="M169.271 1.475h-4.38v1.754h3.86v1.476h-3.86v2.163h4.379v1.474h-6V.001h6z"/><path data-name="パス 92" d="M136.665 9.197h1.628v8.341h-1.743l-3.4-5.947h-.025v5.947h-1.627V9.197h1.834l3.307 5.807h.027z"/><path data-name="パス 93" d="M143.09 8.976c1.105 0 4.008.477 4.008 4.391s-2.9 4.389-4.008 4.389-4.009-.477-4.009-4.389 2.906-4.391 4.009-4.391m0 7.306c.942 0 2.264-.58 2.264-2.916s-1.322-2.915-2.264-2.915-2.265.582-2.265 2.915 1.326 2.916 2.265 2.916"/><path data-name="パス 94" d="M159.388 17.538h-1.741v-6.867h-2.524V9.197h6.781v1.474h-2.516z"/><path data-name="パス 95" d="M164.275 13.798v3.738h-1.741v-8.34h1.741v3.158h3.251V9.196h1.745v8.34h-1.745v-3.738z"/><path data-name="パス 96" d="M147.823 9.197h4.219a2.348 2.348 0 012.623 2.361 2 2 0 01-1.292 1.986c.687.3 1.058.555 1.058 2.112 0 1.22 0 1.523.371 1.662v.22h-1.93a5.623 5.623 0 01-.183-1.683c0-1.14-.068-1.58-1.361-1.58h-1.8v3.262h-1.709zm3.754 3.672c.907 0 1.348-.314 1.348-1.139 0-.44-.2-1.09-1.22-1.09h-2.173v2.229z"/><path data-name="パス 97" d="M144.415 26.732h-1.74v-8.34h5.932v1.476h-4.193v1.881h3.669v1.478h-3.669z"/><path data-name="パス 98" d="M149.391 26.732h-1.836l2.973-8.34h2.01l2.938 8.34h-1.894l-.534-1.72h-3.077zm1.046-3.159h2.124l-1.034-3.3h-.019z"/><path data-name="パス 99" d="M160.825 21.151a1.692 1.692 0 00-1.844-1.438c-.837 0-2.072.557-2.072 2.914 0 1.5.595 2.848 2.072 2.848a1.777 1.777 0 001.844-1.57h1.741a3.467 3.467 0 01-3.621 3.077c-2.219 0-3.81-1.494-3.81-4.378 0-2.914 1.682-4.4 3.836-4.4a3.316 3.316 0 013.595 2.949z"/><path data-name="パス 100" d="M169.271 19.868h-4.38v1.753h3.86v1.476h-3.86v2.16h4.379v1.473h-6v-8.34h6z"/><path data-name="パス 101" d="M140.302 24.429a1.28 1.28 0 11-1.29 1.272 1.272 1.272 0 011.29-1.272m0 2.371a1.092 1.092 0 10-1.058-1.1 1.057 1.057 0 001.058 1.1m-.5-1.842h.578c.357 0 .523.14.523.428a.383.383 0 01-.393.407l.427.662h-.249l-.408-.644h-.246v.644h-.233zm.233.664h.242c.206 0 .393-.01.393-.246 0-.2-.17-.23-.328-.23h-.307z"/><path data-name="パス 102" d="M190.266 19.329A19.319 19.319 0 00170.936 0h-.383v8.34h.383a11.321 11.321 0 0111.327 11.19v7.2h8z"/><path data-name="パス 103" d="M170.937 18.392h-.382v8.34h4V22.01a3.616 3.616 0 00-3.618-3.618"/><path data-name="パス 104" d="M181.41 19.628a10.471 10.471 0 00-10.464-10.431h-.393v8.34h.383a4.47 4.47 0 014.473 4.473v4.722h6z"/></g></g><g data-name="グループ 1986"><g data-name="グループ 1935"><text data-name="2024.3.8" transform="translate(47.456 227.723)" font-size="18" font-family="Bookmania-Regular, Bookmania" letter-spacing="-.02em"><tspan x="0" y="0">2024.3.8</tspan></text><text data-name="(FRI)" transform="translate(120.959 225.062)" font-size="11" font-family="Bookmania-Regular, Bookmania" letter-spacing="-.02em"><tspan x="0" y="0">(FRI)</tspan></text><text data-name="(FRI)" transform="translate(223.557 225.062)" font-size="11" font-family="Bookmania-Regular, Bookmania" letter-spacing="-.02em"><tspan x="0" y="0">(FRI)</tspan></text><text data-name="4.12" transform="translate(184.764 227.723)" font-size="18" font-family="Bookmania-Regular, Bookmania" letter-spacing="-.02em"><tspan x="0" y="0">4.12</tspan></text><path data-name="線 46" fill="none" stroke="#000" d="M154.137 222.484h25.522"/></g><g data-name="グループ 1929"><g data-name="グループ 1936" stroke="#000"><g data-name="グループ 1939"><path data-name="パス 649" d="M39.496 104.705a34.537 34.537 0 01-6.254 17.3 55.2 55.2 0 01-8.107 9.489 25.044 25.044 0 01-12.738 6.508 10.273 10.273 0 01-11.572-8.168 22.509 22.509 0 011-11.477c2.823-7.978 8.1-14.166 14.461-19.511a52.047 52.047 0 015.577-3.985c3.752-2.386 7.909-2.569 12.055-1.546 2.86.7 4.405 3.027 4.989 5.821a52.767 52.767 0 01.589 5.569m-3.025-.807a15.192 15.192 0 00-1.316-6.03 2.629 2.629 0 00-2.859-1.728 11.023 11.023 0 01-2.767-.331 7.817 7.817 0 00-5.087.746 44.351 44.351 0 00-19.307 21.009 18.566 18.566 0 00-.888 12.642 6 6 0 002.173 3.3 6.815 6.815 0 007.176 1.242 30.746 30.746 0 0010.34-6.117 55.994 55.994 0 008.34-10.336c2.749-4.323 3.847-9.131 4.2-14.4"/><path data-name="パス 655" d="M108.941 123.272c-1.181 3.055-3.583 4.472-6.647 5.179a85.224 85.224 0 01-13.869 2.5 14.5 14.5 0 01-5.155-.588 4.023 4.023 0 01-2.391-6.159 19.8 19.8 0 013.589-4.291c1.558-1.471 3.361-2.68 5.03-4.038.6-.49 1.123-1.081 1.886-1.825-1.194-.535-2.106-.984-3.047-1.36-3.8-1.517-4.953-7.764-1.231-10.855a41.486 41.486 0 014.572-3.305 9.9 9.9 0 017.773-1.14c.751.178.772.223 1.811 1.851-.9.88-2.011.456-3.011.4-3.748-.211-6.348 1.806-8.664 4.364a5.145 5.145 0 00-.937 1.764c-.816 2.36.464 4.495 2.938 4.6a25.8 25.8 0 005.186-.488c1.185-.193 2.314-.7 3.491-.97a18.009 18.009 0 012.408-.213c.458 1.706.063 2.861-1.221 3.655a11.942 11.942 0 01-2.188 1.027c-4.116 1.5-7.395 4.337-10.914 6.792a11.763 11.763 0 00-3.716 4.688 1.949 1.949 0 001.569 2.993 13.8 13.8 0 004.4-.006c3.817-.778 7.584-1.8 11.377-2.692a11.479 11.479 0 004.852-2.729c.663-.572 1.246-.272 2.1.846"/><path data-name="パス 656" d="M66.568 115.292c1.83-.138 2.266-1.254 2.77-2.108q2.868-4.861 5.527-9.844c.562-1.047.787-2.27 1.291-3.355a2.178 2.178 0 011.127-.994 1.3 1.3 0 011.69.714 4.145 4.145 0 01.311 2.273 8.054 8.054 0 01-1.177 2.086c-1.42 2.436-2.813 4.889-4.26 7.309-2 3.342-4 6.681-6.086 9.969a7.46 7.46 0 01-1.722 1.476 2.632 2.632 0 01-2.626-2.712c-.122-2.281-.047-4.572-.191-6.851s-.395-4.537-.711-6.789a5.35 5.35 0 00-3.058-4.1 6.541 6.541 0 00-4.2 2.847c-2.406 3.394-5.119 6.625-6.651 10.552a83.531 83.531 0 00-2.949 8.773 7.742 7.742 0 00.108 5.148c.556 1.312.224 2.04-.6 2.331-1.317.465-2.686.077-3.067-1.085a6.558 6.558 0 01-.395-3.127 46.243 46.243 0 011.939-7.4 69.755 69.755 0 017.589-14.631 33.594 33.594 0 014.2-4.871c2.993-2.971 6.5-2.457 8.62 1.267a19.285 19.285 0 012.35 8.89c.054 1.334.11 2.668.175 4.228"/></g><g data-name="グループ 1938"><path data-name="パス 653" d="M56.043 163.302a18.891 18.891 0 01-1.411-2.743 1.819 1.819 0 01.492-1.386 1.2 1.2 0 011.109-.058 4.648 4.648 0 011.591 1.19 14.41 14.41 0 013.1 6.044c2.126 11.755-.126 22.453-8.029 31.65-2.272 2.645-4.784 5.092-7.282 7.53a18.375 18.375 0 01-3.544 2.647c-4.078 2.388-8.174.9-9.7-3.564a15.964 15.964 0 01-.845-4.742c-.116-5.524.268-10.973 2.241-16.255a22.915 22.915 0 013.491-6.286 55.883 55.883 0 0110.583-10.436c3.412-2.526 4.081-2.744 8.2-3.592m2.494 3.142c-1.08.011-1.754 1.2-3.025.456-1.421-.83-2.883.018-4.179.727a33.423 33.423 0 00-9.148 7.135c-2.144 2.422-4.326 4.831-5.556 7.852a35.41 35.41 0 00-2.038 18.576 9.506 9.506 0 001.04 3.02c1.133 2.161 2.88 2.757 5.032 1.632a19.517 19.517 0 003.979-2.7c2.194-1.968 4.3-4.05 6.32-6.193a28.219 28.219 0 007.041-12.019 44.179 44.179 0 001.645-9.887c.114-2.878.309-5.89-1.11-8.6"/><path data-name="パス 654" d="M88.437 189.361c.518-.191.685-.2.765-.29 3.331-3.676 6.611-7.391 8.895-11.854.611-1.195 1.213-2.4 1.914-3.542a16.069 16.069 0 002.542-7.146 5.981 5.981 0 01.307-1.575 1.892 1.892 0 011.886-1.232 1.509 1.509 0 011.57 1.5 6.907 6.907 0 01-.4 2.706 44.76 44.76 0 01-2.787 5.8c-2.962 4.947-5.623 10.1-9.407 14.514-1.311 1.529-2.594 3.089-4.005 4.523-1.368 1.39-2.452 1.336-3.762-.093a7.064 7.064 0 01-1.249-2.02 17.048 17.048 0 01-1.121-6.716 24.014 24.014 0 00-2.369-9.712c-1.049-2.389-2.44-2.632-4.262-.627a26.5 26.5 0 00-6.07 10.772 67.729 67.729 0 00-1.321 7.525c-.16 1.016.067 1.866 1.27 2.134.853.19.941.886.818 1.569-.316 1.755-1.519 3.138-2.658 3.147-1.326.01-2.846-1.562-2.786-3.433a37.128 37.128 0 01.911-7.169 66.978 66.978 0 013.849-11.405c1.389-3.215 3.73-5.545 6.264-7.76a2.585 2.585 0 013.348-.191 10.9 10.9 0 014.041 4.892c1.367 3.418 1.746 7.027 2.307 10.6a11.406 11.406 0 001.512 5.08"/><path data-name="パス 657" d="M120.313 180.826a22.061 22.061 0 01-3.645-1.094 11.528 11.528 0 01-3.248-2.3c-1.5-1.6-1.751-3.586-.519-5.157 3.714-4.735 8.035-8.724 14.237-9.869a14.347 14.347 0 013.983.037c.932.094 1.808 1.154 1.457 1.561a2.851 2.851 0 01-1.639.877 40.823 40.823 0 00-4.775.446c-3.919 1.041-6.83 3.7-9.439 6.631a3.2 3.2 0 001.128 5.09 6.588 6.588 0 004.7.618c1.3-.329 2.561-.788 3.849-1.158a2.18 2.18 0 012.614.643c.044 2.08-1.162 3.367-2.913 4.313-2.13 1.152-4.289 2.258-6.365 3.5-2.188 1.311-4.317 2.726-6.426 4.162a5.946 5.946 0 00-2.685 3.549c1.427 1.439 3.039 1.428 4.819 1a68.387 68.387 0 009.951-3.271c2.365-.97 4.719-1.965 7.1-2.906a4.387 4.387 0 011.911-.416 1.454 1.454 0 01.991.992 2.651 2.651 0 01-2.075 3c-3.449 1.126-7 2-10.329 3.41a29.437 29.437 0 01-8.128 2.218 35.054 35.054 0 01-4.413.014 3.082 3.082 0 01-.793-.14 3.683 3.683 0 01-1.7-6.307 38.061 38.061 0 014.49-3.405c2.414-1.71 4.867-3.364 7.288-5.064.193-.136.266-.442.572-.981"/></g><g data-name="グループ 1940"><path data-name="パス 648" d="M168.803 116.358c6.378-3.451 9.866-9.2 12.971-15.187a14.07 14.07 0 001.146-5.423 1.7 1.7 0 00-2.653-1.765 13.95 13.95 0 00-4.555 3.22c-1.143 1.33-2.458 2.543-2.915 4.285-.467 1.782-2.48 2.353-2.953 4.185-.431 1.67-1.471 3.178-1.957 4.841-1.58 5.408-3.044 10.851-4.506 16.293a11.566 11.566 0 00-.052 1.971 32.8 32.8 0 01-.482 4.348 3.847 3.847 0 01-1.3 1.943 2.087 2.087 0 01-1.782.377 1.884 1.884 0 01-.884-1.556 55.04 55.04 0 011.4-7.093c2.443-8.514 4.3-17.2 7.423-25.515a2.33 2.33 0 00.247-.762c-.015-2.136.6-3.661 3.112-3.806.559-.032 1.094-.706 1.617-1.114 1.27-.991 2.48-2.069 3.805-2.979a14.4 14.4 0 013.188-1.684c3.663-1.328 6.494.739 6.344 4.7a14.309 14.309 0 01-1.586 6.618 62.04 62.04 0 01-4.339 6.766c-2.1 2.775-4.436 5.368-6.8 8.2a8.921 8.921 0 003.534 5.5c6.707 5.387 13.523 10.633 21.68 13.756 1.361.521 1.831 1.265 1.407 1.989-.6 1.034-1.558.962-2.475.632a53.61 53.61 0 01-5.238-2.062 76.189 76.189 0 01-13.494-8.768 87.615 87.615 0 01-7.292-6.333c-1.41-1.373-2.768-2.963-2.609-5.578"/><path data-name="パス 652" d="M134.912 113.639c2.265-1.259 2.927-3.047 3.258-5.137.752-4.763 2.506-9.316 3.027-14.14.2-1.854 1.2-2.275 3.128-1.49.233.095.465.193.855.355 1.91-1.281 3.853-2.8 6.4-2.883a22.07 22.07 0 014.005.042c4.769.733 7.264 4.978 5.715 9.586a19.583 19.583 0 01-5.078 7.656 23.618 23.618 0 01-12.209 6.661c-1.444.284-2.87.666-4.337 1.011a15.74 15.74 0 00-1.866 5.728c-1.134 5.933-2.274 11.865-3.342 17.811-.249 1.386-.589 2.608-1.909 3.341-.721.4-1.865-.049-1.862-.84a15 15 0 01.305-3.17c.669-3.014 1.445-6.005 2.15-9.012.889-3.79 1.687-7.6 2.655-11.374a4.7 4.7 0 00-.893-4.145m5.77-1.134a49.133 49.133 0 005.746-1.461c4.891-1.9 9.009-4.829 11.36-9.7a10.484 10.484 0 00.989-3.845c.152-2.564-1.138-3.977-3.685-4.431a8.27 8.27 0 00-8.907 4.735c-.384.9-.533 1.73-1.735 1.88-.392.049-.858.614-1.04 1.049a41.066 41.066 0 00-1.977 5.275c-.5 1.9-1.274 3.815-.751 6.5"/><path data-name="パス 658" d="M216.399 126.855c.051-4.755 1.625-8.941 2.479-13.248.833-4.208 1.79-8.391 2.743-12.822-.541-.707-1.231-1.5-1.8-2.38-.819-1.256-.481-2.466.922-2.917a23.481 23.481 0 015.083-1.208 75.538 75.538 0 018.055-.156 13.841 13.841 0 016.833 2.223c3.342 2.007 4.3 4.323 3.429 8.173a13.591 13.591 0 01-2.8 5.76 110.051 110.051 0 01-7.808 8.686 89.767 89.767 0 01-7.554 6.018c-2.707 2.1-5.739 2.715-9.584 1.87m9.558-29.294c-.348 1.454-.613 2.892-1.039 4.281a125.757 125.757 0 00-3.849 15.978 28.775 28.775 0 00-.411 3.992c-.047 1.758.994 2.369 2.623 1.619a17.282 17.282 0 001.774-.942 49.046 49.046 0 0013.905-13.165 17.867 17.867 0 002.448-4.586c1.088-3.1-.128-5.556-3.129-6.864a6.775 6.775 0 00-1.522-.5 23.557 23.557 0 00-10.794.188"/><path data-name="パス 659" d="M310.349 97.409c-.373 2.072-.743 3.911-1.03 5.764-.788 5.084-2.878 9.764-4.469 14.6a117.139 117.139 0 00-5.311 24.744 40.967 40.967 0 00.1 4.78 4.871 4.871 0 01-.782.748 1.935 1.935 0 01-2.228.336c-1.04-.565-1.065-1.424-.885-2.413.384-2.112.685-4.24 1.13-6.338 1.2-5.641 2.313-11.305 3.733-16.891 1.188-4.678 2.767-9.25 4.167-13.872a24.791 24.791 0 001.259-10.93 16.317 16.317 0 00-2.311-.176c-2.143.132-4.278.4-6.422.495a3.969 3.969 0 01-1.86-.574 1.394 1.394 0 01.119-2.081 5.19 5.19 0 011.535-.378q10.635-.842 21.28-1.632a5.855 5.855 0 011.99.065c.445.127 1.1.654 1.09.982a2.612 2.612 0 01-.8 1.669c-.332.3-1.011.257-1.541.307-2.8.264-5.6.511-8.765.8"/><path data-name="パス 660" d="M195.144 100.982l-.764-2.174c4.309-4.028 11.064-4.666 15.621-1.528a7.536 7.536 0 013.494 5.614 13.764 13.764 0 01-.437 5.973 34.673 34.673 0 01-4.039 8.295 16.246 16.246 0 01-5.662 5.04c-3.043 1.7-5.883 1.244-8.48-1.147a9.862 9.862 0 01-3.324-7.855 24.622 24.622 0 012.136-9.34c.418-.982.962-1.911 1.456-2.877m4.642.585a5.961 5.961 0 00-2.978 3.631c-.644 2.036-1.128 4.125-1.609 6.208a7.685 7.685 0 00.465 4.34c1.644 4.658 4.319 5.531 8.2 2.554 3.663-2.811 5.7-6.7 6.865-11.068.654-2.444.449-4.926-1.332-6.815a7.817 7.817 0 00-7.119-2.365c.479 1.14.924 2.052 1.245 3.005a1.106 1.106 0 01-1.428 1.337c-.763-.207-1.494-.53-2.307-.827"/><path data-name="パス 662" d="M252.411 120.902a21.412 21.412 0 002.284-1.586 69.069 69.069 0 0010.978-13.3 22.83 22.83 0 001.195-2.1c1.789-3.583 1.8-3.865.393-7.5 1.424-.969 1.949-1.02 2.677-.283a3.774 3.774 0 011.084 3.7 17.446 17.446 0 01-1.568 4.54c-3.925 6.752-8.392 13.109-14.244 18.379-.1.09-.2.179-.3.272-2.809 2.7-6.105.856-6.664-2.239a22.308 22.308 0 01-.412-6.795 56.642 56.642 0 012.038-8.6c.772-2.7 1.853-5.319 2.812-7.968a5.682 5.682 0 01.526-1.082 1.838 1.838 0 012.172-.5 1.381 1.381 0 01.86 1.635 14.962 14.962 0 01-1.334 3.332 26.453 26.453 0 00-3.035 8.282 67.416 67.416 0 00-.795 7.586 7.357 7.357 0 00.418 2.368 13.2 13.2 0 00.913 1.86"/><path data-name="パス 664" d="M293.65 116.233c-.394.747-.524 1.321-.883 1.622a88.14 88.14 0 01-7.2 5.8c-2.815 1.9-6.022 1.321-8.4-1.1a10.388 10.388 0 01-2.794-6.118 19.37 19.37 0 012.083-10.935 27.6 27.6 0 015.077-8.177 17.526 17.526 0 001.824-3.068 1.739 1.739 0 012.774 0 2.654 2.654 0 01.085 3.345 12.326 12.326 0 01-1.768 1.608 19.7 19.7 0 00-6.943 12.8 10.491 10.491 0 001.681 7.706c1.369 1.964 2.735 2.453 4.846 1.379 2.145-1.09 4.122-2.509 6.177-3.777.684-.422 1.366-.851 2.081-1.215.19-.1.5.036 1.36.13"/></g><g data-name="グループ 1937"><path data-name="パス 650" d="M192.744 166.907c1.538-.2 3.262-.464 5-.627a7.047 7.047 0 012.393.116c2.79.728 5.738 3.058 4.3 7.281a16.938 16.938 0 01-6.876 8.669c-1.326.892-2.79 1.578-4.454 2.5a13.1 13.1 0 001.118 1.922c1.287 1.547 2.6 3.076 3.989 4.533a27.437 27.437 0 009.453 6.7c3.838 1.583 7.436 3.74 11.6 4.531 1.449.276 2.149 1.3 1.785 2.167s-1.4 1.261-2.782.843a55.883 55.883 0 01-4.934-1.732 59.831 59.831 0 01-12.559-6.329 41.606 41.606 0 01-5.285-4.321c-2.656-2.652-5.117-5.5-7.678-8.248-.163-.174-.469-.215-.908-.4-1.407 2.877-1.911 6.02-2.606 9.092a4.376 4.376 0 00.29 1.941 4.791 4.791 0 01-1.448 4.722 1.8 1.8 0 01-2.174.559 1.567 1.567 0 01-.811-2.028 143.344 143.344 0 015.509-18.887c.677-1.825 1.752-3.561.6-5.733-.64-1.208.574-2.234 1.483-3.036 1.5-1.322 3.051-2.585 5-4.23m-4.439 12.923c3.556 2.574 4.742 2.634 7.784.546a13.4 13.4 0 002.179-1.756 12.276 12.276 0 003.5-5.725 2.782 2.782 0 00-3.6-3.346 3.905 3.905 0 00-2.584 1.732c-.406.686-.918 1.31-1.378 1.964-1.136 1.614-2 3.411-4.089 4.206-.713.272-1.1 1.4-1.812 2.379"/><path data-name="パス 651" d="M254.766 179.034c-1.273-.1-2.355-.091-3.4-.272a6.222 6.222 0 01-4.864-8.221 4.04 4.04 0 011.759-2.06 54.4 54.4 0 016.992-3.081 6.9 6.9 0 013.549-.045c2.151.466 2.495 1.913 1.188 4.229a2.184 2.184 0 01-.759.057c-1.125-.334-1.889-1.483-3.3-1.252a11.137 11.137 0 00-5.064 2.353 3.049 3.049 0 00-.863 3.315 2.546 2.546 0 002.26 2.013 10.277 10.277 0 003.187 0c1.455-.221 2.866-.734 4.321-.96a10.667 10.667 0 012.509.254c-.309 2.162-1.021 3.7-2.806 4.726-2.846 1.635-4.825 4.258-7.1 6.528a9.528 9.528 0 00-1.82 3.1 2.375 2.375 0 001.608 3.52 15.179 15.179 0 005.537.614 49.029 49.029 0 0013.97-3.752c5.529-2.445 11.03-4.954 16.537-7.449.747-.338 1.509-.735 2.224-.091a1.973 1.973 0 01.274 2.252 5.949 5.949 0 01-.415.806 101.856 101.856 0 00-14.42 5.888 60.322 60.322 0 01-12.864 4.63 24.547 24.547 0 01-10.389.576 15.14 15.14 0 01-1.575-.337c-4.3-1.359-5.881-4.138-3.481-8.285a21.177 21.177 0 014.411-5.185 7.4 7.4 0 002.8-3.871"/><path data-name="パス 661" d="M224.442 179.939c-1.992-.719-3.3-1.067-4.487-1.656a15.275 15.275 0 01-3.339-2.17 3.094 3.094 0 01-.262-4.641c4.268-4.213 8.993-7.706 15.151-8.6a9.33 9.33 0 012.779.081 1.319 1.319 0 011.18 1.4c-.278.826-1.025.735-1.648.77-4.75.261-8.795 2.273-12.553 5.005a7.463 7.463 0 00-1.218 1.048c-1.624 1.834-1.347 3.3.851 4.525a9.681 9.681 0 007.376 1.163c1.076-.281 2.113-.554 2.881.624a4.251 4.251 0 01-2.713 3.636q-1.091.523-2.178 1.056a15.263 15.263 0 00-6.284 5.492 1.239 1.239 0 001.4 1.53 21.041 21.041 0 004.381-.542c3.649-.912 7.262-1.966 10.891-2.954a3.262 3.262 0 011.536-.272c.381.108.94.759.878 1.06a3.152 3.152 0 01-2.529 2.766c-3.549.746-7.075 1.6-10.625 2.335a38.531 38.531 0 01-4.391.582 6.743 6.743 0 01-4.237-1.047c-2.083-1.3-2.26-3.413-.4-4.961 2.363-1.964 4.739-3.912 7.554-6.234"/><path data-name="パス 663" d="M174.638 171.91a21.706 21.706 0 01-.763 3.277 74.112 74.112 0 00-2.894 10.445c-.886 3.913-2.252 7.717-3.36 11.582-2.182 7.608-4.387 15.21-6.456 22.848-.581 2.144-1.67 4.288-.874 6.639-.777 2.692-1.306 5.49-2.938 7.84a2.28 2.28 0 01-1.685.708c-.689-.006-1.3-1.125-1.11-1.887a18.863 18.863 0 011-3.055c1.7-3.815 2.626-7.875 3.8-11.855 1.435-4.872 2.8-9.765 4.143-14.664q2.12-7.752 4.125-15.536c1.072-4.152 1.975-8.35 3.143-12.475a18.661 18.661 0 00.458-4.77 1.617 1.617 0 011.568-1.52 1.828 1.828 0 011.764 1.37c.043.262.045.531.086 1.052"/><path data-name="パス 665" d="M187.591 160.842c-2.825.629-5.436 1.19-8.036 1.8-2.743.638-5.464 1.371-8.215 1.966s-5.534 1.085-8.308 1.592a3.269 3.269 0 01-1.193-.049c-.717-.143-1.345-.576-1.212-1.333a3.365 3.365 0 01.981-1.582 1.8 1.8 0 011.139-.29c5.446-.132 10.536-2.042 15.793-3.118 2.364-.484 4.743-.932 7.137-1.221 1.206-.145 2.076.483 1.915 2.239"/></g></g></g></g></g></svg>