<svg xmlns="http://www.w3.org/2000/svg" width="628.782" height="421.221"><defs><clipPath id="a"><path data-name="長方形 503" fill="#97ce1c" d="M0 0h628.782v273.438H0z"/></clipPath></defs><g data-name="グループ 2102"><g data-name="グループ 4"><g data-name="グループ 114" fill="#f2f2f2"><path data-name="パス 89" d="M290.954 21.364H286.5V3.78h-6.462V0h17.37v3.78h-6.455z"/><path data-name="パス 90" d="M303.456 11.781v9.582h-4.462V0h4.462v8.1h8.327V0h4.467v21.364h-4.467v-9.583z"/><path data-name="パス 91" d="M333.528 3.78h-11.22v4.492h9.888v3.78h-9.888v5.539h11.216v3.775H318.15V0h15.378z"/><path data-name="パス 92" d="M250.01 23.558h4.169v21.364h-4.464L241 29.689h-.064v15.233h-4.167V23.558h4.7l8.471 14.874h.071z"/><path data-name="パス 93" d="M266.467 22.992c2.831 0 10.266 1.221 10.266 11.247s-7.436 11.241-10.266 11.241-10.268-1.223-10.268-11.241 7.442-11.247 10.268-11.247m0 18.715c2.413 0 5.8-1.487 5.8-7.469s-3.386-7.466-5.8-7.466-5.8 1.49-5.8 7.466 3.4 7.469 5.8 7.469"/><path data-name="パス 94" d="M308.215 44.922h-4.458V27.333h-6.465v-3.775h17.369v3.775h-6.446z"/><path data-name="パス 95" d="M320.73 35.344v9.575h-4.459V23.556h4.458v8.088h8.326v-8.09h4.469v21.362h-4.469v-9.572z"/><path data-name="パス 96" d="M278.589 23.558h10.807c5.68 0 6.719 4.194 6.719 6.047a5.112 5.112 0 01-3.308 5.088c1.76.77 2.71 1.422 2.71 5.41 0 3.124 0 3.9.951 4.258v.563h-4.943a14.4 14.4 0 01-.468-4.31c0-2.919-.174-4.046-3.487-4.046h-4.6v8.356h-4.377zm9.615 9.405c2.323 0 3.453-.8 3.453-2.918 0-1.127-.514-2.793-3.124-2.793h-5.567v5.71z"/><path data-name="パス 97" d="M269.856 68.477H265.4V47.113h15.2v3.78h-10.744v4.819h9.4v3.787h-9.4z"/><path data-name="パス 98" d="M282.607 68.476h-4.7l7.616-21.363h5.148l7.524 21.363h-4.849l-1.367-4.406h-7.881zm2.681-8.09h5.441l-2.65-8.447h-.049z"/><path data-name="パス 99" d="M311.896 54.178c-.349-1.275-1.042-3.684-4.723-3.684-2.145 0-5.307 1.427-5.307 7.465 0 3.837 1.523 7.295 5.307 7.295a4.552 4.552 0 004.723-4.021h4.46c-.89 4.643-3.916 7.883-9.275 7.883-5.685 0-9.76-3.827-9.76-11.214 0-7.465 4.308-11.276 9.827-11.276 6.387 0 8.968 4.408 9.208 7.553z"/><path data-name="パス 100" d="M333.528 50.893h-11.22v4.49h9.888v3.78h-9.888v5.539h11.216v3.775H318.15V47.113h15.378z"/><path data-name="パス 101" d="M259.326 62.574a3.279 3.279 0 11-3.3 3.258 3.258 3.258 0 013.3-3.258m0 6.074a2.8 2.8 0 10-2.709-2.816 2.707 2.707 0 002.709 2.816m-1.281-4.717h1.481c.913 0 1.34.358 1.34 1.1a.982.982 0 01-1.008 1.042l1.094 1.7h-.637l-1.045-1.65h-.629v1.65h-.6zm.6 1.7h.62c.528 0 1.008-.025 1.008-.629 0-.508-.436-.59-.841-.59h-.787z"/><path data-name="パス 102" d="M387.308 49.512A49.484 49.484 0 00337.795.001h-.982v21.363h.982a29 29 0 0129.014 28.663v18.448h20.5z"/><path data-name="パス 103" d="M337.795 47.111h-.978v21.365h10.247v-12.1a9.263 9.263 0 00-9.268-9.268"/><path data-name="パス 104" d="M364.623 50.277a26.822 26.822 0 00-26.8-26.719h-1.007v21.365h.982a11.45 11.45 0 0111.457 11.457v12.1h15.371z"/></g></g><g data-name="グループ 2071"><g data-name="グループ 2065"><g data-name="グループ 2064" clip-path="url(#a)" fill="#97ce1c" transform="translate(0 147.783)"><path data-name="パス 697" d="M101.414 247.385c0-4.952 3.408-7.823 7.572-7.823 4.592 0 7.857 3.014 7.857 7.285 0 5.705-5.311 10.44-11.374 15.07h8.9c1.221 0 1.615-.143 2.153-3.122h.97l-.861 7.211h-.97c0-.323-.108-.789-.61-.789h-13.35v-1.58c7.607-7.213 11.376-11.121 11.376-16.79 0-3.59-1.506-5.669-4.627-5.669-2.906 0-5.275 1.936-5.275 6.207z"/><path data-name="パス 698" d="M138.257 252.66c0 7.462-2.942 13.1-8.791 13.1s-8.789-5.633-8.789-13.1 2.94-13.1 8.789-13.1 8.791 5.632 8.791 13.1m-3.767 0c0-6.745-.825-11.554-5.024-11.554s-5.022 4.809-5.022 11.554c0 6.711.825 11.518 5.022 11.518s5.024-4.807 5.024-11.518"/><path data-name="パス 699" d="M141.512 247.385c0-4.952 3.408-7.823 7.572-7.823 4.592 0 7.858 3.014 7.858 7.285 0 5.705-5.313 10.44-11.376 15.07h8.9c1.221 0 1.615-.143 2.153-3.122h.97l-.861 7.211h-.97c0-.323-.108-.789-.61-.789h-13.349v-1.58c7.607-7.211 11.374-11.121 11.374-16.791 0-3.59-1.506-5.669-4.628-5.669-2.906 0-5.275 1.936-5.275 6.207z"/><path data-name="パス 700" d="M170.855 265.217v-6.458h-10.117v-1.219l10.837-17.438h2.725v17.044h4.092v1.614H174.3v6.458zm-8-8.072h8v-12.81z"/><path data-name="パス 701" d="M185.81 263.317a2.261 2.261 0 11-4.522 0 2.261 2.261 0 014.522 0"/><path data-name="パス 702" d="M205.936 257.325c0 4.737-3.372 8.432-9.508 8.432-3.41 0-7.068-1.183-7.068-3.7a1.787 1.787 0 011.757-1.866c2.942 0 2.333 3.946 5.454 3.946 4.2 0 5.6-2.546 5.6-5.956a5.757 5.757 0 00-6.135-5.992h-.647v-1.58h.862c3.265 0 4.735-2.4 4.735-4.914 0-2.333-1.255-4.522-4.161-4.522-2.548 0-4.7 1.651-4.916 5.06h-1.757c.394-4.018 2.94-6.673 7.321-6.673 4.843 0 7.283 2.869 7.283 5.6a5.763 5.763 0 01-4.376 5.633 6.813 6.813 0 015.56 6.53"/><path data-name="パス 703" d="M213.786 263.317a2.261 2.261 0 11-4.522 0 2.261 2.261 0 014.522 0"/><path data-name="パス 704" d="M234.305 258.689c0 3.982-3.12 7.068-8.932 7.068-5.707 0-8.647-3.41-8.647-6.53 0-3.733 2.51-5.492 5.309-6.783-2.368-1.255-4.233-3.086-4.233-6.6 0-2.548 2.187-6.279 8.109-6.279 4.735 0 7.355 2.8 7.355 5.7 0 3.372-2.189 4.99-4.737 6.173 3.3 1.47 5.777 3.265 5.777 7.249m-3.337.895c0-3.12-2.295-4.412-6.96-6.207-2.619 1.185-4.845 2.621-4.845 5.707 0 2.584 1.795 5.13 6.1 5.13 4.271 0 5.705-2.512 5.705-4.629m-9.796-14.458c0 3.048 2.476 4.2 5.309 5.382 2.476-1.113 4.56-2.406 4.56-5.1 0-2.44-1.615-4.3-4.918-4.3-3.086 0-4.95 1.47-4.95 4.02"/><path data-name="パス 705" d="M249.762 243.446c-2.606 1.961-4.52 6.383-4.52 10.733s1.914 8.747 4.52 10.731l-.527.621a13.773 13.773 0 010-22.705z"/><path data-name="パス 706" d="M254.828 252.457h3.871c1.768 0 2.1-.789 2.246-2.319h.621v5.715h-.621c-.143-1.531-.477-2.319-2.246-2.319h-3.873v5.522c0 1.816.406 1.959 2.319 2.08v.6h-7v-.6c1.912-.121 2.318-.264 2.318-2.08v-11.375c0-1.84-.406-1.959-2.318-2.08v-.6h13.241l1.6 3.9-.5.262a6.927 6.927 0 00-6.26-3.084h-2.678a.656.656 0 00-.717.719z"/><path data-name="パス 707" d="M279.454 259.701a3.218 3.218 0 002.772 1.432v.6h-4.088l-5.807-8.223h-2.248v5.547c0 1.816.406 1.959 2.319 2.078v.6h-7v-.6c1.912-.119 2.318-.262 2.318-2.078v-11.376c0-1.84-.287-1.959-2.318-2.08v-.6h8.293c3.969 0 6.764 1.146 6.764 4.254 0 2.75-2.318 3.991-5.471 4.182zm-8.653-13.626a.656.656 0 00-.717.719v5.664h3.587c2.676 0 4.159-1 4.159-3.2 0-2.176-1.483-3.18-4.137-3.18z"/><path data-name="パス 708" d="M282.183 261.731v-.6c1.914-.121 2.319-.264 2.319-2.08v-11.37c0-1.84-.406-1.959-2.319-2.08v-.6h7v.6c-1.914.121-2.319.24-2.319 2.08v11.378c0 1.816.406 1.959 2.319 2.08v.6z"/><path data-name="パス 709" d="M289.576 264.909c2.6-1.983 4.518-6.383 4.518-10.733s-1.914-8.77-4.518-10.731l.525-.621a13.741 13.741 0 010 22.705z"/><path data-name="パス 710" d="M448.13 243.446c-2.606 1.961-4.52 6.383-4.52 10.733s1.914 8.747 4.52 10.731l-.527.621a13.773 13.773 0 010-22.705z"/><path data-name="パス 711" d="M453.199 252.457h3.873c1.768 0 2.1-.789 2.246-2.319h.621v5.715h-.621c-.143-1.531-.477-2.319-2.246-2.319h-3.873v5.522c0 1.816.406 1.959 2.319 2.08v.6h-7v-.6c1.912-.121 2.318-.264 2.318-2.08v-11.375c0-1.84-.406-1.959-2.318-2.08v-.6h13.24l1.6 3.9-.5.262a6.927 6.927 0 00-6.26-3.084h-2.678a.656.656 0 00-.717.719z"/><path data-name="パス 712" d="M477.829 259.701a3.212 3.212 0 002.77 1.432v.6h-4.088l-5.807-8.223h-2.248v5.547c0 1.816.408 1.959 2.319 2.078v.6h-7v-.6c1.912-.119 2.318-.262 2.318-2.078v-11.376c0-1.84-.287-1.959-2.318-2.08v-.6h8.293c3.969 0 6.764 1.146 6.764 4.254 0 2.75-2.318 3.991-5.471 4.182zm-8.655-13.626a.656.656 0 00-.717.719v5.664h3.586c2.676 0 4.159-1 4.159-3.2 0-2.176-1.483-3.18-4.137-3.18z"/><path data-name="パス 713" d="M480.554 261.731v-.6c1.914-.121 2.319-.264 2.319-2.08v-11.37c0-1.84-.406-1.959-2.319-2.08v-.6h7v.6c-1.914.121-2.319.24-2.319 2.08v11.378c0 1.816.406 1.959 2.319 2.08v.6z"/><path data-name="パス 714" d="M487.945 264.909c2.6-1.983 4.518-6.383 4.518-10.733s-1.914-8.77-4.518-10.731l.525-.621a13.741 13.741 0 010 22.705z"/></g></g><path data-name="パス 715" d="M376.828 413v-6.458h-10.117v-1.219l10.836-17.438h2.725v17.044h4.092v1.614h-4.092v6.458zm-8-8.072h8v-12.81z" fill="#97ce1c"/><g data-name="グループ 2067"><g data-name="グループ 2066" clip-path="url(#a)" fill="#97ce1c" transform="translate(0 147.783)"><path data-name="パス 716" d="M391.785 263.317a2.261 2.261 0 11-4.522 0 2.261 2.261 0 014.522 0"/><path data-name="パス 717" d="M397.231 265.219v-.9c3.659-.177 4.558-.394 4.558-3.12v-16.253c0-.861-.323-1.149-1.113-1.149h-3.406v-.753l6.637-3.482h1.327v21.639c0 2.725.932 2.942 4.558 3.12v.9z"/><path data-name="パス 718" d="M414.843 247.385c0-4.952 3.408-7.823 7.572-7.823 4.592 0 7.857 3.014 7.857 7.285 0 5.705-5.311 10.44-11.374 15.07h8.9c1.221 0 1.615-.143 2.153-3.122h.97l-.861 7.211h-.97c0-.323-.108-.789-.61-.789h-13.352v-1.58c7.607-7.211 11.374-11.121 11.374-16.791 0-3.59-1.506-5.669-4.628-5.669-2.906 0-5.275 1.936-5.275 6.207z"/></g></g><path data-name="長方形 505" fill="#97ce1c" d="M307.276 401.546h49.814v.995h-49.814z"/><g data-name="グループ 2069"><g data-name="グループ 2068" clip-path="url(#a)" fill="#97ce1c" transform="translate(0 147.783)"><path data-name="パス 719" d="M75.616 33.71c-.024 12.192-4.815 22.505-11.763 32.523a107.631 107.631 0 01-15.64 18.674 48.879 48.879 0 01-24.736 12.95c-9.9 1.874-20.9-5.226-22.753-15.724a43.94 43.94 0 011.732-22.421c5.354-15.624 15.526-27.8 27.844-38.36a101.462 101.462 0 0110.808-7.888c7.276-4.728 15.393-5.162 23.498-3.25 5.594 1.319 8.657 5.822 9.851 11.259a88.529 88.529 0 011.159 12.237m-5.815-2.893c-.281-3.748-.7-7.928-2.686-11.742-1.161-2.233-2.71-3.676-5.613-3.318-1.751.217-3.6-.34-5.405-.593a15.264 15.264 0 00-9.914 1.555C29.058 26.293 16.85 40.38 8.901 58.102c-3.531 7.86-3.739 16.294-1.487 24.693a11.71 11.71 0 004.3 6.4c4.275 3.306 8.891 4.4 14.02 2.289 7.315-3 14.309-6.479 20.061-12.141a109.34 109.34 0 0016.092-20.341c5.28-8.493 7.33-17.9 7.919-28.176"/><path data-name="パス 720" d="M211.628 68.555c-2.246 5.986-6.921 7.47-12.888 8.91-8.93 2.153-17.834 4.494-27.02 5.15a28.288 28.288 0 01-10.068-1.051c-5.511-1.682-7.628-6.968-4.786-11.975a38.581 38.581 0 016.922-8.445c3.012-2.9 6.507-5.3 9.738-7.979a52.8 52.8 0 004.28-3.491 173.56 173.56 0 00-6.609-2.7c-7.445-2.888-9.817-15.059-2.615-21.164a80.838 80.838 0 018.859-6.539 19.314 19.314 0 0115.151-2.372c1.47.334 4.252 2.446 3.571 3.578-1.268 2.108-3.916.93-5.871.84-7.319-.34-12.354 3.646-16.825 8.687a10.018 10.018 0 00-1.795 3.461c-1.549 4.622.991 8.764 5.824 8.923a50.3 50.3 0 0010.112-1.057c2.308-.4 4.5-1.419 6.8-1.961 1.553-.259 3.02-.625 4.288.308 2.78 2.04.587 4.812-1.9 6.388a23.424 23.424 0 01-4.25 2.046c-8 3.012-14.349 8.611-21.169 13.467a22.95 22.95 0 00-7.162 9.223c-1.338 2.787-.017 5.447 3.12 5.809a26.908 26.908 0 008.594-.1c7.436-1.593 14.768-3.652 22.152-5.475a22.41 22.41 0 009.417-5.422c1.283-1.129 3.208-.985 4.122 1.612a5.288 5.288 0 01.017 1.323"/><path data-name="パス 721" d="M128.744 54.813c.126 2.844 4.412-4.826 5.379-6.5 3.669-6.362 8.506-16.417 11.9-22.936 1.076-2.055 1.478-5.958 2.438-8.085a4.253 4.253 0 012.182-1.963 2.545 2.545 0 013.314 1.363 8.082 8.082 0 01.651 4.421 28.6 28.6 0 01-2.353 5.811c-.6 1.119-3.886 7.1-4.531 8.191-5.933 10.047-10.367 19.226-16.519 29.145a5.31 5.31 0 01-3.278 2.136c-3.336 1.037-5.047-1.543-5.236-4.464-.281-4.448-.179-8.923-.506-13.367-.325-4.427-.859-8.847-1.519-13.237a10.233 10.233 0 00-5.333-7.545 1.964 1.964 0 00-1.5-.2 12.759 12.759 0 00-7.353 5.447c-4.629 6.669-9.863 13.029-12.777 20.724a162.807 162.807 0 00-5.588 17.176c-.821 3.206-1.166 6.651.31 10.046 1.112 2.552.477 3.982-1.13 4.563-2.561.932-5.241.2-6.007-2.059a12.783 12.783 0 01-.83-6.1 90.137 90.137 0 013.64-14.475 136.133 136.133 0 0114.528-28.7 65.533 65.533 0 018.1-9.591c5.784-5.858 12.643-4.922 16.849 2.306a37.638 37.638 0 014.756 17.306c.132 2.6.262 7.238.411 10.584"/><path data-name="パス 722" d="M115.457 132.458a15.09 15.09 0 01-2.406-4.8 3.079 3.079 0 01.961-2.706 2.347 2.347 0 012.167-.113 9.107 9.107 0 013.106 2.323c2.716 3.556 5.235 7.332 6.045 11.8 4.148 22.943-.245 43.825-15.672 61.771-4.435 5.162-9.336 9.938-14.213 14.7a35.965 35.965 0 01-6.917 5.167c-7.964 4.66-15.957 1.761-18.931-6.956a31.177 31.177 0 01-1.649-9.257c-.23-10.782.519-21.42 4.375-31.726a44.7 44.7 0 016.81-12.27 109.137 109.137 0 0120.658-20.368c6.662-4.932 7.677-5.854 15.185-6.832.474-.062.481-.728.481-.728m4.526 6.779c-2.1-.217-2.736 2.248-5.214.8-2.774-1.619-5.626.036-8.157 1.419a65.3 65.3 0 00-17.859 13.923c-4.182 4.726-8.44 9.429-10.842 15.324-4.754 11.669-5.713 23.853-3.978 36.258a18.522 18.522 0 002.029 5.894c2.214 4.218 5.622 5.381 9.821 3.189a38.187 38.187 0 007.773-5.258c4.282-3.841 8.381-7.906 12.335-12.088 6.366-6.743 11.246-14.334 13.743-23.46a86.2 86.2 0 003.21-19.3c.226-5.618.23-9.972-1.716-15.868a1.161 1.161 0 00-1.146-.838"/><path data-name="パス 723" d="M180.531 183.31c6.16-7.47 12.9-14.426 17.363-23.138 1.195-2.333 2.367-4.682 3.735-6.913a31.359 31.359 0 004.961-13.949c.06-1.047-.727-2.878-.391-3.871.564-1.525 3.046-1.7 4.669-1.606a2.944 2.944 0 013.061 2.825v.1a13.474 13.474 0 01-.785 5.28 87.562 87.562 0 01-5.439 11.327c-5.779 9.657-10.974 19.71-18.361 28.329-2.559 2.988-5.065 6.03-7.819 8.827-2.67 2.714-4.782 2.608-7.343-.183a13.791 13.791 0 01-2.438-3.942 33.276 33.276 0 01-2.191-13.109c.006-6.705-1.978-12.931-4.624-18.957-2.046-4.661-4.763-5.137-8.321-1.223a51.729 51.729 0 00-11.844 21.024 53.791 53.791 0 00-1.966 14.207c-.017 1.642-.827 4.58 1.521 5.1 1.665.37 1.421 1.855 1.178 3.189a7.4 7.4 0 01-5 6.084c-2.452 1.03-4.975-3.573-4.858-7.224a72.5 72.5 0 011.78-13.992 130.8 130.8 0 017.513-22.262c2.712-6.277 7.281-10.821 12.227-15.143a5.045 5.045 0 016.534-.374 21.273 21.273 0 017.889 9.549c2.669 6.675 3.408 13.715 4.5 20.69.521 3.327.61 5.732 2.478 9.166.685 1.255 1.529.725 1.972.187"/><path data-name="パス 724" d="M240.866 166.531c-2.382-1.385-4.512-.468-6.573-1.5a23.027 23.027 0 01-6.494-4.437c-2.927-3.114-2.553-8.481-.147-11.546 7.251-9.24 14.819-15.543 26.923-17.778a28.062 28.062 0 017.772.072c1.819.185 3.531 2.255 2.844 3.048-.845.913-1.351 1.968-3.059 2.182-3.088.432-6.49-.387-9.461.4-7.649 2.033-13.331 7.217-18.423 12.941-2.94 3.308-1.744 7.924 2.2 9.934a12.84 12.84 0 009.18 1.208c2.533-.642 5-1.54 7.513-2.261 1.842-.528 5.113-.617 5.1 1.255-.021 4.063-2.268 6.577-5.686 8.419-4.158 2.248-8.368 4.409-12.422 6.836-4.271 2.559-8.426 5.32-12.543 8.125-2.578 1.544-7.315 4.752-5.239 6.926 1.77 1.853 5.932 2.789 9.406 1.953a133.3 133.3 0 0019.428-6.384c4.616-1.893 9.213-3.835 13.849-5.673a8.573 8.573 0 013.729-.81 2.837 2.837 0 011.936 1.936c.291 2.976-1.14 4.907-4.052 5.858-6.732 2.2-13.665 3.907-20.161 6.656a57.542 57.542 0 01-15.864 4.327 68.7 68.7 0 01-8.615.028 6 6 0 01-1.548-.274c-5.707-1.617-7.6-8.185-3.308-12.31a74.224 74.224 0 018.766-6.647c4.712-3.337 9.5-6.566 14.224-9.883.377-.266 1.608-.8 1.323-1.589a3.036 3.036 0 00-.6-1.013"/><path data-name="パス 725" d="M332.325 50.393c12.382-6.858 18.823-17.895 24.768-29.641 1.576-3.114 1.923-7.021 2.134-10.606.2-3.382-2.34-4.871-5.216-3.393-3.238 1.668-6.381 3.469-8.827 6.373-2.206 2.618-4.748 5.011-5.607 8.425-.876 3.488-4.794 4.641-5.682 8.226-.808 3.271-2.808 6.234-3.725 9.487-2.984 10.591-5.732 21.237-8.477 31.887-.313 1.208.03 2.57-.062 3.848a64.152 64.152 0 01-.857 8.5 7.5 7.5 0 01-2.5 3.816 4.069 4.069 0 01-3.471.772 3.68 3.68 0 01-1.757-3.021 107.563 107.563 0 012.593-13.875c4.6-16.664 8.06-33.657 13.994-49.942a4.561 4.561 0 00.466-1.491c-.07-4.169 1.1-7.158 6-7.489 1.1-.074 2.123-1.4 3.135-2.206 2.461-1.959 4.8-4.086 7.37-5.888a28.059 28.059 0 016.19-3.35c7.124-2.661 12.688 1.317 12.473 9.057-.125 4.454-.762 8.987-2.967 12.948a120.961 120.961 0 01-8.338 13.292c-3.512 6.426-8.951 9.5-13.518 15.07a24.842 24.842 0 007.4 11.724c13.2 10.385 26.6 20.49 42.584 26.423 2.665.991 3.6 2.435 2.786 3.859-1.161 2.029-3.023 1.906-4.82 1.281a105.011 105.011 0 01-10.263-3.924C368.6 86.066 359.97 80.068 351.626 73.7a171.571 171.571 0 01-14.356-12.214c-2.778-2.653-4.041-5.08-5.275-9.721a2.538 2.538 0 01.328-1.372"/><path data-name="パス 726" d="M266.663 45.835c4.4-2.5 4.863-5.845 5.467-9.931 1.376-9.312 4.711-18.233 5.635-27.656.355-3.622 2.289-4.463 6.075-2.969.457.181.91.368 1.674.681 3.703-2.545 7.466-5.545 12.431-5.752a43.066 43.066 0 017.815 0c9.323 1.338 14.275 9.576 11.344 18.6-1.91 5.877-5.473 10.721-9.761 15.043a46.1 46.1 0 01-23.7 13.237c-2.814.583-5.588 1.351-8.449 2.057-2.172 3.5-2.837 7.37-3.531 11.216-2.1 11.6-4.209 23.2-6.177 34.827-.459 2.71-1.1 5.1-3.659 6.558-1.4.8-3.64-.064-3.652-1.6a29.277 29.277 0 01.536-6.194c1.247-5.9 2.7-11.75 4.024-17.632 1.661-7.415 3.14-14.877 4.96-22.249.677-2.752-1.525-3.873-1.761-7.29-.019-.3.728-.946.728-.946m10.444-2.163c4.175-1.078 7.838-1.623 11.186-2.963 9.508-3.8 17.489-9.6 21.984-19.15a20.49 20.49 0 001.855-7.523c.249-5.009-2.3-7.741-7.277-8.577a16.139 16.139 0 00-17.293 9.414c-.732 1.77-1.006 3.388-3.35 3.7-.764.108-1.665 1.212-2.01 2.067a80.368 80.368 0 00-3.757 10.335c-.946 3.72-2.416 7.472-1.34 12.7"/><path data-name="パス 727" d="M425.131 69.896c-1.321-9.417 3.042-17.17 4.624-25.593 1.546-8.228 4.127-15.762 5.107-25.078.181-1.729-2.433-2.912-3.563-4.609-1.617-2.436-.985-4.8 1.744-5.713a45.842 45.842 0 019.9-2.457 147.648 147.648 0 0115.721-.46 27.014 27.014 0 0113.374 4.21c6.562 3.854 8.47 8.355 6.851 15.887a26.513 26.513 0 01-5.348 11.3 214.661 214.661 0 01-15.073 17.1c-4.454 4.392-9.7 7.989-14.628 11.893-5.239 4.154-11.016 7.6-18 4.4a1.081 1.081 0 01-.708-.878m16.181-48.67a245.514 245.514 0 00-7.2 31.258 56.274 56.274 0 00-.725 7.8c-.057 3.433 1.987 4.6 5.15 3.112a33.942 33.942 0 003.446-1.874c10.808-6.739 19.5-15.707 26.884-25.963a34.935 34.935 0 004.678-9c2.063-6.069-.359-10.842-6.241-13.335a13.14 13.14 0 00-2.98-.947c-6.992-1.144-13.969-1.548-21.065.576 0 0-1.14 5.66-1.944 8.379"/><path data-name="パス 728" d="M605.082 19.342c-2.214 12.176-5.4 27.55-7.93 38.33-4.127 17.549-4.718 19.89-10.048 38.622-.764 2.689-1.521 2.935-.895 7.624-.068 1.808-2.384 3.633-2.94 4.067-1.287.944-2.723 2.336-4.416 1.436-2.04-1.081-1.631-4.544-1.3-6.479.708-4.127 2.9-7.1 4.288-12.231 2.946-10.863 4.058-14.115 6.722-25.044 2.231-9.147 4.324-16.383 6.917-27.148 1.615-6.707 4.558-20.633 4.762-29.352a.725.725 0 00-.7-.676c-1.315-.072-4.156.176-5.46.179-4.182.3-8.342.864-12.526 1.091a7.739 7.739 0 01-3.642-1.085c-1.21-.614-1.04-3.545.19-4.064a10.169 10.169 0 012.989-.766q20.742-1.84 41.495-3.584a11.434 11.434 0 013.886.087 3.507 3.507 0 012.148 1.9c.183 1.263.394 2.316-.5 3.186-.64.6-3 .608-4.029.717-5.458.57-8.583 1.113-14.6 1.6-2.927.238-3.352 5.764-4.412 11.593"/><path data-name="パス 729" d="M380.035 18.495a1.085 1.085 0 01.3-1.2c8.351-7.492 21.148-8.681 29.905-2.776a14.72 14.72 0 016.928 10.891 26.873 26.873 0 01-.736 11.665 67.648 67.648 0 01-7.719 16.268 31.7 31.7 0 01-10.954 9.946c-5.907 3.372-11.457 2.542-16.574-2.074a19.246 19.246 0 01-6.641-15.266 48.066 48.066 0 013.986-18.274c.8-1.925 1.712-3.016 2.657-4.911 0 0 .37-.415-1.151-4.269m10.352 4.588a11.638 11.638 0 00-5.741 7.145c-1.217 3.986-2.121 8.074-3.02 12.148a15 15 0 00.991 8.459c3.3 9.059 8.536 10.712 16.049 4.822 7.094-5.556 10.993-13.194 13.186-21.735 1.229-4.782.781-9.621-2.733-13.275a14.481 14.481 0 00-13.031-4.677c-.253.032-.8.445-.7.681.878 1.993 2.6 2.9 3.2 4.622.327 1.146-1.58 1.536-2.725 1.861a12.957 12.957 0 01-5.137-.085z"/><path data-name="パス 730" d="M495.996 58.066a9.443 9.443 0 006.4-2.695c8.4-7.511 12.616-17.223 18.553-26.8a44.472 44.472 0 002.291-4.116c3.418-7.028 3.431-7.579.623-14.637 2.761-1.921 3.784-2.031 5.22-.6a7.366 7.366 0 012.187 7.192 34.01 34.01 0 01-2.972 8.891c-7.53 13.256-13.08 25.978-24.4 36.378-.2.177-1.393 1.055-1.58 1.24-6.52 3.416-13.941.857-15.092-5.173a43.577 43.577 0 01-.936-13.254c.659-5.784 2.289-11.289 3.812-16.821 1.453-5.3 3.514-10.416 5.333-15.606a11.144 11.144 0 011-2.123 3.585 3.585 0 014.229-1.017 2.694 2.694 0 011.71 3.171 29.173 29.173 0 01-2.538 6.53 51.635 51.635 0 00-5.764 16.223 131.709 131.709 0 00-1.4 14.82c.032 1.574-.255 3.631.283 5.111.511 1.251.51 1.772 1.532 2.653a2.753 2.753 0 001.512.636"/><path data-name="パス 731" d="M574.05 51.165c-3.589 5.537-6.462 7.787-11.656 10.874-5.692 3.386-14.009 3.28-18.7-1.391a20.276 20.276 0 01-5.571-11.888c-1.127-7.585.806-14.654 3.852-21.39 2.578-5.705 5.245-11.42 9.751-16.058 1.568-1.615 2.27-4.046 3.5-6.022a3.394 3.394 0 015.414-.055c1.568 2.163 1.763 4.6.232 6.528a24.2 24.2 0 01-3.42 3.172c-7.781 6.6-11.969 15.17-13.3 25.119a20.471 20.471 0 003.437 15 8.6 8.6 0 0011.363 2.706 47.809 47.809 0 009.457-6.23 24.678 24.678 0 003.923-4.289c1.119-1.242 1.851-3.167 3.074-1.995.942.9.226 3.465-1.361 5.915"/><path data-name="パス 732" d="M386.739 138.768c2.8-1.155 10.1-2.323 14.3-1.093 5.443 1.421 11.2 5.969 8.394 14.213a33.087 33.087 0 01-13.422 16.921c-2.591 1.74-5.447 3.08-8.695 4.888a25.558 25.558 0 002.18 3.752c2.514 3.021 5.08 6 7.789 8.847a53.534 53.534 0 0018.45 13.069c7.492 3.088 16.9 7.151 25.136 7.868 3.684.323 5.028 2.217 4.32 3.9-1.51 3.642-6.06 3.761-8.766 2.946-3.254-.979-6.475-2.1-9.631-3.38-8.506-3.442-16.991-6.992-24.51-12.354a81.5 81.5 0 01-10.316-8.434 211.587 211.587 0 01-14.985-16.1c-.927-1.142-1.508-1.314-1.772-.787-2.746 5.615-3.731 11.748-5.08 17.744a8.525 8.525 0 00.564 3.786c1 3.688-.434 6.647-2.829 9.217a3.519 3.519 0 01-4.243 1.091c-1.791-.823-1.949-2.31-1.583-3.959a280.064 280.064 0 0110.755-36.863c1.321-3.563 3.416-6.951 1.17-11.189-1.247-2.357 2.059-3.773 3.99-5.139 3.886-2.753 5.605-7.636 8.783-8.947m-8.783 25.14c6.939 5.024 9.255 5.141 15.192 1.064a26.154 26.154 0 004.254-3.427c3.055-3.227 5.879-6.707 6.841-11.174.949-4.426-3.546-8.7-8-7.891-3.142.568-4.039.827-6.141 2.855-1.119 1.081-1.619 3.293-2.518 4.571-2.214 3.15-3.063 6.653-7.134 8.206-1.395.532-2.182 3.465-2.5 5.794"/><path data-name="パス 733" d="M500.383 159.784c-2.485-.187-4.6-.177-6.645-.532a12.146 12.146 0 01-10.034-13.941 12.274 12.274 0 01.54-2.106 7.891 7.891 0 013.433-4.02 105.974 105.974 0 0113.649-6.013 13.453 13.453 0 016.928-.089c4.2.91 4.975 3.54 2.425 8.062-.481.711-1.064.559-1.616.394-2.191-.651-3.659-2.986-6.411-2.533a21.725 21.725 0 00-9.885 4.592c-2.074 1.612-2.219 4-1.683 6.469a4.967 4.967 0 004.41 3.929 20.1 20.1 0 006.22 0c2.84-.432 5.6-1.434 8.436-1.876a4.384 4.384 0 014.631 2.025c.549 3.467-1.727 5.7-5.214 7.7-5.556 3.188-9.419 8.311-13.858 12.741a18.615 18.615 0 00-3.552 6.052c-1.317 3.161-.21 5.986 3.138 6.875a29.646 29.646 0 0010.806 1.2 95.747 95.747 0 0027.269-7.324c10.793-4.771 16.232-12.539 26.982-17.414 1.459-.661 2.946-1.436 4.341-.177 1.347 1.215 1.246 3.014.891 4.594a8.462 8.462 0 01-1.155 2.4c-3.3 4.707-13.784 8.795-22.86 13.337a117.8 117.8 0 01-25.106 9.038c-6.675 1.515-13.424 2.5-20.278 1.123a29.874 29.874 0 01-3.074-.655c-8.391-2.653-11.478-8.077-6.8-16.172a41.387 41.387 0 018.608-10.121c2.316-2.061 5.426-3.978 6.241-7.479"/><path data-name="パス 734" d="M444.499 162.963c-3.886-1.4-6.439-2.082-8.757-3.231a29.8 29.8 0 01-6.519-4.235c-2.857-2.531-3.133-6.477-.511-9.059 8.33-8.225 17.551-15.045 29.573-16.781a18.14 18.14 0 015.422.159 2.575 2.575 0 012.3 2.731c-.542 1.61-2 1.434-3.218 1.5-9.272.51-17.166 4.437-24.5 9.768a14.658 14.658 0 00-2.38 2.048c-3.169 3.58-2.629 6.439 1.661 8.832 4.512 2.516 9.285 3.6 14.4 2.268 2.1-.547 4.124-1.081 5.626 1.219-.274 3.473-2.282 5.654-5.3 7.094q-2.132 1.022-4.252 2.061a29.8 29.8 0 00-12.267 10.721c-.317 2.148 1.113 3.038 2.737 2.987a41.058 41.058 0 008.553-1.057c7.121-1.78 14.173-3.839 21.258-5.766 1-.27 2.117-.779 3-.53.744.209 1.834 1.481 1.714 2.068-.544 2.68-1.9 4.761-4.935 5.4-6.926 1.455-13.809 3.121-20.739 4.558a75.3 75.3 0 01-8.568 1.136 13.156 13.156 0 01-8.27-2.044c-4.065-2.527-4.41-6.66-.774-9.682 4.612-3.835 9.249-7.636 14.745-12.169"/><path data-name="パス 735" d="M347.289 149.804a42.445 42.445 0 01-1.489 6.4c-2.557 6.624-4.086 13.482-5.648 20.39-1.729 7.638-4.4 15.062-6.558 22.605-4.258 14.845-8.562 29.69-12.6 44.6-1.134 4.184-2.733 12.3-2.267 13.739 1.683 5.2-1.989 9.934-5.173 14.522a4.452 4.452 0 01-3.289 1.381c-1.344-.011-2.542-2.191-2.167-3.686a36.752 36.752 0 011.944-5.964c3.32-7.447 5.124-15.371 7.411-23.139 2.8-9.51 5.473-19.059 8.089-28.622q4.136-15.131 8.051-30.324c2.093-8.106 3.856-16.3 6.135-24.349.887-3.135.813-6.184.9-9.312a3.155 3.155 0 013.059-2.967 3.568 3.568 0 013.442 2.674c.083.513.089 1.036.168 2.053"/><path data-name="パス 736" d="M369.833 129.234c-5.48 1.368-7.868 1.3-12.943 2.48-5.352 1.246-10.661 2.676-16.036 3.839s-10.8 2.117-16.217 3.108a6.322 6.322 0 01-2.329-.1c-1.4-.277-2.625-1.125-2.365-2.6a6.574 6.574 0 011.914-3.089 3.508 3.508 0 012.223-.564c10.629-.259 20.565-3.986 30.826-6.086 4.614-.944 9.259-1.819 13.93-2.382 2.353-.285 6.009 1.785 3.737 4.369a9.385 9.385 0 01-2.74 1.027"/></g></g></g></g></svg>