<svg xmlns="http://www.w3.org/2000/svg" width="74.038" height="34"><g data-name="グループ 115"><g data-name="グループ 114"><path data-name="パス 89" d="M26.649 10.511h-2.191V1.863H21.28V.004h8.543v1.859h-3.174z"/><path data-name="パス 90" d="M32.798 5.794v4.717h-2.194V0h2.194v3.983h4.1V0h2.2v10.511h-2.2V5.798z"/><path data-name="パス 91" d="M47.588 1.859H42.07v2.209h4.863v1.859H42.07v2.724h5.516v1.86h-7.561V0h7.563z"/><path data-name="パス 92" d="M6.512 11.586h2.05v10.507h-2.2l-4.278-7.492h-.031v7.492H.004V11.586h2.311l4.166 7.315h.035z"/><path data-name="パス 93" d="M14.606 11.308c1.392 0 5.049.6 5.049 5.531s-3.657 5.529-5.049 5.529-5.05-.6-5.05-5.529 3.661-5.531 5.05-5.531m0 9.2c1.187 0 2.852-.731 2.852-3.673s-1.665-3.672-2.852-3.672-2.853.733-2.853 3.672 1.671 3.673 2.853 3.673"/><path data-name="パス 94" d="M35.138 22.093h-2.193v-8.65h-3.18v-1.857h8.542v1.857h-3.17z"/><path data-name="パス 95" d="M41.293 17.382v4.709H39.1V11.585h2.193v3.979h4.1v-3.979h2.2v10.506h-2.2v-4.709z"/><path data-name="パス 96" d="M20.568 11.586h5.315a2.959 2.959 0 013.3 2.974 2.514 2.514 0 01-1.627 2.5c.866.379 1.333.7 1.333 2.661 0 1.536 0 1.919.468 2.094v.277h-2.426a7.079 7.079 0 01-.23-2.12c0-1.436-.085-1.99-1.715-1.99h-2.265v4.11h-2.153zm4.729 4.626c1.142 0 1.7-.4 1.7-1.435 0-.554-.253-1.374-1.536-1.374h-2.74v2.808z"/><path data-name="パス 97" d="M16.275 33.677h-2.192V23.17h7.473v1.859h-5.282v2.37h4.622v1.862h-4.622z"/><path data-name="パス 98" d="M22.544 33.677h-2.313l3.746-10.507h2.532l3.7 10.507h-2.386l-.672-2.167h-3.878zm1.318-3.979h2.676l-1.3-4.154h-.024z"/><path data-name="パス 99" d="M36.948 26.646a2.132 2.132 0 00-2.323-1.812c-1.055 0-2.61.7-2.61 3.671 0 1.887.749 3.588 2.61 3.588a2.239 2.239 0 002.323-1.977h2.194a4.368 4.368 0 01-4.562 3.877c-2.8 0-4.8-1.882-4.8-5.515 0-3.671 2.119-5.546 4.833-5.546a4.178 4.178 0 014.529 3.715z"/><path data-name="パス 100" d="M47.588 25.03H42.07v2.205h4.863v1.859H42.07v2.724h5.516v1.856h-7.561V23.17h7.563z"/><path data-name="パス 101" d="M11.094 30.775a1.612 1.612 0 11-1.625 1.6 1.6 1.6 0 011.625-1.6m0 2.987a1.376 1.376 0 10-1.333-1.385 1.331 1.331 0 001.333 1.385m-.63-2.32h.729c.449 0 .659.176.659.539a.483.483 0 01-.5.512l.538.834h-.313l-.514-.811h-.309v.811h-.294zm.294.836h.305c.26 0 .5-.012.5-.31 0-.25-.214-.29-.414-.29h-.387z"/><path data-name="パス 102" d="M74.037 24.35A24.337 24.337 0 0049.686 0h-.483v10.511h.483a14.262 14.262 0 0114.27 14.1v9.073h10.08z"/><path data-name="パス 103" d="M49.686 23.17h-.481v10.507h5.04v-5.949a4.556 4.556 0 00-4.558-4.558"/><path data-name="パス 104" d="M62.876 24.727a13.192 13.192 0 00-13.182-13.141h-.5v10.507h.483a5.631 5.631 0 015.635 5.635v5.945h7.56z"/></g></g></svg>