<svg xmlns="http://www.w3.org/2000/svg" width="442.757" height="284.647"><g data-name="グループ 2112"><g data-name="グループ 1950"><g data-name="グループ 1949"><g data-name="グループ 1935"><text data-name="2024.3.8" transform="translate(64.782 273.44)" font-size="24" font-family="Bookmania-Regular, Bookmania" letter-spacing="-.02em"><tspan x="0" y="0">2024.3.8</tspan></text><text data-name="(FRI)" transform="translate(166.18 271.425)" font-size="16" font-family="Bookmania-Regular, Bookmania" letter-spacing="-.02em"><tspan x="0" y="0">(FRI)</tspan></text><text data-name="(FRI)" transform="translate(307.714 271.425)" font-size="16" font-family="Bookmania-Regular, Bookmania" letter-spacing="-.02em"><tspan x="0" y="0">(FRI)</tspan></text><text data-name="4.12" transform="translate(254.199 273.44)" font-size="24" font-family="Bookmania-Regular, Bookmania" letter-spacing="-.02em"><tspan x="0" y="0">4.12</tspan></text><path data-name="線 46" fill="none" stroke="#000" d="M211.95 267.044h35.208"/></g><g data-name="グループ 1929"><g data-name="グループ 1936"><g data-name="グループ 1939"><path data-name="パス 649" d="M53.807 109.483a47.645 47.645 0 01-8.627 23.87A76.147 76.147 0 0134 146.442a34.548 34.548 0 01-17.573 8.978c-7.013 1.251-14.734-3.841-15.973-11.272a31.051 31.051 0 011.381-15.832C5.729 117.311 13 108.771 21.783 101.4a71.8 71.8 0 017.693-5.5c5.175-3.289 10.911-3.541 16.631-2.129 3.945.972 6.077 4.176 6.882 8.03a72.793 72.793 0 01.818 7.684m-4.172-1.114a20.958 20.958 0 00-1.815-8.32c-.8-1.585-1.89-2.617-3.946-2.384a15.206 15.206 0 01-3.817-.456 10.783 10.783 0 00-7.017 1.03c-12.17 6.642-20.896 16.512-26.64 28.98a25.612 25.612 0 00-1.225 17.44 8.276 8.276 0 003 4.55c3 2.367 6.252 3.169 9.893 1.716 5.191-2.071 10.158-4.477 14.264-8.439A77.244 77.244 0 0043.84 128.23c3.793-5.964 5.307-12.6 5.795-19.86"/><path data-name="パス 655" d="M149.601 135.095c-1.63 4.215-4.943 6.169-9.17 7.144-6.328 1.459-12.637 3.051-19.132 3.45a20 20 0 01-7.111-.811 5.55 5.55 0 01-3.3-8.5 27.306 27.306 0 014.951-5.92c2.149-2.03 4.636-3.7 6.939-5.57.831-.676 1.549-1.491 2.6-2.517-1.647-.738-2.9-1.357-4.2-1.876-5.242-2.093-6.833-10.71-1.7-14.975a57.228 57.228 0 016.307-4.56 13.65 13.65 0 0110.723-1.573c1.036.246 1.065.308 2.5 2.554-1.244 1.214-2.774.629-4.153.552-5.17-.291-8.757 2.491-11.952 6.021a7.1 7.1 0 00-1.293 2.434c-1.125 3.255.639 6.2 4.053 6.347a35.59 35.59 0 007.154-.675c1.635-.266 3.192-.972 4.816-1.338a24.844 24.844 0 013.322-.294c.631 2.354.087 3.947-1.684 5.042a16.474 16.474 0 01-3.018 1.416c-5.677 2.073-10.2 5.982-15.055 9.369a16.227 16.227 0 00-5.126 6.467 2.688 2.688 0 002.164 4.129 19.038 19.038 0 006.075-.009c5.266-1.074 10.462-2.477 15.694-3.714a15.835 15.835 0 006.693-3.765c.914-.789 1.718-.376 2.9 1.168"/><path data-name="パス 656" d="M91.147 124.086c2.524-.19 3.125-1.73 3.821-2.908q3.956-6.706 7.624-13.58c.775-1.445 1.086-3.131 1.781-4.628a3 3 0 011.555-1.371 1.8 1.8 0 012.332.985 5.718 5.718 0 01.429 3.136 11.109 11.109 0 01-1.623 2.878c-1.959 3.361-3.881 6.745-5.877 10.083-2.756 4.61-5.52 9.217-8.4 13.752a10.29 10.29 0 01-2.376 2.036 3.631 3.631 0 01-3.622-3.742c-.168-3.146-.065-6.308-.264-9.451s-.544-6.259-.981-9.366a7.38 7.38 0 00-4.218-5.653 9.024 9.024 0 00-5.793 3.928c-3.318 4.682-7.062 9.14-9.175 14.557a115.23 115.23 0 00-4.069 12.1 10.68 10.68 0 00.149 7.1c.767 1.81.309 2.814-.831 3.216-1.816.641-3.705.106-4.231-1.5a9.047 9.047 0 01-.544-4.314 63.793 63.793 0 012.675-10.2 96.229 96.229 0 0110.469-20.183 46.343 46.343 0 015.79-6.72c4.129-4.1 8.969-3.39 11.892 1.748a26.6 26.6 0 013.242 12.264c.075 1.84.152 3.68.241 5.833"/></g><g data-name="グループ 1938"><path data-name="パス 653" d="M76.627 185.401a26.058 26.058 0 01-1.947-3.783 2.51 2.51 0 01.679-1.912 1.656 1.656 0 011.53-.079 6.412 6.412 0 012.195 1.642c1.919 2.513 3.7 5.182 4.273 8.338 2.933 16.215-.174 30.974-11.076 43.661-3.135 3.648-6.6 7.024-10.046 10.388a25.348 25.348 0 01-4.894 3.649c-5.626 3.294-11.276 1.246-13.377-4.916a22.021 22.021 0 01-1.166-6.542c-.161-7.62.369-15.138 3.092-22.424a31.612 31.612 0 014.815-8.671 77.091 77.091 0 0114.6-14.4c4.707-3.485 5.629-3.785 11.317-4.955m3.44 4.334c-1.489.016-2.42 1.652-4.173.629-1.96-1.144-3.977.025-5.765 1a46.108 46.108 0 00-12.62 9.843c-2.957 3.341-5.967 6.664-7.665 10.832a48.848 48.848 0 00-2.812 25.625 13.114 13.114 0 001.434 4.167c1.563 2.981 3.974 3.8 6.942 2.251a26.925 26.925 0 005.489-3.718c3.026-2.715 5.925-5.587 8.718-8.543a38.927 38.927 0 009.714-16.581 60.946 60.946 0 002.27-13.639c.158-3.97.426-8.125-1.531-11.869"/><path data-name="パス 654" d="M121.315 221.349c.715-.264.945-.278 1.055-.4 4.6-5.071 9.12-10.2 12.271-16.353.843-1.648 1.674-3.31 2.641-4.886a22.167 22.167 0 003.506-9.858 8.25 8.25 0 01.423-2.172 2.61 2.61 0 012.6-1.7 2.082 2.082 0 012.165 2.068 9.527 9.527 0 01-.554 3.732 61.743 61.743 0 01-3.845 8c-4.085 6.825-7.756 13.931-12.976 20.021-1.808 2.109-3.579 4.262-5.525 6.239-1.887 1.917-3.382 1.843-5.19-.129a9.746 9.746 0 01-1.723-2.786 23.517 23.517 0 01-1.546-9.265 33.128 33.128 0 00-3.268-13.4c-1.447-3.3-3.366-3.631-5.88-.865a36.562 36.562 0 00-8.373 14.86 93.435 93.435 0 00-1.822 10.381c-.221 1.4.092 2.575 1.752 2.944 1.176.262 1.3 1.223 1.128 2.165-.436 2.421-2.1 4.329-3.667 4.341-1.829.014-3.925-2.155-3.843-4.735a51.219 51.219 0 011.257-9.889 92.4 92.4 0 015.31-15.733c1.916-4.436 5.145-7.649 8.641-10.706a3.566 3.566 0 014.618-.264 15.033 15.033 0 015.575 6.749c1.886 4.715 2.409 9.693 3.182 14.624.369 2.351.539 4.721 2.085 7.008"/><path data-name="パス 657" d="M165.288 209.574a30.437 30.437 0 01-5.028-1.509 15.9 15.9 0 01-4.481-3.168c-2.069-2.2-2.416-4.947-.716-7.114 5.124-6.532 11.084-12.035 19.64-13.614a19.791 19.791 0 015.494.051c1.286.13 2.495 1.592 2.01 2.154a3.934 3.934 0 01-2.262 1.21c-2.184.305-4.487.057-6.587.615-5.407 1.436-9.422 5.1-13.021 9.147-2.078 2.337-1.232 5.6 1.556 7.022a9.088 9.088 0 006.488.852c1.79-.454 3.534-1.088 5.31-1.6 1.3-.374 2.569-.435 3.606.887.061 2.87-1.6 4.644-4.018 5.95-2.939 1.589-5.916 3.115-8.78 4.831-3.018 1.808-5.955 3.76-8.865 5.742a8.2 8.2 0 00-3.7 4.9c1.969 1.985 4.193 1.97 6.648 1.38a94.338 94.338 0 0013.727-4.513c3.262-1.338 6.51-2.71 9.788-4.009a6.053 6.053 0 012.636-.574 2.006 2.006 0 011.368 1.369 3.657 3.657 0 01-2.863 4.141c-4.758 1.553-9.659 2.761-14.25 4.7a40.609 40.609 0 01-11.213 3.06 48.356 48.356 0 01-6.088.02 4.253 4.253 0 01-1.094-.194c-4.033-1.144-5.373-5.785-2.34-8.7a52.5 52.5 0 016.194-4.7c3.33-2.359 6.714-4.641 10.053-6.986.266-.187.367-.61.789-1.353"/></g><g data-name="グループ 1940"><path data-name="パス 648" d="M232.179 125.558c8.8-4.76 13.61-12.692 17.894-20.951a19.409 19.409 0 001.582-7.481c.163-2.389-1.62-3.46-3.66-2.435a19.245 19.245 0 00-6.283 4.447c-1.577 1.835-3.391 3.508-4.021 5.911-.644 2.458-3.421 3.245-4.074 5.773-.6 2.3-2.029 4.384-2.7 6.679-2.18 7.461-4.2 14.969-6.216 22.476a15.958 15.958 0 00-.071 2.72 45.25 45.25 0 01-.665 6 5.308 5.308 0 01-1.794 2.68 2.879 2.879 0 01-2.458.521 2.6 2.6 0 01-1.219-2.147 75.917 75.917 0 011.929-9.785c3.37-11.745 5.933-23.726 10.241-35.2a3.214 3.214 0 00.341-1.051c-.021-2.947.828-5.051 4.293-5.25.771-.044 1.509-.974 2.23-1.537 1.753-1.368 3.421-2.855 5.249-4.11a19.859 19.859 0 014.4-2.321c5.052-1.836 8.952 1.015 8.752 6.484a19.741 19.741 0 01-2.188 9.13 85.591 85.591 0 01-5.985 9.334c-2.894 3.828-6.119 7.405-9.387 11.311a12.306 12.306 0 004.876 7.582c9.253 7.432 18.656 14.668 29.907 18.976 1.877.718 2.525 1.745 1.942 2.743-.834 1.427-2.149 1.327-3.414.872a73.955 73.955 0 01-7.226-2.845 105.1 105.1 0 01-18.615-12.1 120.87 120.87 0 01-10.059-8.736c-1.945-1.894-3.818-4.088-3.6-7.7"/><path data-name="パス 652" d="M185.427 121.807c3.125-1.736 4.038-4.2 4.494-7.087 1.038-6.571 3.457-12.852 4.176-19.506.276-2.557 1.65-3.138 4.315-2.055.322.131.641.266 1.179.49 2.635-1.767 5.315-3.867 8.825-3.977a30.445 30.445 0 015.525.058c6.578 1.011 10.021 6.868 7.884 13.224a27.015 27.015 0 01-7 10.562 32.582 32.582 0 01-16.842 9.189c-1.992.391-3.958.918-5.982 1.394-1.56 2.456-2.056 5.189-2.575 7.9-1.564 8.184-3.137 16.368-4.61 24.57-.343 1.912-.813 3.6-2.633 4.609-.995.553-2.572-.067-2.569-1.158a20.684 20.684 0 01.421-4.374c.923-4.158 1.994-8.284 2.967-12.433 1.227-5.229 2.327-10.489 3.662-15.69.5-1.939.2-3.578-1.232-5.717m7.96-1.564a67.777 67.777 0 007.926-2.015c6.747-2.622 12.428-6.662 15.671-13.382a14.462 14.462 0 001.365-5.3c.21-3.537-1.57-5.487-5.083-6.113a11.409 11.409 0 00-12.287 6.532c-.529 1.246-.735 2.387-2.394 2.594-.541.067-1.184.848-1.435 1.447a56.645 56.645 0 00-2.728 7.277c-.695 2.622-1.758 5.263-1.036 8.965"/><path data-name="パス 658" d="M297.84 140.038c.07-6.559 2.242-12.334 3.42-18.276 1.149-5.8 2.469-11.575 3.784-17.687-.747-.976-1.7-2.075-2.485-3.283-1.129-1.732-.663-3.4 1.271-4.024a32.39 32.39 0 017.017-1.667 104.208 104.208 0 0111.113-.216 19.093 19.093 0 019.426 3.067c4.61 2.769 5.927 5.963 4.73 11.275a18.75 18.75 0 01-3.858 7.946 151.8 151.8 0 01-10.776 11.984c-3.178 3.073-6.91 5.577-10.421 8.3-3.735 2.9-7.917 3.746-13.221 2.58m13.185-40.41c-.48 2.005-.846 3.99-1.433 5.906a173.5 173.5 0 00-5.31 22.042 39.668 39.668 0 00-.567 5.507c-.065 2.425 1.371 3.268 3.618 2.234a23.862 23.862 0 002.448-1.3 67.661 67.661 0 0019.182-18.159 24.649 24.649 0 003.369-6.329c1.5-4.275-.176-7.664-4.316-9.469a9.347 9.347 0 00-2.1-.691c-4.934-.856-9.862-1.191-14.891.26"/><path data-name="パス 659" d="M427.444 99.418c-.515 2.858-1.025 5.4-1.421 7.952-1.087 7.014-3.97 13.469-6.164 20.141a161.593 161.593 0 00-7.326 34.135 56.513 56.513 0 00.135 6.594 6.721 6.721 0 01-1.079 1.032 2.669 2.669 0 01-3.074.464c-1.435-.779-1.469-1.965-1.221-3.328.53-2.913.944-5.849 1.559-8.743 1.653-7.781 3.19-15.6 5.15-23.3 1.641-6.449 3.816-12.762 5.747-19.138 1.453-4.8 2.5-9.637 1.737-15.078a22.511 22.511 0 00-3.185-.25c-2.956.183-5.9.553-8.859.683a5.475 5.475 0 01-2.567-.792c-.849-.443-.709-2.514.164-2.871a7.159 7.159 0 012.118-.521q14.673-1.154 29.35-2.244a8.076 8.076 0 012.745.09c.614.175 1.521.9 1.5 1.355a3.6 3.6 0 01-1.1 2.3c-.457.418-1.394.355-2.125.423-3.862.365-7.727.7-12.091 1.1"/><path data-name="パス 660" d="M268.518 104.342l-1.054-3c5.944-5.557 15.263-6.437 21.55-2.108a10.4 10.4 0 014.82 7.744 18.987 18.987 0 01-.6 8.24 47.828 47.828 0 01-5.572 11.443 22.411 22.411 0 01-7.811 6.952c-4.2 2.341-8.115 1.716-11.7-1.582a13.605 13.605 0 01-4.586-10.836 33.966 33.966 0 012.946-12.885c.577-1.355 1.328-2.636 2.008-3.969m6.4.807a8.223 8.223 0 00-4.108 5.009c-.888 2.809-1.556 5.691-2.22 8.565a10.6 10.6 0 00.641 5.988c2.268 6.426 5.958 7.63 11.309 3.523 5.053-3.878 7.861-9.247 9.471-15.268.9-3.372.62-6.8-1.837-9.4a10.784 10.784 0 00-9.821-3.263c.661 1.572 1.274 2.83 1.717 4.145a1.526 1.526 0 01-1.97 1.844c-1.052-.285-2.061-.731-3.183-1.141"/><path data-name="パス 662" d="M347.521 131.825a29.518 29.518 0 003.151-2.192 95.281 95.281 0 0015.144-18.35 31.519 31.519 0 001.648-2.894c2.468-4.943 2.478-5.332.543-10.341 1.964-1.336 2.689-1.407 3.694-.39a5.207 5.207 0 011.5 5.1 24.069 24.069 0 01-2.163 6.263c-5.415 9.314-11.577 18.084-19.65 25.353-.138.124-.277.246-.41.375-3.875 3.723-8.422 1.181-9.193-3.089a30.771 30.771 0 01-.569-9.373 78.119 78.119 0 012.805-11.862c1.065-3.729 2.557-7.337 3.879-10.992a7.839 7.839 0 01.725-1.493 2.536 2.536 0 013-.689 1.905 1.905 0 011.186 2.256 20.635 20.635 0 01-1.84 4.6 36.491 36.491 0 00-4.187 11.425 92.96 92.96 0 00-1.1 10.465 10.148 10.148 0 00.577 3.266 18.213 18.213 0 001.259 2.567"/><path data-name="パス 664" d="M404.407 125.386c-.543 1.03-.723 1.822-1.218 2.238a121.554 121.554 0 01-9.93 8c-3.883 2.616-8.307 1.823-11.591-1.511a14.331 14.331 0 01-3.855-8.44c-.743-5.369.674-10.35 2.872-15.09 1.862-4.013 3.787-8.034 7-11.281 1.12-1.131 1.633-2.844 2.516-4.232a2.4 2.4 0 013.827 0 3.661 3.661 0 01.118 4.614 17 17 0 01-2.439 2.218 27.172 27.172 0 00-9.575 17.665 14.472 14.472 0 002.322 10.627c1.889 2.709 3.773 3.383 6.685 1.9 2.958-1.5 5.686-3.462 8.521-5.211.943-.582 1.885-1.174 2.871-1.676.262-.134.685.05 1.876.179"/></g><g data-name="グループ 1937"><path data-name="パス 650" d="M265.208 190.377c2.122-.274 4.5-.64 6.891-.864a9.722 9.722 0 013.3.159c3.848 1 7.915 4.218 5.931 10.044a23.366 23.366 0 01-9.486 11.959c-1.83 1.23-3.849 2.177-6.145 3.455a18.075 18.075 0 001.542 2.651c1.775 2.135 3.591 4.243 5.5 6.254a37.85 37.85 0 0013.041 9.236c5.294 2.183 10.259 5.16 16 6.25 2 .381 2.964 1.8 2.462 2.989-.51 1.213-1.927 1.739-3.838 1.163a78.402 78.402 0 01-6.807-2.389c-6.013-2.433-12.009-4.942-17.325-8.732a57.39 57.39 0 01-7.291-5.961c-3.664-3.658-7.06-7.586-10.592-11.379-.224-.241-.646-.3-1.253-.557-1.941 3.969-2.637 8.3-3.595 12.542a6.036 6.036 0 00.4 2.678c.7 2.607-.305 4.7-2 6.514a2.487 2.487 0 01-3 .771c-1.264-.582-1.377-1.632-1.119-2.8a197.739 197.739 0 017.6-26.054c.934-2.518 2.416-4.913.828-7.909-.883-1.666.792-3.082 2.046-4.188 2.068-1.824 4.209-3.566 6.9-5.836m-6.12 17.833c4.906 3.55 6.542 3.633 10.737.753a18.485 18.485 0 003.007-2.422c2.161-2.281 4.155-4.741 4.834-7.9a3.837 3.837 0 00-4.971-4.616 5.388 5.388 0 00-3.564 2.389c-.56.947-1.266 1.807-1.9 2.709-1.567 2.226-2.764 4.7-5.641 5.8-.984.376-1.517 1.93-2.5 3.282"/><path data-name="パス 651" d="M350.767 207.105c-1.756-.132-3.249-.125-4.7-.376a8.584 8.584 0 01-6.71-11.341 5.573 5.573 0 012.426-2.842 75.039 75.039 0 019.646-4.251 9.512 9.512 0 014.9-.062c2.967.642 3.441 2.638 1.638 5.834a3.014 3.014 0 01-1.047.079c-1.551-.461-2.605-2.046-4.55-1.727a15.363 15.363 0 00-6.986 3.245c-1.465 1.139-1.568 2.83-1.19 4.573a3.512 3.512 0 003.117 2.777 14.178 14.178 0 004.4 0c2.008-.305 3.954-1.013 5.961-1.325a14.717 14.717 0 013.461.35c-.427 2.983-1.409 5.107-3.87 6.52-3.927 2.255-6.656 5.874-9.794 9.006a13.146 13.146 0 00-2.51 4.277c-.931 2.234-.149 4.231 2.218 4.855a20.939 20.939 0 007.638.848 67.634 67.634 0 0019.272-5.176c7.628-3.372 15.216-6.834 22.812-10.275 1.03-.466 2.082-1.015 3.068-.125.953.86.727 2.019.378 3.107a8.212 8.212 0 01-.573 1.111 140.506 140.506 0 00-19.892 8.122 83.214 83.214 0 01-17.746 6.387c-4.72 1.071-9.487 1.77-14.332.794a20.894 20.894 0 01-2.173-.464c-5.93-1.875-8.113-5.709-4.8-11.429a29.215 29.215 0 016.085-7.153c1.636-1.456 3.284-2.865 3.86-5.34"/><path data-name="パス 661" d="M308.937 208.354c-2.749-.992-4.552-1.471-6.19-2.284a21.071 21.071 0 01-4.607-2.993 4.269 4.269 0 01-.362-6.4c5.888-5.812 12.406-10.63 20.9-11.86a12.87 12.87 0 013.833.111 1.82 1.82 0 011.628 1.93c-.383 1.139-1.414 1.015-2.274 1.062-6.553.361-12.133 3.136-17.317 6.905a10.3 10.3 0 00-1.681 1.446c-2.241 2.53-1.858 4.551 1.173 6.242a13.355 13.355 0 0010.175 1.6c1.485-.388 2.915-.765 3.975.861a5.865 5.865 0 01-3.742 5.015q-1.506.721-3 1.456a21.055 21.055 0 00-8.669 7.577 1.709 1.709 0 001.935 2.11 29.026 29.026 0 006.044-.748c5.034-1.258 10.017-2.712 15.025-4.075a4.5 4.5 0 012.118-.375c.526.149 1.3 1.048 1.212 1.463a4.348 4.348 0 01-3.489 3.816c-4.9 1.029-9.76 2.207-14.658 3.222a53.158 53.158 0 01-6.057.8 9.3 9.3 0 01-5.844-1.444c-2.874-1.787-3.117-4.708-.547-6.844 3.26-2.709 6.537-5.4 10.421-8.6"/><path data-name="パス 663" d="M240.23 197.27a29.942 29.942 0 01-1.052 4.521 102.23 102.23 0 00-3.992 14.41c-1.222 5.4-3.106 10.645-4.635 15.977-3.01 10.495-6.052 20.982-8.906 31.52-.8 2.957-2.3 5.915-1.206 9.159-1.072 3.714-1.8 7.573-4.053 10.816a3.145 3.145 0 01-2.325.976c-.951-.008-1.8-1.552-1.531-2.6a26.03 26.03 0 011.373-4.215c2.346-5.263 3.622-10.864 5.239-16.354a1080.025 1080.025 0 005.716-20.23q2.925-10.694 5.691-21.432c1.478-5.728 2.725-11.519 4.335-17.209a25.745 25.745 0 00.631-6.581 2.231 2.231 0 012.163-2.1 2.522 2.522 0 012.433 1.89c.059.362.063.732.119 1.451"/><path data-name="パス 665" d="M258.099 182.008c-3.9.868-7.5 1.641-11.085 2.476-3.783.88-7.537 1.891-11.333 2.712s-7.635 1.5-11.461 2.2a4.51 4.51 0 01-1.646-.068c-.99-.2-1.855-.8-1.671-1.838a4.641 4.641 0 011.353-2.183 2.479 2.479 0 011.571-.4c7.513-.182 14.535-2.816 21.787-4.3 3.261-.668 6.543-1.285 9.845-1.684 1.664-.2 2.864.666 2.641 3.089"/></g></g></g></g></g><g data-name="グループ 1951"><g data-name="グループ 114"><path data-name="パス 89" d="M207.875 13.356h-2.785V2.363h-4.04V0h10.863v2.363h-4.035z"/><path data-name="パス 90" d="M215.691 7.365v5.991h-2.789V0h2.789v5.063h5.206V0h2.793v13.356h-2.793V7.365z"/><path data-name="パス 91" d="M234.492 2.363h-7.014v2.808h6.182v2.363h-6.182v3.463h7.012v2.36h-9.612V0h9.614z"/><path data-name="パス 92" d="M182.278 14.728h2.606v13.356h-2.791l-5.448-9.523h-.04v9.523h-2.6V14.728h2.937l5.3 9.3h.044z"/><path data-name="パス 93" d="M192.567 14.374c1.77 0 6.418.763 6.418 7.031s-4.649 7.028-6.418 7.028-6.42-.764-6.42-7.028 4.654-7.031 6.42-7.031m0 11.7c1.509 0 3.625-.929 3.625-4.669s-2.117-4.668-3.625-4.668-3.626.932-3.626 4.668 2.124 4.669 3.626 4.669"/><path data-name="パス 94" d="M218.666 28.084h-2.787v-11h-4.042v-2.36h10.858v2.36h-4.03z"/><path data-name="パス 95" d="M226.49 22.096v5.986h-2.787V14.727h2.787v5.058h5.206v-5.058h2.794v13.355h-2.794v-5.986z"/><path data-name="パス 96" d="M200.145 14.728h6.756c3.551 0 4.2 2.622 4.2 3.78a3.2 3.2 0 01-2.068 3.181c1.1.482 1.694.889 1.694 3.382 0 1.953 0 2.439.595 2.662v.352h-3.091a9.005 9.005 0 01-.293-2.695c0-1.825-.109-2.53-2.18-2.53h-2.878v5.224h-2.737zm6.011 5.88c1.452 0 2.159-.5 2.159-1.824 0-.7-.321-1.746-1.953-1.746h-3.481v3.57z"/><path data-name="パス 97" d="M194.688 42.809h-2.786V29.454h9.5v2.364h-6.714v3.013h5.875v2.368h-5.875z"/><path data-name="パス 98" d="M202.658 42.809h-2.94l4.762-13.356h3.218l4.7 13.356h-3.033l-.855-2.755h-4.927zm1.676-5.058h3.4l-1.657-5.281h-.031z"/><path data-name="パス 99" d="M220.962 33.871a2.71 2.71 0 00-2.952-2.3c-1.341 0-3.318.892-3.318 4.667 0 2.4.952 4.561 3.318 4.561a2.846 2.846 0 002.952-2.516h2.788c-.556 2.9-2.448 4.928-5.8 4.928-3.554 0-6.1-2.393-6.1-7.011 0-4.667 2.694-7.049 6.144-7.049 3.993 0 5.606 2.756 5.757 4.722z"/><path data-name="パス 100" d="M234.492 31.818h-7.014v2.807h6.182v2.363h-6.182v3.463h7.012v2.359h-9.612V29.454h9.614z"/><path data-name="パス 101" d="M188.102 39.12a2.05 2.05 0 11-2.066 2.037 2.037 2.037 0 012.066-2.037m0 3.8a1.749 1.749 0 10-1.694-1.761 1.692 1.692 0 001.694 1.761m-.8-2.949h.926c.571 0 .838.224.838.685a.614.614 0 01-.63.651l.684 1.06h-.4l-.654-1.031h-.39v1.031h-.373zm.373 1.063h.388c.33 0 .63-.016.63-.393 0-.318-.273-.369-.526-.369h-.491z"/><path data-name="パス 102" d="M268.118 30.953A30.936 30.936 0 00237.164 0h-.614v13.356h.614a18.129 18.129 0 0118.139 17.92v11.535h12.815z"/><path data-name="パス 103" d="M237.159 29.453h-.612v13.356h6.406v-7.562a5.791 5.791 0 00-5.794-5.794"/><path data-name="パス 104" d="M253.931 31.432a16.769 16.769 0 00-16.756-16.7h-.63v13.353h.614a7.158 7.158 0 017.159 7.162v7.562h9.609z"/></g></g></g></svg>