<svg xmlns="http://www.w3.org/2000/svg" width="255.316" height="100.727"><g data-name="グループ 2114" fill="#fff"><path data-name="パス 743" d="M12.428 3.614c2.5.052 3.458.65 3.458 2.132 0 1.274-1.066 2.132-2.678 2.132-1.456 0-2.522-.624-4.108-2.366C5.694 1.56 4.212.7.494.546v10.348h3.2V4.316c.7.338.988.6 2.47 2.314a29.248 29.248 0 002.21 2.444 6.807 6.807 0 004.784 1.794c3.458 0 5.8-2.106 5.8-5.174a4.422 4.422 0 00-2.236-4.03 8.011 8.011 0 00-4.29-.936zm6.526 14.248a4.256 4.256 0 00-2.262-4.03c-1.378-.806-4.134-1.3-7.28-1.3-6.37 0-9.412 1.69-9.412 5.252a4.3 4.3 0 002.678 4.16 18.272 18.272 0 006.816 1.092 22.278 22.278 0 005.928-.754 5.876 5.876 0 002.028-1.066 4.18 4.18 0 001.504-3.354zm-2.912-.052c0 1.612-1.638 2.158-6.552 2.158-4.94 0-6.578-.546-6.578-2.184 0-1.612 1.638-2.184 6.318-2.184 5.252 0 6.812.494 6.812 2.21zm-3.614 9.516c2.5.052 3.458.65 3.458 2.132 0 1.274-1.066 2.132-2.678 2.132-1.456 0-2.522-.624-4.108-2.366-3.406-3.952-4.888-4.81-8.606-4.966v10.348h3.2v-6.578c.7.338.988.6 2.47 2.314a29.248 29.248 0 002.21 2.444 6.807 6.807 0 004.784 1.794c3.458 0 5.8-2.106 5.8-5.174a4.422 4.422 0 00-2.236-4.03 8.011 8.011 0 00-4.29-.936zm0 11.856c2.5.052 3.458.65 3.458 2.132 0 1.274-1.066 2.132-2.678 2.132-1.456 0-2.522-.624-4.108-2.366-3.406-3.952-4.888-4.81-8.606-4.966v10.348h3.2v-6.578c.7.338.988.6 2.47 2.314a29.25 29.25 0 002.21 2.444 6.807 6.807 0 004.784 1.794c3.458 0 5.8-2.106 5.8-5.174a4.422 4.422 0 00-2.236-4.03 8.011 8.011 0 00-4.29-.936z"/><path data-name="パス 421" d="M59.326 19.913c5.637 0 10-3.6 10-9.688 0-5.977-4.362-9.518-10-9.518s-10 3.541-10 9.518c.001 6.091 4.363 9.688 10 9.688zm0-3.654c-2.946 0-5.184-2.238-5.184-6.005 0-3.711 2.238-5.892 5.184-5.892s5.181 2.18 5.181 5.892c0 3.768-2.235 6.005-5.181 6.005zm11.359 3.371h4.306v-6.657c0-2.663 1.36-3.994 3.626-3.994 1.9 0 3.031.878 3.031 2.861v7.79h4.306v-8.753c0-3.626-2.181-5.467-5.552-5.467-3.173 0-4.815 1.275-5.524 3.937h-.057l.17-3.711h-4.306zm30.734-7.393c0-4.589-2.748-6.827-6.657-6.827-4.731 0-7.62 2.748-7.62 7.365 0 4.447 2.889 7.082 7.535 7.082 3.994 0 6.657-1.87 6.742-5.07h-3.8c-.112 1.355-1.185 1.955-2.857 1.955-1.926 0-3.088-.991-3.286-3.286h9.943zm-3.8-1.076H91.59a2.846 2.846 0 013.173-2.634c1.785 0 2.861.821 2.861 2.408zm11.274 8.47h4.646v-5.325h3.8c4.872 0 7.195-2.436 7.195-6.572 0-4.5-2.861-6.742-7.62-6.742h-8.017zm4.646-8.441V4.642h3.229c2.209 0 3.4 1.19 3.4 3.314 0 2.181-1.076 3.229-3.031 3.229zm12.152 8.441h4.306v-6.034c0-3.116 1.275-4.617 3.116-4.617 1.36 0 2.181.821 2.181 2.861 0 .425-.028 1.133-.085 1.813h3.909c.057-.736.142-1.983.142-2.776 0-3.626-1.671-5.467-4.532-5.467-2.748 0-4.249 1.558-4.844 4.221h-.057l.17-3.994h-4.302zm22.208.227c4.617 0 7.62-2.663 7.62-7.195 0-4.561-3-7.252-7.62-7.252s-7.62 2.691-7.62 7.252c.004 4.531 3.006 7.194 7.628 7.194zm0-3.286c-2.1 0-3.314-1.445-3.314-3.909 0-2.493 1.218-3.966 3.314-3.966s3.314 1.473 3.314 3.966c.004 2.463-1.214 3.908-3.306 3.908zm15.268 3.286c2.549 0 4.136-1.246 4.674-3.229h.057c-.085 1.5-.142 2.719-.17 3h4.306V-.001h-4.306v7.7h-.021c-.623-1.445-2.1-2.294-4.362-2.294-4.079 0-6.742 2.833-6.742 7.11-.004 4.396 2.517 7.342 6.568 7.342zm.991-3.286c-1.983 0-3.286-1.643-3.286-4.022 0-2.323 1.331-3.852 3.343-3.852a3.265 3.265 0 013.512 3.371v.68a3.492 3.492 0 01-3.565 3.822zm15.268 3.286c2.663 0 4.561-1.19 5.184-3.881h.057a49.01 49.01 0 01-.2 3.654h4.306V5.637h-4.306v6.062c0 3.059-1.388 4.589-3.711 4.589a2.576 2.576 0 01-2.918-2.861v-7.79h-4.306v8.3c.006 4.105 2.275 5.92 5.898 5.92zm17.817 0c4.136 0 7-2.1 7-6.118h-3.8a2.688 2.688 0 01-2.974 2.833c-1.9 0-3.031-1.473-3.031-3.937 0-2.549 1.1-3.937 3.116-3.937a2.671 2.671 0 012.861 2.889h3.8c0-3.881-2.691-6.175-6.8-6.175-4.306 0-7.28 2.691-7.28 7.252.002 4.529 2.92 7.192 7.112 7.192zm15.438 0a13.679 13.679 0 002.726-.316v-3.258a10.369 10.369 0 01-1.955.2c-1.7 0-2.379-.453-2.379-1.9V8.975h4.476V5.632h-4.476V2.459h-3.541l-.2 1.955c-.085.85-.312 1.218-.963 1.218h-1.672v3.343h2.068v5.835c0 3.121 1.558 5.047 5.92 5.047zM59.326 44.925c5.637 0 10-3.6 10-9.688 0-5.977-4.362-9.518-10-9.518s-10 3.541-10 9.518c.001 6.091 4.363 9.688 10 9.688zm0-3.654c-2.946 0-5.184-2.238-5.184-6.005 0-3.711 2.238-5.892 5.184-5.892s5.181 2.181 5.181 5.892c0 3.767-2.235 6.005-5.181 6.005zm11.359 3.371h4.306v-6.657c0-2.663 1.36-3.994 3.626-3.994 1.9 0 3.031.878 3.031 2.861v7.79h4.306v-8.753c0-3.626-2.181-5.467-5.552-5.467-3.173 0-4.815 1.275-5.524 3.937h-.057l.17-3.711h-4.306zm30.734-7.393c0-4.589-2.748-6.827-6.657-6.827-4.731 0-7.62 2.748-7.62 7.365 0 4.447 2.889 7.082 7.535 7.082 3.994 0 6.657-1.87 6.742-5.07h-3.8c-.113 1.36-1.19 1.955-2.861 1.955-1.926 0-3.088-.991-3.286-3.286h9.943zm-3.8-1.076H91.59a2.846 2.846 0 013.172-2.631c1.785 0 2.861.821 2.861 2.408zm15.811 8.469h4.646V29.657h5.269v-3.654h-15.213v3.654h5.3zm10.056 0h4.306v-6.034c0-3.116 1.275-4.617 3.116-4.617 1.36 0 2.181.821 2.181 2.861 0 .425-.028 1.133-.085 1.813h3.909c.057-.736.142-1.983.142-2.776 0-3.626-1.671-5.467-4.532-5.467-2.748 0-4.249 1.558-4.844 4.221h-.057l.17-3.994h-4.307zm28.865-7.393c0-4.589-2.748-6.827-6.657-6.827-4.73 0-7.62 2.748-7.62 7.365 0 4.447 2.889 7.082 7.535 7.082 3.994 0 6.657-1.87 6.742-5.07h-3.8c-.113 1.36-1.19 1.955-2.861 1.955-1.926 0-3.088-.991-3.286-3.286h9.943zm-3.8-1.076h-6.03a2.846 2.846 0 013.172-2.631c1.785 0 2.861.821 2.861 2.408zm19.156 1.076c0-4.589-2.748-6.827-6.657-6.827-4.73 0-7.62 2.748-7.62 7.365 0 4.447 2.889 7.082 7.535 7.082 3.994 0 6.657-1.87 6.742-5.07h-3.8c-.113 1.36-1.19 1.955-2.861 1.955-1.926 0-3.088-.991-3.286-3.286h9.947zm-3.8-1.076h-6.034a2.846 2.846 0 013.173-2.634c1.785 0 2.861.821 2.861 2.408zm11.076 8.47h4.306v-6.685c0-2.634 1.19-3.966 2.861-3.966 1.473 0 2.323.991 2.323 2.634v8.016h4.306v-6.77c0-2.578 1.19-3.881 2.889-3.881 1.473 0 2.323.991 2.323 2.634v8.017h4.306v-9.008c0-3.286-1.728-5.212-4.787-5.212a4.487 4.487 0 00-4.787 3.654h-.028c-.312-2.266-2.04-3.654-4.73-3.654a4.68 4.68 0 00-4.787 3.852h-.028l.142-3.626h-4.306zm38.779-7.393c0-4.589-2.748-6.827-6.657-6.827-4.73 0-7.62 2.748-7.62 7.365 0 4.447 2.889 7.082 7.535 7.082 3.994 0 6.657-1.87 6.742-5.07h-3.8c-.113 1.36-1.19 1.955-2.861 1.955-1.926 0-3.088-.991-3.286-3.286h9.943zm-3.8-1.076h-6.034a2.846 2.846 0 013.179-2.632c1.785 0 2.861.821 2.861 2.408zm19.149 1.076c0-4.589-2.748-6.827-6.657-6.827-4.73 0-7.62 2.748-7.62 7.365 0 4.447 2.889 7.082 7.535 7.082 3.994 0 6.657-1.87 6.742-5.07h-3.8c-.113 1.36-1.19 1.955-2.861 1.955-1.926 0-3.088-.991-3.286-3.286h9.943zm-3.8-1.076h-6.034a2.846 2.846 0 013.173-2.634c1.785 0 2.861.821 2.861 2.408zm12.237 8.7a13.679 13.679 0 002.719-.312v-3.258a10.369 10.369 0 01-1.955.2c-1.7 0-2.379-.453-2.379-1.9v-5.609h4.476v-3.343h-4.476v-3.173h-3.541l-.2 1.955c-.085.85-.312 1.218-.963 1.218h-1.671v3.343h2.068v5.835c.009 3.112 1.567 5.038 5.93 5.038zm10.452 0c4.787 0 7.308-1.728 7.308-4.674a3.18 3.18 0 00-1.558-2.776 9.867 9.867 0 00-3.994-.935 31.456 31.456 0 01-3.456-.425 1.156 1.156 0 01-1.02-1.246c0-.963.85-1.615 2.776-1.615 2.124 0 2.8.765 2.833 2.238h3.8c0-3.258-2.1-5.014-6.685-5.014-3.881 0-7 1.671-7 4.7a3.369 3.369 0 001.331 2.748 9.875 9.875 0 004.419 1.076 26.053 26.053 0 013.258.4c.736.17.991.567.991 1.076 0 1.02-.793 1.671-3.031 1.671-2.464 0-3.116-.85-3.116-2.153h-3.849c0 2.827 2.072 4.923 7 4.923zM50.355 69.653h8.809c4.7 0 7.11-2.011 7.11-5.439a4.133 4.133 0 00-3.367-4.305v-.028c1.671-.453 2.663-1.926 2.663-3.994 0-3.059-2.606-4.872-7-4.872h-8.215zM55 58.748v-4.362h3.541c2.011 0 2.946.85 2.946 2.238s-.935 2.124-2.606 2.124zm0 7.535v-4.731h4.051c1.785 0 2.8.878 2.8 2.181a2.408 2.408 0 01-2.687 2.549zm17.959 3.6c2.549 0 4.136-1.076 4.561-3.059h.028a28.375 28.375 0 01-.2 2.833h4.306v-8.5c0-3.739-2.606-5.722-7.053-5.722-4.249 0-6.742 1.671-6.742 4.5a7.017 7.017 0 00.057.821h3.966a5.876 5.876 0 01-.028-.595c0-1.133.935-1.813 2.549-1.813 1.983 0 2.946.68 2.946 2.379v.935h-4.56c-3.711 0-5.354 1.671-5.354 3.966 0 2.836 2.266 4.252 5.524 4.252zm.848-2.921c-1.558 0-2.493-.567-2.493-1.643 0-.793.708-1.331 1.87-1.331h4.164v.283c.002 1.7-1.301 2.691-3.541 2.691zm16.148 2.918c4.136 0 7-2.1 7-6.118h-3.8a2.688 2.688 0 01-2.974 2.833c-1.9 0-3.031-1.473-3.031-3.937 0-2.549 1.1-3.937 3.116-3.937a2.671 2.671 0 012.861 2.888h3.8c0-3.881-2.691-6.175-6.8-6.175-4.306 0-7.28 2.691-7.28 7.252-.002 4.531 2.916 7.194 7.108 7.194zm8.385-.227h4.306v-2.861l2.261-2.294 3.654 5.155h5.665l-6.232-7.9 5.892-6.09h-5.24l-5.973 6.739h-.028V50.023h-4.306zm29.856.227a13.679 13.679 0 002.719-.312v-3.257a10.369 10.369 0 01-1.955.2c-1.7 0-2.379-.453-2.379-1.9v-5.608h4.476V55.66h-4.476v-3.173h-3.541l-.2 1.955c-.085.85-.312 1.218-.963 1.218h-1.67v3.343h2.068v5.839c0 3.112 1.558 5.038 5.92 5.038zm10.877 0c4.617 0 7.62-2.663 7.62-7.195 0-4.561-3-7.252-7.62-7.252s-7.62 2.691-7.62 7.252c0 4.532 3.003 7.195 7.62 7.195zm0-3.286c-2.1 0-3.314-1.445-3.314-3.909 0-2.493 1.218-3.966 3.314-3.966s3.314 1.473 3.314 3.966c0 2.464-1.218 3.909-3.314 3.909zm22.888 3.343c6.657 0 8.441-2.833 8.441-6.005a4.013 4.013 0 00-2.04-3.8 16.113 16.113 0 00-4.787-1.275 26.374 26.374 0 01-4.249-.878c-.652-.283-.906-.793-.906-1.7 0-1.246 1.076-2.181 3.6-2.181 2.549 0 3.654 1.161 3.654 3.286h4.107c0-4.192-1.926-6.657-7.846-6.657-5.382 0-8.13 2.436-8.13 5.949a4.264 4.264 0 001.813 3.852 13.366 13.366 0 004.789 1.364 33.311 33.311 0 014.306.793 1.482 1.482 0 011.071 1.557c0 1.19-.708 2.323-3.852 2.323-3.116 0-3.937-1.3-3.937-3.314h-4.136c0 3.428 1.7 6.686 8.101 6.686zm16.713-.057c4.136 0 7-2.1 7-6.118h-3.8a2.688 2.688 0 01-2.974 2.833c-1.9 0-3.031-1.473-3.031-3.937 0-2.549 1.1-3.937 3.116-3.937a2.671 2.671 0 012.861 2.889h3.8c0-3.881-2.691-6.175-6.8-6.175-4.306 0-7.28 2.691-7.28 7.252-.003 4.53 2.915 7.193 7.107 7.193zm8.385-.227h4.306v-6.656c0-2.663 1.36-3.994 3.626-3.994 1.926 0 3.031.878 3.031 2.861v7.79h4.306V60.9c0-3.626-2.181-5.467-5.552-5.467-3.173 0-4.815 1.275-5.524 3.937h-.057c.085-1.048.17-2.634.17-3.173v-6.175h-4.306zm24.077.227c4.617 0 7.62-2.663 7.62-7.195 0-4.561-3-7.252-7.62-7.252s-7.62 2.691-7.62 7.252c-.001 4.532 3.002 7.195 7.619 7.195zm0-3.286c-2.1 0-3.314-1.445-3.314-3.909 0-2.493 1.218-3.966 3.314-3.966s3.314 1.473 3.314 3.966c-.001 2.464-1.219 3.909-3.315 3.909zm16.316 3.286c4.617 0 7.62-2.663 7.62-7.195 0-4.561-3-7.252-7.62-7.252s-7.62 2.691-7.62 7.252c-.001 4.532 3.002 7.195 7.619 7.195zm0-3.286c-2.1 0-3.314-1.445-3.314-3.909 0-2.493 1.218-3.966 3.314-3.966s3.314 1.473 3.314 3.966c-.001 2.464-1.219 3.909-3.315 3.909zm9.008 3.059h4.306v-19.63h-4.306zM59.156 94.948c5.127 0 8.668-2.889 8.668-7.167 0-.227 0-.538-.028-.906h-4.079a5.876 5.876 0 01.028.595c0 2.351-1.643 3.824-4.362 3.824-3 0-5.24-2.209-5.24-5.92 0-3.682 2.181-5.977 5.24-5.977 2.521 0 4.306 1.445 4.306 3.966 0 .142 0 .425-.028.736h4.046c.028-.255.057-.765.057-1.19 0-4.277-3.512-7.167-8.611-7.167-5.746 0-9.826 3.57-9.826 9.632 0 6.005 4.08 9.574 9.829 9.574zm15.381-.057c2.549 0 4.136-1.076 4.561-3.059h.028a28.375 28.375 0 01-.2 2.833h4.306v-8.5c0-3.739-2.606-5.722-7.053-5.722-4.249 0-6.742 1.671-6.742 4.5a7.017 7.017 0 00.057.821h3.966a5.876 5.876 0 01-.028-.595c0-1.133.935-1.813 2.549-1.813 1.983 0 2.946.68 2.946 2.379v.935h-4.56c-3.711 0-5.354 1.671-5.354 3.966.001 2.839 2.267 4.255 5.524 4.255zm.85-2.918c-1.558 0-2.493-.567-2.493-1.643 0-.793.708-1.331 1.87-1.331h4.164v.283c0 1.7-1.303 2.692-3.541 2.692zm9.291 2.691h4.306V87.98c0-2.634 1.19-3.966 2.861-3.966 1.473 0 2.323.991 2.323 2.634v8.016h4.306v-6.77c0-2.578 1.19-3.881 2.889-3.881 1.473 0 2.323.991 2.323 2.634v8.016h4.306v-9.006c0-3.286-1.728-5.212-4.787-5.212a4.487 4.487 0 00-4.787 3.654h-.028c-.312-2.266-2.039-3.654-4.73-3.654a4.68 4.68 0 00-4.787 3.852h-.028l.142-3.626h-4.309zm24.814 5.609h4.306v-5.3c0-.51-.085-1.9-.142-2.833h.028c.623 1.7 2.209 2.748 4.759 2.748 3.937 0 6.487-3 6.487-7.535 0-4.136-2.549-6.912-6.458-6.912-2.408 0-4.192 1.161-4.73 3.088h-.028l.085-2.861h-4.307zm7.931-8.668a3.293 3.293 0 01-3.626-3.343v-.62c0-2.351 1.445-3.909 3.6-3.909 1.955 0 3.258 1.53 3.258 3.8-.002 2.43-1.305 4.073-3.231 4.073zm13.484 3.286c2.549 0 4.136-1.076 4.561-3.059h.028a28.373 28.373 0 01-.2 2.833h4.311v-8.5c0-3.739-2.606-5.722-7.053-5.722-4.249 0-6.742 1.671-6.742 4.5a7.016 7.016 0 00.057.821h3.966a5.877 5.877 0 01-.028-.595c0-1.133.935-1.813 2.549-1.813 1.983 0 2.946.68 2.946 2.379v.935h-4.565c-3.711 0-5.354 1.671-5.354 3.966 0 2.839 2.266 4.255 5.524 4.255zm.85-2.918c-1.558 0-2.493-.567-2.493-1.643 0-.793.708-1.331 1.87-1.331h4.163v.283c0 1.7-1.303 2.692-3.54 2.692zm9.4-12.775h4.31v-3.427h-4.306zm0 15.466h4.31V80.672h-4.306zm16.15-2.549h-4.532c-.85 0-1.36-.368-1.36-.991a1.729 1.729 0 01.255-.906 11.744 11.744 0 002.323.227c4.136 0 6.572-1.841 6.572-4.985a4.629 4.629 0 00-.68-2.549 3.744 3.744 0 01-.312-1.275c0-.652.425-1.048 1.331-1.048a3.925 3.925 0 01.85.085v-2.721a6.733 6.733 0 00-1.558-.142c-1.785 0-2.946.68-2.946 1.841a2.186 2.186 0 00.821 1.586l-.028.057a8.508 8.508 0 00-4.051-.85c-4.107 0-6.543 1.87-6.543 5.014a4.441 4.441 0 002.294 4.051v.033a2.714 2.714 0 00-1.728 2.634 2.591 2.591 0 001.3 2.294v.028a2.5 2.5 0 00-2.521 2.549c0 2.323 2.918 3.682 7.846 3.682 4.844 0 7.7-1.7 7.7-4.9.009-2.326-1.86-3.714-5.033-3.714zm-3.314-8.951a2.212 2.212 0 012.521 2.294c0 1.416-.935 2.266-2.521 2.266a2.2 2.2 0 01-2.493-2.266 2.2 2.2 0 012.493-2.294zm.595 14.956c-2.209 0-3.512-.567-3.512-1.615 0-.793.68-1.275 1.841-1.275h3.314c1.246 0 1.813.425 1.813 1.19 0 1.106-1.275 1.701-3.456 1.701zm8.838-3.456h4.306v-6.656c0-2.663 1.36-3.994 3.626-3.994 1.9 0 3.031.878 3.031 2.861v7.79h4.306v-8.753c0-3.626-2.181-5.467-5.552-5.467-3.173 0-4.815 1.275-5.524 3.937h-.057l.17-3.711h-4.306z"/></g></svg>