<svg xmlns="http://www.w3.org/2000/svg" width="131.558" height="68.707"><g data-name="グループ 1055"><path data-name="パス 745" d="M6.692 1.652c1.344.028 1.862.35 1.862 1.148 0 .686-.574 1.148-1.442 1.148-.784 0-1.358-.336-2.212-1.274C3.066.546 2.266.084.266 0v5.572h1.722V2.03c.378.182.532.322 1.33 1.246a15.749 15.749 0 001.19 1.316 3.665 3.665 0 002.576.966 2.82 2.82 0 003.122-2.786A2.381 2.381 0 009.002.606a4.314 4.314 0 00-2.31-.5zm3.514 7.672a2.291 2.291 0 00-1.218-2.17 8.773 8.773 0 00-3.92-.7C1.638 6.454 0 7.364 0 9.282a2.317 2.317 0 001.442 2.24 9.839 9.839 0 003.668.584 12 12 0 003.192-.4 3.164 3.164 0 001.092-.574 2.251 2.251 0 00.812-1.808zm-1.568-.028c0 .868-.882 1.162-3.528 1.162s-3.544-.294-3.544-1.176.884-1.176 3.4-1.176c2.832 0 3.672.266 3.672 1.19zM6.692 14.42c1.344.028 1.862.35 1.862 1.148 0 .686-.574 1.148-1.442 1.148-.784 0-1.358-.336-2.212-1.274-1.834-2.128-2.634-2.59-4.634-2.674v5.572h1.722v-3.542c.378.182.532.322 1.33 1.246a15.749 15.749 0 001.19 1.316 3.665 3.665 0 002.576.966 2.82 2.82 0 003.122-2.786 2.381 2.381 0 00-1.2-2.17 4.314 4.314 0 00-2.31-.5zM4.62 21.306c-.014 1.33-.406 1.82-1.442 1.82-.966 0-1.61-.49-1.61-1.218s.574-1.148 1.624-1.162l.126-.014v-1.566a3.621 3.621 0 00-2.422.7 2.622 2.622 0 00-.9 2.086c0 1.68 1.3 2.828 3.206 2.828a2.279 2.279 0 002.324-1.246 2.085 2.085 0 001.96.994 2.494 2.494 0 002.72-2.576 2.415 2.415 0 00-1.19-2.184 3.71 3.71 0 00-2-.462v1.484c1.106.014 1.624.364 1.624 1.092 0 .644-.5 1.036-1.316 1.036-.882 0-1.3-.434-1.3-1.358v-.254z" fill="#fff"/><g data-name="グループ 2039"><g data-name="グループ 1145"><g data-name="グループ 1151" fill="#fff"><path data-name="パス 647" d="M32.936 17.284a6 6 0 01-4.708-2.054 10.129 10.129 0 01-2.129-6.505 10.166 10.166 0 012.128-6.551A6.034 6.034 0 0133.032.12a6.034 6.034 0 015.615 3.551 11.5 11.5 0 011.125 5.054 10.129 10.129 0 01-2.129 6.5 6 6 0 01-4.708 2.054m-.072-15.34c-2.972 0-4.97 2.718-4.97 6.762s2.026 6.763 5.042 6.763 5.042-2.718 5.042-6.763c0-4.108-2.008-6.762-5.114-6.762"/><path data-name="パス 648" d="M48.674 16.98a.18.18 0 01-.185-.176V9.551c0-2.25-.684-3.253-2.217-3.253-1.815 0-2.941 1.572-2.941 4.1v6.4a.18.18 0 01-.185.176H41.96a.181.181 0 01-.185-.176v-11.6a.181.181 0 01.185-.176h1.087a.18.18 0 01.185.176v1.185a.178.178 0 00.184.175.189.189 0 00.158-.084 3.387 3.387 0 013.057-1.8c2.167 0 3.409 1.489 3.409 4.086v8.034a.181.181 0 01-.18.186z"/><path data-name="パス 649" d="M56.736 17.192c-2.877 0-4.664-2.313-4.664-6.036 0-3.931 1.887-6.472 4.808-6.472a3.666 3.666 0 013.538 2.266 9.516 9.516 0 01.875 4.369.173.173 0 01-.054.131.186.186 0 01-.132.054h-6.784a.563.563 0 00-.4.166.517.517 0 00-.152.4 4.362 4.362 0 00.593 2.231 2.7 2.7 0 002.422 1.3 2.782 2.782 0 002.784-2.2.18.18 0 01.178-.143h1.168a.182.182 0 01.184.214 4.287 4.287 0 01-4.361 3.716m.073-10.9c-1.579 0-2.764 1.249-3.018 3.181a.512.512 0 00.136.416.57.57 0 00.417.179h4.737a.569.569 0 00.412-.176.509.509 0 00.14-.408 4.363 4.363 0 00-.619-2 2.564 2.564 0 00-2.2-1.19"/><path data-name="パス 650" d="M67.657 16.804V.555h5.626c2.472 0 4.133 1.836 4.133 4.568 0 2.9-1.622 4.775-4.133 4.775h-3.326a.541.541 0 00-.554.527v6.379a.181.181 0 01-.185.176h-1.382a.18.18 0 01-.184-.176m2.305-14.521a.541.541 0 00-.554.527v4.833a.541.541 0 00.554.527h2.673a2.645 2.645 0 002.99-2.978c0-1.958-.954-2.909-2.917-2.909z"/><path data-name="パス 651" d="M78.999 16.804v-11.6a.18.18 0 01.185-.176h1.086a.18.18 0 01.185.176v1.423a.178.178 0 00.185.174.185.185 0 00.163-.093c.833-1.457 1.517-1.938 2.62-1.938 1.033 0 1.572 1.5.608 1.925-.638.283-1.157-.11-1.472-.139-1.613-.145-2.007 1.5-2.007 3.384v6.864a.18.18 0 01-.185.176h-1.183a.18.18 0 01-.185-.176"/><path data-name="パス 652" d="M89.485 17.169c-2.774 0-4.712-2.558-4.712-6.22 0-3.747 1.923-6.266 4.785-6.266 2.731 0 4.64 2.567 4.64 6.243s-1.938 6.243-4.713 6.243m-.048-10.9c-1.845 0-3.038 1.826-3.038 4.652s1.212 4.652 3.086 4.652 3.087-1.826 3.087-4.652-1.23-4.652-3.135-4.652"/><path data-name="パス 653" d="M100.232 17.193c-2.7 0-4.446-2.567-4.446-6.541 0-3.625 1.641-5.967 4.181-5.967a3.088 3.088 0 012.908 1.8.186.186 0 00.162.091.178.178 0 00.185-.175V.732a.18.18 0 01.185-.176h1.183a.18.18 0 01.185.176v16.072a.18.18 0 01-.185.176h-1.087a.18.18 0 01-.185-.176v-1.221a.179.179 0 00-.186-.176.181.181 0 00-.16.092 2.846 2.846 0 01-2.74 1.694m.024-10.9c-1.888 0-2.845 1.511-2.845 4.492 0 3.059 1.037 4.813 2.845 4.813a2.564 2.564 0 002-.952 5.056 5.056 0 00.937-3.4c0-4.092-1.6-4.951-2.941-4.951"/><path data-name="パス 654" d="M110.556 17.192c-2.1 0-3.312-1.322-3.312-3.628v-8.36a.18.18 0 01.185-.176h1.183a.18.18 0 01.185.176v7.7c0 2.234 1.14 2.7 2.1 2.7 1.787 0 2.942-1.592 2.942-4.056V5.204a.18.18 0 01.185-.176h1.183a.18.18 0 01.185.176v11.6a.18.18 0 01-.185.176h-1.087a.18.18 0 01-.185-.176V15.42a.178.178 0 00-.184-.175.188.188 0 00-.162.09 3.087 3.087 0 01-3.03 1.857"/><path data-name="パス 655" d="M121.85 17.192c-2.76 0-4.543-2.369-4.543-6.036 0-3.931 1.887-6.472 4.808-6.472 2.252 0 3.506 1.376 3.833 4.205h-1.508c-.3-1.792-1.075-2.592-2.493-2.592-1.857 0-2.966 1.756-2.966 4.7 0 2.971 1.01 4.607 2.845 4.607 1.355 0 2.234-.949 2.612-2.822h1.508c-.42 2.928-1.8 4.412-4.1 4.412"/><path data-name="パス 656" d="M130.251 17.006c-1.321 0-1.935-.788-1.935-2.481V6.743a.542.542 0 00-.555-.527h-.847V5.029h.845a.542.542 0 00.555-.523V1.68h1.553v2.826a.542.542 0 00.555.527h1.135v1.183h-1.135a.542.542 0 00-.555.527v7.67c0 .712.33 1.029 1.071 1.029h.6v1.42a5.982 5.982 0 01-.68.08 2.808 2.808 0 01-.6.069"/></g></g><g data-name="グループ 1147"><g data-name="グループ 1150" fill="#fff"><path data-name="パス 657" d="M32.936 40.912a6 6 0 01-4.708-2.054 10.129 10.129 0 01-2.129-6.505 10.166 10.166 0 012.128-6.551 6.034 6.034 0 014.805-2.054 6.034 6.034 0 015.615 3.551 11.5 11.5 0 011.125 5.054 10.129 10.129 0 01-2.129 6.5 6 6 0 01-4.708 2.054m-.072-15.34c-2.972 0-4.97 2.718-4.97 6.762s2.026 6.763 5.042 6.763 5.042-2.718 5.042-6.763c0-4.108-2.008-6.762-5.114-6.762"/><path data-name="パス 658" d="M48.674 40.608a.18.18 0 01-.185-.176v-7.253c0-2.25-.684-3.253-2.217-3.253-1.815 0-2.941 1.572-2.941 4.1v6.4a.18.18 0 01-.185.176H41.96a.181.181 0 01-.185-.176v-11.6a.181.181 0 01.185-.176h1.087a.18.18 0 01.185.176v1.185a.178.178 0 00.184.175.189.189 0 00.158-.084 3.387 3.387 0 013.057-1.8c2.167 0 3.409 1.489 3.409 4.086v8.034a.181.181 0 01-.18.186z"/><path data-name="パス 659" d="M56.736 40.82c-2.877 0-4.664-2.313-4.664-6.036 0-3.931 1.887-6.472 4.808-6.472a3.666 3.666 0 013.538 2.266 9.516 9.516 0 01.875 4.369.173.173 0 01-.054.131.186.186 0 01-.132.054h-6.784a.563.563 0 00-.4.166.517.517 0 00-.152.4 4.362 4.362 0 00.593 2.231 2.7 2.7 0 002.422 1.3 2.782 2.782 0 002.784-2.2.18.18 0 01.178-.143h1.168a.182.182 0 01.184.214 4.287 4.287 0 01-4.361 3.716m.073-10.9c-1.579 0-2.764 1.249-3.018 3.181a.512.512 0 00.136.416.57.57 0 00.417.179h4.737a.569.569 0 00.412-.176.509.509 0 00.14-.408 4.363 4.363 0 00-.619-2 2.564 2.564 0 00-2.2-1.19"/><path data-name="パス 660" d="M75.86 40.432v-11.6a.18.18 0 01.185-.176h1.086a.18.18 0 01.185.176v1.423a.178.178 0 00.185.174.185.185 0 00.163-.093c.833-1.457 1.517-1.938 2.62-1.938 1.033 0 1.572 1.5.608 1.925-.638.283-1.157-.11-1.472-.139-1.613-.145-2.007 1.5-2.007 3.384v6.864a.18.18 0 01-.185.176h-1.183a.18.18 0 01-.185-.176"/><path data-name="パス 661" d="M69.101 40.608V26.53a.542.542 0 00-.555-.527h-4.274v-1.819h11.38v1.819h-4.25a.542.542 0 00-.555.527v14.078z"/><path data-name="パス 662" d="M86.444 40.82c-2.877 0-4.664-2.313-4.664-6.036 0-3.931 1.887-6.472 4.808-6.472a3.666 3.666 0 013.538 2.266 9.516 9.516 0 01.875 4.369.173.173 0 01-.054.131.186.186 0 01-.132.054h-6.784a.563.563 0 00-.4.166.517.517 0 00-.152.4 4.362 4.362 0 00.593 2.231 2.7 2.7 0 002.422 1.3 2.782 2.782 0 002.784-2.2.18.18 0 01.178-.143h1.165a.182.182 0 01.184.214 4.287 4.287 0 01-4.361 3.716m.073-10.9c-1.579 0-2.764 1.249-3.018 3.181a.512.512 0 00.136.416.57.57 0 00.417.179h4.736a.569.569 0 00.412-.176.508.508 0 00.14-.408 4.363 4.363 0 00-.619-2 2.564 2.564 0 00-2.2-1.19"/><path data-name="パス 663" d="M97.234 40.82c-2.877 0-4.664-2.313-4.664-6.036 0-3.931 1.887-6.472 4.808-6.472a3.666 3.666 0 013.538 2.266 9.516 9.516 0 01.875 4.369.173.173 0 01-.054.131.186.186 0 01-.132.054H94.82a.563.563 0 00-.4.166.517.517 0 00-.152.4 4.362 4.362 0 00.593 2.231 2.7 2.7 0 002.422 1.3 2.782 2.782 0 002.784-2.2.18.18 0 01.178-.143h1.168a.182.182 0 01.184.214 4.287 4.287 0 01-4.361 3.716m.073-10.9c-1.579 0-2.764 1.249-3.018 3.181a.512.512 0 00.136.416.57.57 0 00.417.179h4.736a.569.569 0 00.412-.176.508.508 0 00.14-.408 4.363 4.363 0 00-.619-2 2.564 2.564 0 00-2.2-1.19"/></g></g><g data-name="グループ 1149"><g data-name="グループ 1152" fill="#fff"><path data-name="パス 664" d="M32.407 64.095c-3.891 0-6.308-3.28-6.308-8.562 0-5.308 2.509-8.608 6.549-8.608a5.4 5.4 0 014.823 2.571 5.627 5.627 0 01.864 2.442.181.181 0 01-.184.2h-1.323a.186.186 0 01-.179-.137 3.978 3.978 0 00-1.306-2.361 4.186 4.186 0 00-2.644-.895c-3.007 0-4.8 2.563-4.8 6.857 0 4.24 1.706 6.673 4.681 6.673a3.732 3.732 0 003.217-1.714 6.477 6.477 0 001.002-2.636.186.186 0 01.181-.144h1.3a.182.182 0 01.182.212c-.458 2.324-.982 3.476-2.016 4.48a5.6 5.6 0 01-4.04 1.625"/><path data-name="パス 665" d="M43.323 64.003a3.115 3.115 0 01-3.217-3.423 3.342 3.342 0 013.062-3.63s2.28-.241 3.022-.347c.7-.1.848-.6.848-1.53 0-1.383-.836-2.084-2.484-2.084a2.209 2.209 0 00-2.5 2.168.183.183 0 01-.181.149h-1.058a.182.182 0 01-.185-.191 4 4 0 01.6-2.085 3.872 3.872 0 013.445-1.54c2.422 0 3.868 1.219 3.868 3.262v6.906c0 .508.236.8.648.8a1.966 1.966 0 00.511-.07v1.167a1.5 1.5 0 01-.922.334c-1.073 0-1.526-.419-1.673-1.549a.179.179 0 00-.183-.154.189.189 0 00-.143.065 4.23 4.23 0 01-3.46 1.753m3.465-6.379a15.061 15.061 0 01-2.917.69c-1.617.256-2.138.846-2.138 2.082 0 1.359.694 2.107 1.952 2.107a3.169 3.169 0 003.3-2.91v-1.792c0-.1.024-.256-.2-.178"/><path data-name="パス 666" d="M81.587 64.003a3.115 3.115 0 01-3.217-3.423 3.342 3.342 0 013.062-3.63s2.28-.241 3.022-.347c.7-.1.848-.6.848-1.53 0-1.383-.836-2.084-2.484-2.084a2.209 2.209 0 00-2.5 2.168.183.183 0 01-.181.149h-1.06a.182.182 0 01-.185-.191 4 4 0 01.6-2.085 3.872 3.872 0 013.447-1.541c2.422 0 3.868 1.219 3.868 3.262v6.906c0 .508.236.8.648.8a1.966 1.966 0 00.511-.07v1.167a1.5 1.5 0 01-.922.334c-1.073 0-1.526-.419-1.673-1.549a.179.179 0 00-.183-.154.189.189 0 00-.143.065 4.23 4.23 0 01-3.46 1.753m3.465-6.379a15.061 15.061 0 01-2.917.69c-1.617.256-2.138.846-2.138 2.082 0 1.359.694 2.107 1.952 2.107a3.169 3.169 0 003.3-2.91v-1.791c0-.1.024-.256-.2-.178"/><path data-name="パス 667" d="M64.029 63.791v-7.8c0-1.943-.646-2.887-1.976-2.887-1.447 0-2.58 1.46-2.58 3.323v7.363h-1.554v-8.35c0-1.463-.64-2.337-1.711-2.337-1.728 0-2.846 1.611-2.846 4.1v6.583h-1.553V52.011a.18.18 0 01.185-.176h1.088a.18.18 0 01.185.176v1.184a.178.178 0 00.185.174.187.187 0 00.158-.084 3.308 3.308 0 012.962-1.795 2.626 2.626 0 012.58 1.764.19.19 0 00.316.031c1.1-1.409 1.735-1.795 2.948-1.795 1.983 0 3.167 1.476 3.167 3.95v8.35z"/><path data-name="パス 668" d="M68.024 68.233V52.011a.18.18 0 01.185-.176h1.087a.18.18 0 01.185.176v1.184a.178.178 0 00.184.174.187.187 0 00.159-.085 3.116 3.116 0 012.914-1.793c2.5 0 4.182 2.4 4.182 5.969 0 3.975-1.736 6.543-4.423 6.543a2.826 2.826 0 01-2.577-1.366.19.19 0 00-.157-.082.178.178 0 00-.185.175v5.5a.18.18 0 01-.185.176h-1.184a.18.18 0 01-.185-.176m4.351-15.128c-1.309 0-2.87.875-2.87 5.044 0 2.63 1.127 4.264 2.942 4.264s2.846-1.763 2.846-4.837c0-2.966-.982-4.471-2.919-4.471"/><path data-name="パス 669" d="M89.987 63.616v-11.6a.18.18 0 01.185-.176h1.184a.18.18 0 01.185.176v11.6a.18.18 0 01-.185.176h-1.184a.18.18 0 01-.185-.176"/><path data-name="パス 670" d="M98.057 68.707a4.223 4.223 0 01-2.5-.717 3.463 3.463 0 01-1.332-2.477.18.18 0 01.182-.209h1.192a.184.184 0 01.177.134 2.146 2.146 0 002.358 1.771 2.612 2.612 0 002.6-1.4 5.962 5.962 0 00.468-2.906v-.486c0-.271-.129-.112-.173-.039a2.937 2.937 0 01-2.769 1.63c-2.673 0-4.4-2.568-4.4-6.543 0-3.57 1.681-5.969 4.182-5.969a3.116 3.116 0 012.913 1.793.188.188 0 00.16.085.177.177 0 00.184-.174v-1.189a.18.18 0 01.185-.176h1.087a.18.18 0 01.185.176V62.76a7.43 7.43 0 01-.832 4.063 4.181 4.181 0 01-3.857 1.884m.266-15.6c-1.3 0-2.846.78-2.846 4.493 0 3.06 1.037 4.815 2.846 4.815a2.565 2.565 0 002-.952 5.059 5.059 0 00.937-3.4c0-4.093-1.6-4.952-2.942-4.952"/><path data-name="パス 671" d="M112.013 63.791a.18.18 0 01-.185-.176v-7.256c0-2.251-.684-3.254-2.218-3.254-1.815 0-2.942 1.572-2.942 4.1v6.412a.18.18 0 01-.185.176h-1.184a.181.181 0 01-.185-.176v-11.6a.181.181 0 01.185-.176h1.088a.18.18 0 01.185.176v1.185a.178.178 0 00.184.174.189.189 0 00.159-.085 3.387 3.387 0 013.058-1.8c2.167 0 3.409 1.49 3.409 4.088v8.038a.18.18 0 01-.185.176z"/><path data-name="パス 672" d="M90.763 49.844a1.09 1.09 0 01-1.115-1.06 1.117 1.117 0 012.231 0 1.09 1.09 0 01-1.115 1.06"/></g></g></g></g></svg>