<svg xmlns="http://www.w3.org/2000/svg" width="175.182" height="72.411"><g data-name="グループ 1055" fill="#fff"><path data-name="パス 746" d="M6.692 2.152c1.344.028 1.862.35 1.862 1.148 0 .686-.574 1.148-1.442 1.148-.784 0-1.358-.336-2.212-1.274C3.066 1.046 2.266.584.266.5v5.572h1.722V2.53c.378.182.532.322 1.33 1.246a15.749 15.749 0 001.19 1.316 3.665 3.665 0 002.576.966 2.82 2.82 0 003.122-2.786 2.381 2.381 0 00-1.204-2.166 4.314 4.314 0 00-2.31-.5zm3.514 7.672a2.291 2.291 0 00-1.218-2.17 8.773 8.773 0 00-3.92-.7C1.638 6.954 0 7.864 0 9.782a2.317 2.317 0 001.442 2.24 9.839 9.839 0 003.668.584 12 12 0 003.192-.4 3.164 3.164 0 001.092-.574 2.251 2.251 0 00.812-1.808zm-1.568-.028c0 .868-.882 1.162-3.528 1.162s-3.544-.294-3.544-1.176.884-1.176 3.4-1.176c2.832 0 3.672.266 3.672 1.19zM6.692 14.92c1.344.028 1.862.35 1.862 1.148 0 .686-.574 1.148-1.442 1.148-.784 0-1.358-.336-2.212-1.274-1.834-2.128-2.634-2.59-4.634-2.674v5.572h1.722v-3.542c.378.182.532.322 1.33 1.246a15.749 15.749 0 001.19 1.316 3.665 3.665 0 002.576.966 2.82 2.82 0 003.122-2.786 2.381 2.381 0 00-1.2-2.17 4.314 4.314 0 00-2.31-.5zm0 6.384c1.344.028 1.862.35 1.862 1.148 0 .686-.574 1.148-1.442 1.148-.784 0-1.358-.336-2.212-1.274-1.834-2.128-2.634-2.59-4.634-2.674v5.572h1.722v-3.542c.378.182.532.322 1.33 1.246a15.75 15.75 0 001.19 1.316 3.665 3.665 0 002.576.962 2.82 2.82 0 003.122-2.782 2.381 2.381 0 00-1.2-2.17 4.314 4.314 0 00-2.31-.5z"/><path data-name="パス 590" d="M34.287 14.316c4.052 0 7.188-2.586 7.188-6.964 0-4.3-3.136-6.842-7.188-6.842s-7.188 2.545-7.188 6.841c0 4.378 3.136 6.965 7.188 6.965zm0-2.627c-2.118 0-3.727-1.609-3.727-4.317 0-2.668 1.609-4.236 3.727-4.236s3.727 1.568 3.727 4.236c0 2.708-1.609 4.317-3.727 4.317zm8.166 2.423h3.1V9.327c0-1.914.977-2.871 2.607-2.871 1.364 0 2.179.631 2.179 2.057v5.6h3.1V7.821c0-2.607-1.568-3.93-3.991-3.93-2.281 0-3.462.916-3.971 2.831h-.041l.122-2.668h-3.1zm22.094-5.315c0-3.3-1.975-4.908-4.785-4.908-3.4 0-5.478 1.975-5.478 5.295 0 3.2 2.077 5.091 5.417 5.091 2.871 0 4.785-1.344 4.847-3.645h-2.729c-.081.977-.855 1.405-2.057 1.405-1.385 0-2.22-.713-2.362-2.362h7.148zm-2.729-.774h-4.339a2.046 2.046 0 012.281-1.894c1.283 0 2.057.591 2.057 1.731zm8.1 6.089h3.34v-3.828h2.729c3.5 0 5.172-1.751 5.172-4.724 0-3.238-2.057-4.847-5.478-4.847h-5.758zm3.34-6.068v-4.7h2.321a2.176 2.176 0 012.444 2.383c0 1.568-.774 2.321-2.179 2.321zm8.741 6.068h3.1V9.775c0-2.24.916-3.319 2.24-3.319.977 0 1.568.591 1.568 2.057 0 .305-.02.815-.061 1.3h2.81c.041-.529.1-1.425.1-2 0-2.607-1.2-3.93-3.258-3.93-1.975 0-3.055 1.12-3.482 3.034h-.041l.122-2.871h-3.1zm15.965.163c3.319 0 5.478-1.914 5.478-5.172 0-3.279-2.159-5.213-5.478-5.213s-5.478 1.935-5.478 5.213c0 3.258 2.159 5.172 5.478 5.172zm0-2.362c-1.507 0-2.383-1.039-2.383-2.81 0-1.792.876-2.851 2.383-2.851s2.383 1.059 2.383 2.851c-.001 1.771-.876 2.81-2.383 2.81zm10.976 2.362a3.151 3.151 0 003.36-2.321h.041c-.061 1.079-.1 1.955-.122 2.159h3.1V0h-3.1v5.542h-.02c-.448-1.039-1.507-1.649-3.136-1.649-2.932 0-4.847 2.036-4.847 5.111-.001 3.153 1.812 5.271 4.724 5.271zm.713-2.362c-1.425 0-2.362-1.181-2.362-2.892 0-1.67.957-2.769 2.4-2.769a2.347 2.347 0 012.525 2.423v.489a2.51 2.51 0 01-2.563 2.749zm10.976 2.362a3.431 3.431 0 003.727-2.79h.041c-.02 1.1-.081 1.935-.143 2.627h3.1V4.052h-3.1V8.41c0 2.2-1 3.3-2.668 3.3a1.852 1.852 0 01-2.1-2.057v-5.6h-3.1v5.966c.007 2.953 1.636 4.256 4.242 4.256zm12.809 0c2.973 0 5.03-1.507 5.03-4.4h-2.729a1.932 1.932 0 01-2.138 2.036c-1.364 0-2.179-1.059-2.179-2.831 0-1.833.794-2.831 2.24-2.831a1.92 1.92 0 012.057 2.077h2.729c0-2.79-1.935-4.439-4.887-4.439a4.88 4.88 0 00-5.233 5.213 4.806 4.806 0 005.109 5.175zm11.1 0a9.834 9.834 0 001.955-.224v-2.342a7.454 7.454 0 01-1.405.143c-1.222 0-1.711-.326-1.711-1.364V6.456h3.217v-2.4h-3.215V1.772h-2.55l-.143 1.405c-.061.611-.224.876-.692.876h-1.2v2.4h1.485v4.195c0 2.242 1.12 3.627 4.256 3.627zM34.287 32.296c4.052 0 7.188-2.586 7.188-6.964 0-4.3-3.136-6.842-7.188-6.842s-7.188 2.545-7.188 6.842c0 4.378 3.136 6.964 7.188 6.964zm0-2.627c-2.118 0-3.727-1.609-3.727-4.317 0-2.668 1.609-4.236 3.727-4.236s3.727 1.568 3.727 4.236c0 2.708-1.609 4.317-3.727 4.317zm8.166 2.423h3.1v-4.785c0-1.914.977-2.871 2.607-2.871 1.364 0 2.179.631 2.179 2.057v5.6h3.1v-6.292c0-2.607-1.568-3.93-3.991-3.93-2.281 0-3.462.916-3.971 2.831h-.041l.122-2.668h-3.1zm22.094-5.315c0-3.3-1.975-4.908-4.785-4.908-3.4 0-5.478 1.975-5.478 5.295 0 3.2 2.077 5.091 5.417 5.091 2.871 0 4.785-1.344 4.847-3.645h-2.729c-.081.977-.855 1.405-2.057 1.405-1.385 0-2.22-.713-2.362-2.362h7.148zm-2.729-.774h-4.339a2.046 2.046 0 012.281-1.894c1.283 0 2.057.591 2.057 1.731zm11.361 6.089h3.34V21.32h3.79v-2.627H69.374v2.627h3.805zm7.229 0h3.1v-4.337c0-2.24.916-3.319 2.24-3.319.977 0 1.568.591 1.568 2.057 0 .305-.02.815-.061 1.3h2.81c.041-.529.1-1.425.1-2 0-2.607-1.2-3.93-3.258-3.93-1.975 0-3.055 1.12-3.482 3.034h-.046l.122-2.871h-3.1zm20.75-5.315c0-3.3-1.975-4.908-4.785-4.908-3.4 0-5.478 1.975-5.478 5.295 0 3.2 2.077 5.091 5.417 5.091 2.871 0 4.785-1.344 4.847-3.645h-2.727c-.081.977-.855 1.405-2.057 1.405-1.385 0-2.22-.713-2.362-2.362h7.148zm-2.729-.774h-4.334a2.046 2.046 0 012.284-1.893c1.283 0 2.057.591 2.057 1.731zm13.766.774c0-3.3-1.975-4.908-4.785-4.908-3.4 0-5.478 1.975-5.478 5.295 0 3.2 2.077 5.091 5.417 5.091 2.871 0 4.785-1.344 4.847-3.645h-2.727c-.081.977-.855 1.405-2.057 1.405-1.385 0-2.22-.713-2.362-2.362h7.148zm-2.729-.774h-4.334a2.046 2.046 0 012.281-1.894c1.283 0 2.057.591 2.057 1.731zm7.962 6.089h3.1v-4.806c0-1.894.855-2.851 2.057-2.851 1.059 0 1.67.713 1.67 1.894v5.763h3.1v-4.867c0-1.853.855-2.79 2.077-2.79 1.059 0 1.67.713 1.67 1.894v5.763h3.1v-6.476c0-2.362-1.242-3.747-3.441-3.747a3.226 3.226 0 00-3.441 2.627h-.02c-.224-1.629-1.466-2.627-3.4-2.627a3.365 3.365 0 00-3.455 2.773h-.02l.1-2.607h-3.1zm27.878-5.315c0-3.3-1.975-4.908-4.785-4.908-3.4 0-5.478 1.975-5.478 5.295 0 3.2 2.077 5.091 5.417 5.091 2.871 0 4.785-1.344 4.847-3.645h-2.728c-.081.977-.855 1.405-2.057 1.405-1.385 0-2.22-.713-2.362-2.362h7.148zm-2.729-.774h-4.337a2.046 2.046 0 012.281-1.894c1.283 0 2.057.591 2.057 1.731zm13.766.774c0-3.3-1.975-4.908-4.785-4.908-3.4 0-5.478 1.975-5.478 5.295 0 3.2 2.077 5.091 5.417 5.091 2.871 0 4.785-1.344 4.847-3.645h-2.729c-.081.977-.855 1.405-2.057 1.405-1.385 0-2.22-.713-2.362-2.362h7.148zm-2.729-.774h-4.335a2.046 2.046 0 012.281-1.894c1.283 0 2.057.591 2.057 1.731zm8.8 6.252a9.834 9.834 0 001.955-.224v-2.342a7.454 7.454 0 01-1.405.143c-1.222 0-1.711-.326-1.711-1.364v-4.032h3.217v-2.4h-3.217v-2.284h-2.545l-.143 1.405c-.061.611-.224.876-.692.876h-1.2v2.4h1.487v4.195c-.002 2.243 1.119 3.627 4.254 3.627zm7.514 0c3.441 0 5.254-1.242 5.254-3.36a2.286 2.286 0 00-1.12-2 7.093 7.093 0 00-2.871-.672 22.614 22.614 0 01-2.484-.305.831.831 0 01-.733-.9c0-.692.611-1.161 2-1.161 1.527 0 2.016.55 2.036 1.609h2.729c0-2.342-1.507-3.6-4.806-3.6-2.79 0-5.03 1.2-5.03 3.38a2.422 2.422 0 00.957 1.975 7.1 7.1 0 003.177.774 18.73 18.73 0 012.342.285c.529.122.713.407.713.774 0 .733-.57 1.2-2.179 1.2-1.772 0-2.24-.611-2.24-1.548h-2.774c0 2.042 1.486 3.549 5.029 3.549zM27.838 50.073h6.333c3.38 0 5.111-1.446 5.111-3.91a2.971 2.971 0 00-2.423-3.1v-.02a2.715 2.715 0 001.914-2.871c0-2.2-1.873-3.5-5.03-3.5h-5.905zm3.34-7.84v-3.136h2.545c1.446 0 2.118.611 2.118 1.609s-.672 1.527-1.873 1.527zm0 5.417v-3.4h2.911c1.283 0 2.016.631 2.016 1.568a1.731 1.731 0 01-1.935 1.833zm12.91 2.586c1.833 0 2.973-.774 3.279-2.2h.02a20.4 20.4 0 01-.143 2.036h3.1v-6.109c0-2.688-1.873-4.113-5.071-4.113-3.055 0-4.847 1.2-4.847 3.238a5.044 5.044 0 00.041.591h2.851a4.224 4.224 0 01-.02-.428c0-.815.672-1.3 1.833-1.3 1.425 0 2.118.489 2.118 1.711v.672h-3.283c-2.668 0-3.849 1.2-3.849 2.851 0 2.033 1.629 3.051 3.971 3.051zm.611-2.094c-1.12 0-1.792-.407-1.792-1.181 0-.57.509-.957 1.344-.957h2.993v.2c0 1.222-.937 1.938-2.545 1.938zm11.607 2.1c2.973 0 5.03-1.507 5.03-4.4h-2.729a1.932 1.932 0 01-2.138 2.036c-1.364 0-2.179-1.059-2.179-2.831 0-1.833.794-2.831 2.24-2.831a1.92 1.92 0 012.057 2.077h2.729c0-2.79-1.935-4.439-4.887-4.439a4.88 4.88 0 00-5.233 5.213 4.806 4.806 0 005.11 5.169zm6.028-.163h3.1v-2.057l1.629-1.649 2.627 3.706h4.073l-4.484-5.687 4.236-4.378h-3.769l-4.3 4.847h-.02v-8.9h-3.1zm21.463.163a9.834 9.834 0 001.955-.224v-2.342a7.454 7.454 0 01-1.405.143c-1.222 0-1.711-.326-1.711-1.364v-4.032h3.217v-2.4h-3.217v-2.281H80.09l-.142 1.4c-.061.611-.224.876-.692.876h-1.2v2.4h1.487v4.195c-.002 2.238 1.118 3.623 4.254 3.623zm7.82 0c3.319 0 5.478-1.914 5.478-5.172 0-3.279-2.159-5.213-5.478-5.213s-5.478 1.935-5.478 5.213c-.001 3.252 2.158 5.166 5.477 5.166zm0-2.362c-1.507 0-2.383-1.039-2.383-2.81 0-1.792.876-2.851 2.383-2.851S94 43.278 94 45.07c-.001 1.765-.877 2.804-2.384 2.804zm16.454 2.4c4.785 0 6.068-2.036 6.068-4.317a2.885 2.885 0 00-1.466-2.729 11.584 11.584 0 00-3.441-.916 18.96 18.96 0 01-3.055-.631c-.468-.2-.652-.57-.652-1.222 0-.9.774-1.568 2.586-1.568 1.833 0 2.627.835 2.627 2.362h2.953c0-3.014-1.385-4.785-5.641-4.785-3.869 0-5.844 1.751-5.844 4.276a3.066 3.066 0 001.3 2.769 9.609 9.609 0 003.441.977 23.946 23.946 0 013.1.57 1.065 1.065 0 01.774 1.12c0 .855-.509 1.67-2.769 1.67-2.24 0-2.831-.937-2.831-2.383h-2.975c0 2.462 1.222 4.804 5.824 4.804zm12.014-.041c2.973 0 5.03-1.507 5.03-4.4h-2.73a1.932 1.932 0 01-2.138 2.036c-1.364 0-2.179-1.059-2.179-2.831 0-1.833.794-2.831 2.24-2.831a1.92 1.92 0 012.057 2.077h2.729c0-2.79-1.935-4.439-4.887-4.439a4.88 4.88 0 00-5.233 5.213 4.806 4.806 0 005.11 5.172zm6.028-.163h3.1v-4.785c0-1.914.977-2.871 2.607-2.871 1.385 0 2.179.631 2.179 2.057v5.6h3.1v-6.292c0-2.607-1.568-3.93-3.991-3.93-2.281 0-3.462.916-3.971 2.831h-.041c.061-.753.122-1.894.122-2.281v-4.439h-3.1zm17.309.163c3.319 0 5.478-1.914 5.478-5.172 0-3.279-2.159-5.213-5.478-5.213s-5.478 1.935-5.478 5.213c-.001 3.255 2.158 5.169 5.477 5.169zm0-2.362c-1.507 0-2.383-1.039-2.383-2.81 0-1.792.876-2.851 2.383-2.851s2.383 1.059 2.383 2.851c-.002 1.768-.877 2.807-2.384 2.807zm11.729 2.362c3.319 0 5.478-1.914 5.478-5.172 0-3.279-2.159-5.213-5.478-5.213s-5.478 1.935-5.478 5.213c-.001 3.255 2.158 5.169 5.477 5.169zm0-2.362c-1.507 0-2.383-1.039-2.383-2.81 0-1.792.876-2.851 2.383-2.851s2.383 1.059 2.383 2.851c-.001 1.768-.877 2.807-2.384 2.807zm6.476 2.2h3.1V35.961h-3.1zM34.165 68.257c3.686 0 6.231-2.077 6.231-5.152 0-.163 0-.387-.02-.652h-2.932a4.224 4.224 0 01.02.428c0 1.69-1.185 2.749-3.136 2.749-2.158 0-3.767-1.588-3.767-4.256 0-2.647 1.568-4.3 3.767-4.3a2.785 2.785 0 013.1 2.851c0 .1 0 .305-.02.529h2.912c.02-.183.041-.55.041-.855 0-3.075-2.525-5.152-6.19-5.152-4.134 0-7.066 2.566-7.066 6.924-.006 4.32 2.926 6.886 7.06 6.886zm11.057-.041c1.833 0 2.973-.774 3.279-2.2h.02a20.4 20.4 0 01-.142 2.037h3.1v-6.111c0-2.688-1.873-4.113-5.071-4.113-3.055 0-4.847 1.2-4.847 3.238a5.044 5.044 0 00.041.591h2.847a4.224 4.224 0 01-.02-.428c0-.815.672-1.3 1.833-1.3 1.425 0 2.118.489 2.118 1.711v.672H45.1c-2.668 0-3.849 1.2-3.849 2.851.001 2.034 1.628 3.052 3.971 3.052zm.611-2.1c-1.12.003-1.792-.404-1.792-1.174 0-.57.509-.957 1.344-.957h2.994v.2c0 1.221-.937 1.934-2.546 1.934zm6.679 1.935h3.1v-4.803c0-1.894.855-2.851 2.057-2.851 1.059 0 1.67.713 1.67 1.894v5.762h3.1v-4.866c0-1.853.855-2.79 2.077-2.79 1.059 0 1.67.713 1.67 1.894v5.762h3.1v-6.475c0-2.362-1.242-3.747-3.441-3.747a3.226 3.226 0 00-3.456 2.627h-.02c-.224-1.629-1.466-2.627-3.4-2.627a3.365 3.365 0 00-3.441 2.769h-.02l.1-2.607h-3.1zm17.839 4.034h3.1v-3.808c0-.367-.061-1.364-.1-2.036h.02c.448 1.222 1.588 1.975 3.421 1.975 2.831 0 4.663-2.159 4.663-5.417 0-2.973-1.833-4.969-4.643-4.969a3.247 3.247 0 00-3.4 2.22h-.02l.061-2.057h-3.1zm5.7-6.231a2.368 2.368 0 01-2.607-2.4v-.448a2.555 2.555 0 012.586-2.81c1.405 0 2.342 1.1 2.342 2.729.007 1.748-.934 2.929-2.319 2.929zm9.693 2.362c1.833 0 2.973-.774 3.279-2.2h.02a20.4 20.4 0 01-.143 2.036H92v-6.11c0-2.688-1.873-4.113-5.07-4.113-3.055 0-4.847 1.2-4.847 3.238a5.044 5.044 0 00.041.591h2.851a4.225 4.225 0 01-.02-.428c0-.815.672-1.3 1.833-1.3 1.425 0 2.118.489 2.118 1.711v.672h-3.282c-2.668-.002-3.845 1.199-3.845 2.849 0 2.036 1.625 3.054 3.967 3.054zm.611-2.1c-1.118.003-1.79-.404-1.79-1.174 0-.57.509-.957 1.344-.957h2.993v.2c0 1.221-.937 1.934-2.545 1.934zm6.761-9.184h3.1v-2.464h-3.1zm0 11.118h3.1V57.994h-3.1zm11.609-1.829h-3.259c-.611 0-.977-.265-.977-.713a1.243 1.243 0 01.183-.652 8.443 8.443 0 001.67.163c2.973 0 4.724-1.324 4.724-3.584a3.328 3.328 0 00-.487-1.832 2.691 2.691 0 01-.224-.916c0-.468.305-.753.957-.753a2.822 2.822 0 01.611.061v-1.953a4.841 4.841 0 00-1.12-.1c-1.283 0-2.118.489-2.118 1.324a1.571 1.571 0 00.594 1.135l-.02.041a6.116 6.116 0 00-2.912-.611c-2.953 0-4.7 1.344-4.7 3.6a3.193 3.193 0 001.641 2.916v.02a1.951 1.951 0 00-1.242 1.894 1.863 1.863 0 00.933 1.65v.02a1.793 1.793 0 00-1.812 1.833c0 1.67 2.1 2.647 5.641 2.647 3.482 0 5.539-1.222 5.539-3.523.002-1.669-1.342-2.667-3.622-2.667zm-2.383-6.435a1.59 1.59 0 011.812 1.649 1.585 1.585 0 01-1.812 1.629 1.578 1.578 0 01-1.792-1.629 1.583 1.583 0 011.792-1.649zm.428 10.756c-1.588 0-2.525-.407-2.525-1.161 0-.57.489-.916 1.324-.916h2.383c.9 0 1.3.305 1.3.855.002.79-.914 1.222-2.482 1.222zm6.353-2.484h3.1v-4.79c0-1.914.977-2.871 2.607-2.871 1.364 0 2.179.631 2.179 2.057v5.6h3.1v-6.293c0-2.607-1.568-3.93-3.991-3.93-2.281 0-3.462.916-3.971 2.831h-.041l.122-2.668h-3.1z"/></g></svg>