<svg xmlns="http://www.w3.org/2000/svg" width="225.43" height="113.23"><g data-name="グループ 2113"><path data-name="パス 742" d="M12.428 3.614c2.5.052 3.458.65 3.458 2.132 0 1.274-1.066 2.132-2.678 2.132-1.456 0-2.522-.624-4.108-2.366C5.694 1.56 4.212.7.494.546v10.348h3.2V4.316c.7.338.988.6 2.47 2.314a29.248 29.248 0 002.21 2.444 6.807 6.807 0 004.784 1.794c3.458 0 5.8-2.106 5.8-5.174a4.422 4.422 0 00-2.236-4.03 8.011 8.011 0 00-4.29-.936zm6.526 14.248a4.256 4.256 0 00-2.262-4.03c-1.378-.806-4.134-1.3-7.28-1.3-6.37 0-9.412 1.69-9.412 5.252a4.3 4.3 0 002.678 4.16 18.272 18.272 0 006.816 1.092 22.278 22.278 0 005.928-.754 5.876 5.876 0 002.028-1.066 4.18 4.18 0 001.504-3.354zm-2.912-.052c0 1.612-1.638 2.158-6.552 2.158-4.94 0-6.578-.546-6.578-2.184 0-1.612 1.638-2.184 6.318-2.184 5.252 0 6.812.494 6.812 2.21zm-3.614 9.516c2.5.052 3.458.65 3.458 2.132 0 1.274-1.066 2.132-2.678 2.132-1.456 0-2.522-.624-4.108-2.366-3.406-3.952-4.888-4.81-8.606-4.966v10.348h3.2v-6.578c.7.338.988.6 2.47 2.314a29.248 29.248 0 002.21 2.444 6.807 6.807 0 004.784 1.794c3.458 0 5.8-2.106 5.8-5.174a4.422 4.422 0 00-2.236-4.03 8.011 8.011 0 00-4.29-.936zM8.58 40.118c-.026 2.47-.754 3.38-2.678 3.38-1.794 0-2.99-.91-2.99-2.262s1.066-2.136 3.016-2.158l.234-.026V36.14c-2.236.078-3.432.416-4.5 1.3A4.87 4.87 0 000 41.314c0 3.12 2.418 5.252 5.954 5.252 2.184 0 3.64-.78 4.316-2.314a3.872 3.872 0 003.64 1.846c3.042 0 5.044-1.9 5.044-4.784a4.486 4.486 0 00-2.21-4.056 6.89 6.89 0 00-3.718-.858v2.756c2.054.026 3.016.676 3.016 2.028 0 1.2-.936 1.924-2.444 1.924-1.638 0-2.418-.806-2.418-2.522v-.468z" fill="#fff"/><g data-name="グループ 2040"><g data-name="グループ 1145"><g data-name="グループ 1151" fill="#fff"><path data-name="パス 647" d="M62.614 28.335a9.9 9.9 0 01-7.773-3.391 16.722 16.722 0 01-3.514-10.738A16.784 16.784 0 0154.84 3.391 9.961 9.961 0 0162.773 0a9.961 9.961 0 019.27 5.862 18.979 18.979 0 011.857 8.344 16.722 16.722 0 01-3.514 10.739 9.9 9.9 0 01-7.772 3.391M62.494 3c-4.907 0-8.2 4.486-8.2 11.164s3.346 11.164 8.324 11.164 8.323-4.486 8.323-11.164C70.937 7.386 67.627 3 62.494 3"/><path data-name="パス 648" d="M88.593 27.834a.3.3 0 01-.305-.29V15.569c0-3.714-1.129-5.371-3.661-5.371-3 0-4.856 2.595-4.856 6.772v10.574a.3.3 0 01-.305.29h-1.951a.3.3 0 01-.305-.29V8.393a.3.3 0 01.305-.29h1.795a.3.3 0 01.305.29v1.957a.293.293 0 00.3.288.313.313 0 00.261-.139 5.591 5.591 0 015.047-2.964c3.577 0 5.627 2.459 5.627 6.746v13.263a.3.3 0 01-.305.29z"/><path data-name="パス 649" d="M101.904 28.185c-4.749 0-7.7-3.818-7.7-9.966 0-6.49 3.116-10.684 7.938-10.684a6.053 6.053 0 015.842 3.742c.961 1.9 1.312 3.651 1.445 7.212a.286.286 0 01-.089.217.307.307 0 01-.217.089H97.917a.929.929 0 00-.665.274.853.853 0 00-.25.653 7.2 7.2 0 00.979 3.684 4.452 4.452 0 004 2.154 4.593 4.593 0 004.6-3.626.3.3 0 01.294-.237h1.928a.3.3 0 01.3.354c-.87 3.907-3.47 6.134-7.2 6.134m.12-17.987c-2.608 0-4.563 2.062-4.982 5.252a.845.845 0 00.224.688.941.941 0 00.688.3h7.819a.94.94 0 00.681-.29.839.839 0 00.23-.674 7.2 7.2 0 00-1.021-3.313 4.233 4.233 0 00-3.639-1.964"/><path data-name="パス 650" d="M119.928 27.544V.719h9.288c4.081 0 6.823 3.031 6.823 7.541 0 4.789-2.678 7.883-6.823 7.883h-5.489a.893.893 0 00-.915.87v10.531a.3.3 0 01-.306.29h-2.273a.3.3 0 01-.3-.29m3.8-23.973a.894.894 0 00-.915.87v7.979a.894.894 0 00.915.87h4.413c3.275 0 4.936-1.654 4.936-4.916 0-3.232-1.574-4.8-4.816-4.8z"/><path data-name="パス 651" d="M138.66 27.544V8.393a.3.3 0 01.305-.29h1.793a.3.3 0 01.305.29v2.349a.294.294 0 00.305.288.306.306 0 00.269-.153c1.375-2.4 2.5-3.2 4.325-3.2 1.706 0 2.595 2.474 1 3.178-1.054.467-1.911-.182-2.431-.229-2.663-.24-3.313 2.481-3.313 5.586v11.332a.3.3 0 01-.305.29h-1.953a.3.3 0 01-.305-.29"/><path data-name="パス 652" d="M155.971 28.147c-4.579 0-7.778-4.222-7.778-10.268 0-6.187 3.175-10.344 7.9-10.344 4.509 0 7.659 4.238 7.659 10.306s-3.2 10.306-7.78 10.306m-.08-17.986c-3.046 0-5.015 3.015-5.015 7.681s2 7.681 5.095 7.681 5.1-3.015 5.1-7.681-2.031-7.681-5.175-7.681"/><path data-name="パス 653" d="M173.707 28.186c-4.459 0-7.34-4.238-7.34-10.8 0-5.984 2.709-9.851 6.9-9.851 2.157 0 3.547.862 4.8 2.975a.307.307 0 00.268.15.294.294 0 00.305-.289V1.01a.3.3 0 01.305-.29h1.954a.3.3 0 01.305.29v26.534a.3.3 0 01-.305.29h-1.794a.3.3 0 01-.305-.29v-2.016a.3.3 0 00-.308-.29.3.3 0 00-.265.151 4.7 4.7 0 01-4.523 2.8m.04-17.987c-3.117 0-4.7 2.495-4.7 7.415 0 5.05 1.712 7.946 4.7 7.946a4.233 4.233 0 003.309-1.571c1.07-1.29 1.547-3.022 1.547-5.617 0-6.755-2.64-8.173-4.856-8.173"/><path data-name="パス 654" d="M190.756 28.185c-3.474 0-5.467-2.183-5.467-5.99v-13.8a.3.3 0 01.305-.29h1.949a.3.3 0 01.305.29v12.7c0 3.687 1.883 4.462 3.461 4.462 2.95 0 4.857-2.629 4.857-6.7V8.393a.3.3 0 01.305-.29h1.954a.3.3 0 01.305.29v19.151a.3.3 0 01-.305.29h-1.794a.3.3 0 01-.305-.29v-2.285a.294.294 0 00-.3-.288.31.31 0 00-.268.149c-1.375 2.292-2.637 3.065-5 3.065"/><path data-name="パス 655" d="M209.402 28.185c-4.557 0-7.5-3.912-7.5-9.966 0-6.49 3.116-10.684 7.938-10.684 3.717 0 5.788 2.271 6.328 6.942h-2.49c-.5-2.958-1.774-4.279-4.116-4.279-3.066 0-4.9 2.9-4.9 7.756 0 4.9 1.668 7.605 4.7 7.605 2.237 0 3.688-1.567 4.312-4.658h2.489c-.693 4.834-2.967 7.284-6.761 7.284"/><path data-name="パス 656" d="M223.271 27.882c-2.18 0-3.2-1.3-3.2-4.1V10.933a.9.9 0 00-.917-.87h-1.4V8.101h1.4a.9.9 0 00.917-.87V2.575h2.564v4.658a.894.894 0 00.916.87h1.874v1.96h-1.874a.894.894 0 00-.916.87v12.668c0 1.175.545 1.7 1.767 1.7h.983v2.344a9.876 9.876 0 01-1.123.131 4.635 4.635 0 01-1 .114"/></g></g><g data-name="グループ 1147"><g data-name="グループ 1150" fill="#fff"><path data-name="パス 657" d="M62.614 67.343a9.9 9.9 0 01-7.773-3.391 16.722 16.722 0 01-3.514-10.738 16.784 16.784 0 013.513-10.815 9.961 9.961 0 017.933-3.391 9.961 9.961 0 019.27 5.862 18.979 18.979 0 011.857 8.344 16.722 16.722 0 01-3.514 10.739 9.9 9.9 0 01-7.772 3.391m-.12-25.336c-4.907 0-8.2 4.486-8.2 11.164s3.346 11.164 8.324 11.164 8.323-4.486 8.323-11.164c-.004-6.778-3.314-11.164-8.447-11.164"/><path data-name="パス 658" d="M88.593 66.842a.3.3 0 01-.305-.29V54.577c0-3.714-1.129-5.371-3.661-5.371-3 0-4.856 2.595-4.856 6.772v10.574a.3.3 0 01-.305.29h-1.951a.3.3 0 01-.305-.29V47.401a.3.3 0 01.305-.29h1.795a.3.3 0 01.305.29v1.957a.293.293 0 00.3.288.313.313 0 00.261-.139 5.591 5.591 0 015.047-2.964c3.577 0 5.627 2.459 5.627 6.746v13.263a.3.3 0 01-.305.29z"/><path data-name="パス 659" d="M101.904 67.193c-4.749 0-7.7-3.818-7.7-9.966 0-6.49 3.116-10.684 7.938-10.684a6.053 6.053 0 015.842 3.742c.961 1.9 1.312 3.651 1.445 7.212a.286.286 0 01-.089.217.307.307 0 01-.217.089H97.917a.929.929 0 00-.665.274.853.853 0 00-.25.653 7.2 7.2 0 00.979 3.684 4.452 4.452 0 004 2.154 4.593 4.593 0 004.6-3.626.3.3 0 01.294-.237h1.928a.3.3 0 01.3.354c-.87 3.907-3.47 6.134-7.2 6.134m.12-17.987c-2.608 0-4.563 2.062-4.982 5.252a.845.845 0 00.224.688.941.941 0 00.688.3h7.819a.94.94 0 00.681-.29.839.839 0 00.23-.674 7.2 7.2 0 00-1.021-3.313 4.233 4.233 0 00-3.639-1.964"/><path data-name="パス 660" d="M133.478 66.552V47.401a.3.3 0 01.305-.29h1.793a.3.3 0 01.305.29v2.349a.294.294 0 00.305.288.305.305 0 00.269-.153c1.375-2.4 2.5-3.2 4.325-3.2 1.706 0 2.595 2.474 1 3.178-1.054.467-1.911-.182-2.431-.229-2.663-.24-3.313 2.481-3.313 5.586v11.332a.3.3 0 01-.305.29h-1.953a.3.3 0 01-.305-.29"/><path data-name="パス 661" d="M122.32 66.842v-23.24a.9.9 0 00-.916-.87h-7.056v-3h18.786v3h-7.015a.9.9 0 00-.917.87v23.24z"/><path data-name="パス 662" d="M150.951 67.193c-4.749 0-7.7-3.818-7.7-9.966 0-6.49 3.116-10.684 7.938-10.684a6.053 6.053 0 015.842 3.742c.961 1.9 1.312 3.651 1.445 7.212a.286.286 0 01-.089.217.307.307 0 01-.217.089h-11.2a.929.929 0 00-.665.274.853.853 0 00-.25.653 7.2 7.2 0 00.979 3.684 4.452 4.452 0 004 2.154 4.593 4.593 0 004.6-3.626.3.3 0 01.294-.237h1.928a.3.3 0 01.3.354c-.87 3.907-3.47 6.134-7.2 6.134m.12-17.987c-2.608 0-4.563 2.062-4.982 5.252a.845.845 0 00.224.688.941.941 0 00.688.3h7.819a.94.94 0 00.681-.29.839.839 0 00.23-.674 7.2 7.2 0 00-1.022-3.307 4.233 4.233 0 00-3.639-1.964"/><path data-name="パス 663" d="M168.763 67.193c-4.749 0-7.7-3.818-7.7-9.966 0-6.49 3.116-10.684 7.938-10.684a6.053 6.053 0 015.842 3.742c.961 1.9 1.312 3.651 1.445 7.212a.286.286 0 01-.089.217.307.307 0 01-.217.089h-11.2a.929.929 0 00-.665.274.853.853 0 00-.25.653 7.2 7.2 0 00.979 3.684 4.452 4.452 0 004 2.154 4.593 4.593 0 004.6-3.626.3.3 0 01.294-.237h1.923a.3.3 0 01.3.354c-.87 3.907-3.47 6.134-7.2 6.134m.12-17.987c-2.608 0-4.563 2.062-4.982 5.252a.845.845 0 00.224.688.941.941 0 00.688.3h7.819a.939.939 0 00.681-.29.839.839 0 00.23-.674 7.2 7.2 0 00-1.022-3.307 4.233 4.233 0 00-3.639-1.964"/></g></g><g data-name="グループ 1149"><g data-name="グループ 1152" fill="#fff"><path data-name="パス 664" d="M61.74 105.616c-6.423 0-10.413-5.415-10.413-14.135 0-8.765 4.143-14.211 10.812-14.211a8.908 8.908 0 017.962 4.245 9.29 9.29 0 011.426 4.032.3.3 0 01-.3.334h-2.188a.307.307 0 01-.3-.227 6.568 6.568 0 00-2.156-3.9 6.91 6.91 0 00-4.369-1.476c-4.964 0-7.928 4.231-7.928 11.32 0 7 2.817 11.016 7.729 11.016a6.162 6.162 0 005.312-2.832 10.693 10.693 0 001.664-4.357.307.307 0 01.3-.238h2.146a.3.3 0 01.3.35c-.756 3.836-1.621 5.738-3.328 7.4a9.248 9.248 0 01-6.669 2.683"/><path data-name="パス 665" d="M79.76 105.464c-3.226 0-5.31-2.218-5.31-5.651 0-3.38 1.795-5.508 5.054-5.993 0 0 3.764-.4 4.99-.573 1.153-.164 1.4-.995 1.4-2.525 0-2.283-1.38-3.441-4.1-3.441-2.486 0-3.666 1.011-4.119 3.579a.3.3 0 01-.3.247h-1.75a.3.3 0 01-.305-.315 6.6 6.6 0 01.982-3.442c1.09-1.663 3.058-2.544 5.691-2.544 4 0 6.386 2.013 6.386 5.386v11.4c0 .839.39 1.32 1.07 1.32a3.245 3.245 0 00.844-.116v1.928a2.467 2.467 0 01-1.521.551c-1.771 0-2.519-.692-2.761-2.557a.3.3 0 00-.3-.254.312.312 0 00-.236.107c-1.771 2.055-3.425 2.893-5.712 2.893m5.718-10.53a24.865 24.865 0 01-4.815 1.14c-2.669.423-3.53 1.4-3.53 3.438 0 2.243 1.145 3.479 3.223 3.479 2.957 0 5.456-2.2 5.456-4.8v-2.963c0-.16.039-.422-.334-.295"/><path data-name="パス 666" d="M142.931 105.464c-3.226 0-5.31-2.218-5.31-5.651 0-3.38 1.795-5.508 5.054-5.993 0 0 3.764-.4 4.99-.573 1.153-.164 1.4-.995 1.4-2.525 0-2.283-1.38-3.441-4.1-3.441-2.486 0-3.666 1.011-4.119 3.579a.3.3 0 01-.3.247h-1.75a.3.3 0 01-.305-.315 6.6 6.6 0 01.982-3.442c1.09-1.663 3.058-2.544 5.691-2.544 4 0 6.386 2.013 6.386 5.386v11.4c0 .839.39 1.32 1.07 1.32a3.245 3.245 0 00.844-.116v1.928a2.467 2.467 0 01-1.521.551c-1.771 0-2.519-.692-2.761-2.557a.3.3 0 00-.3-.254.312.312 0 00-.236.107c-1.771 2.055-3.425 2.893-5.712 2.893m5.717-10.53a24.865 24.865 0 01-4.815 1.14c-2.669.423-3.53 1.4-3.53 3.438 0 2.243 1.145 3.479 3.223 3.479 2.957 0 5.456-2.2 5.456-4.8v-2.963c0-.16.039-.422-.334-.295"/><path data-name="パス 667" d="M113.947 105.114v-12.88c0-3.207-1.067-4.767-3.263-4.767-2.389 0-4.26 2.41-4.26 5.486v12.161h-2.565v-13.78c0-2.415-1.056-3.857-2.825-3.857-2.854 0-4.7 2.66-4.7 6.774v10.863h-2.562V85.667a.3.3 0 01.305-.29h1.8a.3.3 0 01.305.29v1.955a.293.293 0 00.3.288.309.309 0 00.261-.139c1.356-2.077 2.818-2.963 4.89-2.963 2.007 0 3.241.844 4.26 2.912a.314.314 0 00.522.05c1.819-2.326 2.865-2.963 4.867-2.963 3.274 0 5.229 2.438 5.229 6.522v13.785z"/><path data-name="パス 668" d="M120.541 112.447v-26.78a.3.3 0 01.305-.29h1.795a.3.3 0 01.305.29v1.955a.293.293 0 00.3.287.308.308 0 00.263-.14c1.413-2.186 2.672-2.96 4.809-2.96 4.13 0 6.9 3.96 6.9 9.855 0 6.562-2.867 10.8-7.3 10.8a4.666 4.666 0 01-4.243-2.254.313.313 0 00-.26-.135.294.294 0 00-.3.289v9.084a.3.3 0 01-.305.29h-1.964a.3.3 0 01-.305-.29m7.184-24.976c-2.161 0-4.738 1.445-4.738 8.327 0 4.341 1.861 7.039 4.857 7.039s4.7-2.911 4.7-7.986c0-4.9-1.621-7.38-4.819-7.38"/><path data-name="パス 669" d="M156.799 104.823V85.666a.3.3 0 01.305-.29h1.954a.3.3 0 01.305.29v19.157a.3.3 0 01-.305.29h-1.954a.3.3 0 01-.305-.29"/><path data-name="パス 670" d="M170.122 113.234a6.972 6.972 0 01-4.135-1.184c-1.226-.924-1.776-1.919-2.2-4.089a.3.3 0 01.3-.346h1.972a.3.3 0 01.292.221 3.543 3.543 0 003.893 2.923c2.1 0 3.5-.757 4.284-2.317.57-1.083.773-2.339.773-4.8v-.8c0-.448-.214-.185-.286-.065a4.848 4.848 0 01-4.572 2.691c-4.412 0-7.264-4.24-7.264-10.8 0-5.894 2.775-9.855 6.9-9.855 2.137 0 3.4.775 4.809 2.96a.311.311 0 00.263.14.293.293 0 00.3-.287v-1.959a.3.3 0 01.305-.29h1.803a.3.3 0 01.305.29v17.746c0 3.169-.4 5.112-1.374 6.708-1.263 2.063-3.405 3.11-6.367 3.11m.439-25.758c-2.144 0-4.7 1.287-4.7 7.418 0 5.051 1.712 7.948 4.7 7.948a4.235 4.235 0 003.31-1.572c1.07-1.289 1.547-3.022 1.547-5.619 0-6.758-2.641-8.176-4.857-8.176"/><path data-name="パス 671" d="M193.164 105.114a.3.3 0 01-.305-.29V92.845c0-3.715-1.129-5.373-3.661-5.373-3 0-4.857 2.6-4.857 6.774v10.578a.3.3 0 01-.305.29h-1.955a.3.3 0 01-.305-.29V85.667a.3.3 0 01.305-.29h1.8a.3.3 0 01.305.29v1.957a.293.293 0 00.3.288.312.312 0 00.262-.14 5.591 5.591 0 015.048-2.964c3.577 0 5.629 2.46 5.629 6.749v13.267a.3.3 0 01-.305.29z"/><path data-name="パス 672" d="M158.081 82.089a1.8 1.8 0 01-1.841-1.75 1.844 1.844 0 013.683 0 1.8 1.8 0 01-1.841 1.75"/></g></g></g></g></svg>