<svg xmlns="http://www.w3.org/2000/svg" width="74.038" height="34" viewBox="0 0 74.038 34">
  <g id="グループ_115" data-name="グループ 115" transform="translate(-441.916 -278.889)">
    <g id="グループ_114" data-name="グループ 114" transform="translate(441.916 278.889)">
      <path id="パス_89" data-name="パス 89" d="M409.206,289.4h-2.191v-8.648h-3.178v-1.859h8.543v1.859h-3.174Z" transform="translate(-382.557 -278.889)"/>
      <path id="パス_90" data-name="パス 90" d="M416.513,284.683V289.4h-2.194V278.889h2.194v3.983h4.1v-3.983h2.2V289.4h-2.2v-4.713Z" transform="translate(-383.715 -278.889)"/>
      <path id="パス_91" data-name="パス 91" d="M432.472,280.748h-5.518v2.209h4.863v1.859h-4.863v2.724h5.516V289.4h-7.561V278.889h7.563Z" transform="translate(-384.884 -278.889)"/>
      <path id="パス_92" data-name="パス 92" d="M386.428,291.913h2.05V302.42h-2.2L382,294.928h-.031v7.492h-2.049V291.913h2.311l4.166,7.315h.035Z" transform="translate(-379.916 -280.327)"/>
      <path id="パス_93" data-name="パス 93" d="M395.708,291.6c1.392,0,5.049.6,5.049,5.531s-3.657,5.529-5.049,5.529-5.05-.6-5.05-5.529,3.661-5.531,5.05-5.531m0,9.2c1.187,0,2.852-.731,2.852-3.673s-1.665-3.672-2.852-3.672-2.853.733-2.853,3.672,1.671,3.673,2.853,3.673" transform="translate(-381.102 -280.292)"/>
      <path id="パス_94" data-name="パス 94" d="M418.749,302.42h-2.193V293.77h-3.18v-1.857h8.542v1.857h-3.17Z" transform="translate(-383.611 -280.327)"/>
      <path id="パス_95" data-name="パス 95" d="M426.063,297.709v4.709H423.87V291.912h2.193v3.979h4.1v-3.979h2.2v10.506h-2.2v-4.709Z" transform="translate(-384.77 -280.327)"/>
      <path id="パス_96" data-name="パス 96" d="M403.037,291.913h5.315a2.959,2.959,0,0,1,3.3,2.974,2.514,2.514,0,0,1-1.627,2.5c.866.379,1.333.7,1.333,2.661,0,1.536,0,1.919.468,2.094v.277H409.4a7.079,7.079,0,0,1-.23-2.12c0-1.436-.085-1.99-1.715-1.99H405.19v4.11h-2.153Zm4.729,4.626c1.142,0,1.7-.4,1.7-1.435,0-.554-.253-1.374-1.536-1.374H405.19v2.808Z" transform="translate(-382.469 -280.327)"/>
      <path id="パス_97" data-name="パス 97" d="M397.939,315.442h-2.192V304.935h7.473v1.859h-5.282v2.37h4.622v1.862h-4.622Z" transform="translate(-381.664 -281.765)"/>
      <path id="パス_98" data-name="パス 98" d="M404.971,315.442h-2.313l3.746-10.507h2.532l3.7,10.507H410.25l-.672-2.167H405.7Zm1.318-3.979h2.676l-1.3-4.154h-.024Z" transform="translate(-382.427 -281.765)"/>
      <path id="パス_99" data-name="パス 99" d="M420.561,308.381a2.132,2.132,0,0,0-2.323-1.812c-1.055,0-2.61.7-2.61,3.671,0,1.887.749,3.588,2.61,3.588a2.239,2.239,0,0,0,2.323-1.977h2.194a4.368,4.368,0,0,1-4.562,3.877c-2.8,0-4.8-1.882-4.8-5.515,0-3.671,2.119-5.546,4.833-5.546a4.178,4.178,0,0,1,4.529,3.715Z" transform="translate(-383.613 -281.735)"/>
      <path id="パス_100" data-name="パス 100" d="M432.472,306.795h-5.518V309h4.863v1.859h-4.863v2.724h5.516v1.856h-7.561V304.935h7.563Z" transform="translate(-384.884 -281.765)"/>
      <path id="パス_101" data-name="パス 101" d="M392.185,313.484a1.612,1.612,0,1,1-1.625,1.6,1.6,1.6,0,0,1,1.625-1.6m0,2.987a1.376,1.376,0,1,0-1.333-1.385,1.331,1.331,0,0,0,1.333,1.385m-.63-2.32h.729c.449,0,.659.176.659.539a.483.483,0,0,1-.5.512l.538.834h-.313l-.514-.811h-.309v.811h-.294Zm.294.836h.305c.26,0,.5-.012.5-.31,0-.25-.214-.29-.414-.29h-.387Z" transform="translate(-381.091 -282.709)"/>
      <path id="パス_102" data-name="パス 102" d="M460.061,303.239a24.337,24.337,0,0,0-24.351-24.35h-.483V289.4h.483a14.262,14.262,0,0,1,14.27,14.1h0v9.073h10.08Z" transform="translate(-386.024 -278.889)"/>
      <path id="パス_103" data-name="パス 103" d="M435.71,304.935h-.481v10.507h5.04v-5.949a4.556,4.556,0,0,0-4.558-4.558" transform="translate(-386.024 -281.765)"/>
      <path id="パス_104" data-name="パス 104" d="M448.9,305.054a13.192,13.192,0,0,0-13.182-13.141h-.5v10.507h.483a5.631,5.631,0,0,1,5.635,5.635V314h7.56Z" transform="translate(-386.024 -280.327)"/>
    </g>
  </g>
</svg>
