<svg xmlns="http://www.w3.org/2000/svg" xmlns:xlink="http://www.w3.org/1999/xlink" width="481.347" height="322.455" viewBox="0 0 481.347 322.455">
  <defs>
    <clipPath id="clip-path">
      <rect id="長方形_503" data-name="長方形 503" width="481.348" height="209.323" fill="#97ce1c"/>
    </clipPath>
  </defs>
  <g id="グループ_2097" data-name="グループ 2097" transform="translate(3023 -170.569)">
    <g id="グループ_2096" data-name="グループ 2096" transform="translate(-2841.748 170.569)">
      <g id="グループ_114" data-name="グループ 114" transform="translate(0 0)">
        <path id="パス_89" data-name="パス 89" d="M412.194,295.243h-3.41V281.782h-4.946v-2.894h13.3v2.894h-4.941Z" transform="translate(-370.715 -278.889)" fill="#f2f2f2"/>
        <path id="パス_90" data-name="パス 90" d="M417.734,287.908v7.336h-3.415V278.889h3.415v6.2h6.374v-6.2h3.42v16.355h-3.42v-7.336Z" transform="translate(-366.683 -278.889)" fill="#f2f2f2"/>
        <path id="パス_91" data-name="パス 91" d="M436.681,281.782h-8.589v3.439h7.569v2.894h-7.569v4.24h8.586v2.89h-11.77V278.889h11.772Z" transform="translate(-362.61 -278.889)" fill="#f2f2f2"/>
        <path id="パス_92" data-name="パス 92" d="M390.052,291.913h3.191v16.355h-3.417l-6.671-11.661h-.049v11.661h-3.19V291.913h3.6L390,303.3h.054Z" transform="translate(-379.916 -273.879)" fill="#f2f2f2"/>
        <path id="パス_93" data-name="パス 93" d="M398.519,291.6c2.167,0,7.859.935,7.859,8.61s-5.692,8.606-7.859,8.606-7.861-.936-7.861-8.606,5.7-8.61,7.861-8.61m0,14.327c1.847,0,4.439-1.138,4.439-5.717s-2.592-5.716-4.439-5.716-4.441,1.141-4.441,5.716,2.6,5.717,4.441,5.717" transform="translate(-375.784 -273.999)" fill="#f2f2f2"/>
        <path id="パス_94" data-name="パス 94" d="M421.739,308.268h-3.413V294.8h-4.949v-2.89h13.3v2.89h-4.934Z" transform="translate(-367.045 -273.879)" fill="#f2f2f2"/>
        <path id="パス_95" data-name="パス 95" d="M427.283,300.935v7.33H423.87V291.912h3.413v6.193h6.374v-6.193h3.421v16.353h-3.421v-7.33Z" transform="translate(-363.009 -273.879)" fill="#f2f2f2"/>
        <path id="パス_96" data-name="パス 96" d="M403.037,291.913h8.273c4.348,0,5.144,3.211,5.144,4.629a3.914,3.914,0,0,1-2.532,3.9c1.347.59,2.074,1.088,2.074,4.141,0,2.391,0,2.987.728,3.259v.431H412.94a11.025,11.025,0,0,1-.359-3.3c0-2.235-.133-3.1-2.67-3.1h-3.524v6.4h-3.351Zm7.361,7.2c1.778,0,2.643-.616,2.643-2.233,0-.863-.393-2.138-2.391-2.138h-4.262v4.371Z" transform="translate(-371.023 -273.879)" fill="#f2f2f2"/>
        <path id="パス_97" data-name="パス 97" d="M399.159,321.289h-3.411V304.936H407.38v2.894h-8.221v3.689h7.194v2.9h-7.194Z" transform="translate(-373.827 -268.87)" fill="#f2f2f2"/>
        <path id="パス_98" data-name="パス 98" d="M406.258,321.289h-3.6l5.831-16.354h3.941l5.76,16.354h-3.713l-1.047-3.373H407.4Zm2.052-6.193h4.165l-2.029-6.466h-.037Z" transform="translate(-371.168 -268.87)" fill="#f2f2f2"/>
        <path id="パス_99" data-name="パス 99" d="M424.551,310.448a3.318,3.318,0,0,0-3.615-2.82c-1.642,0-4.063,1.092-4.063,5.714,0,2.937,1.166,5.584,4.063,5.584a3.485,3.485,0,0,0,3.615-3.078h3.414c-.681,3.554-3,6.034-7.1,6.034-4.352,0-7.471-2.93-7.471-8.585,0-5.714,3.3-8.632,7.523-8.632,4.889,0,6.865,3.374,7.049,5.782Z" transform="translate(-367.039 -268.974)" fill="#f2f2f2"/>
        <path id="パス_100" data-name="パス 100" d="M436.681,307.829h-8.589v3.437h7.569v2.894h-7.569v4.24h8.586v2.888h-11.77V304.936h11.772Z" transform="translate(-362.61 -268.87)" fill="#f2f2f2"/>
        <path id="パス_101" data-name="パス 101" d="M393.09,313.484a2.51,2.51,0,1,1-2.53,2.494,2.494,2.494,0,0,1,2.53-2.494m0,4.65a2.142,2.142,0,1,0-2.074-2.156,2.072,2.072,0,0,0,2.074,2.156m-.98-3.611h1.134c.7,0,1.026.274,1.026.839a.752.752,0,0,1-.771.8l.838,1.3h-.487l-.8-1.263h-.482v1.263h-.457Zm.457,1.3h.475c.4,0,.771-.019.771-.482,0-.389-.334-.451-.644-.451h-.6Z" transform="translate(-375.822 -265.582)" fill="#f2f2f2"/>
        <path id="パス_102" data-name="パス 102" d="M473.882,316.791a37.881,37.881,0,0,0-37.9-37.9h-.752v16.354h.752a22.2,22.2,0,0,1,22.211,21.942h0v14.122h15.689Z" transform="translate(-358.641 -278.889)" fill="#f2f2f2"/>
        <path id="パス_103" data-name="パス 103" d="M435.978,304.935h-.749v16.354h7.844V312.03a7.091,7.091,0,0,0-7.1-7.1" transform="translate(-358.64 -268.87)" fill="#f2f2f2"/>
        <path id="パス_104" data-name="パス 104" d="M456.516,312.367A20.533,20.533,0,0,0,436,291.913h-.771v16.354h.752a8.765,8.765,0,0,1,8.77,8.77V326.3h11.767Z" transform="translate(-358.641 -273.879)" fill="#f2f2f2"/>
      </g>
    </g>
    <g id="グループ_2095" data-name="グループ 2095" transform="translate(-3023 283.7)">
      <g id="グループ_2065" data-name="グループ 2065">
        <g id="グループ_2064" data-name="グループ 2064" clip-path="url(#clip-path)">
          <path id="パス_697" data-name="パス 697" d="M53.737,132.926a5.617,5.617,0,0,1,5.8-5.988c3.515,0,6.014,2.307,6.014,5.577,0,4.367-4.065,7.992-8.707,11.536h6.812c.935,0,1.237-.11,1.648-2.39h.743l-.659,5.52h-.743c0-.247-.082-.6-.467-.6H53.957v-1.209c5.824-5.52,8.707-8.514,8.707-12.854,0-2.748-1.153-4.34-3.542-4.34-2.225,0-4.038,1.482-4.038,4.752Z" transform="translate(23.898 56.452)" fill="#97ce1c"/>
          <path id="パス_698" data-name="パス 698" d="M77.4,136.964c0,5.712-2.252,10.025-6.73,10.025s-6.728-4.312-6.728-10.025,2.251-10.025,6.728-10.025,6.73,4.311,6.73,10.025m-2.884,0c0-5.163-.631-8.845-3.846-8.845s-3.844,3.681-3.844,8.845c0,5.137.631,8.817,3.844,8.817s3.846-3.68,3.846-8.817" transform="translate(28.437 56.453)" fill="#97ce1c"/>
          <path id="パス_699" data-name="パス 699" d="M74.984,132.926a5.617,5.617,0,0,1,5.8-5.988c3.515,0,6.016,2.307,6.016,5.577,0,4.367-4.067,7.992-8.709,11.536H84.9c.935,0,1.237-.11,1.648-2.39h.743l-.659,5.52h-.743c0-.247-.082-.6-.467-.6H75.2v-1.209c5.824-5.52,8.707-8.514,8.707-12.854,0-2.748-1.153-4.34-3.542-4.34-2.225,0-4.038,1.482-4.038,4.752Z" transform="translate(33.347 56.452)" fill="#97ce1c"/>
          <path id="パス_700" data-name="パス 700" d="M92.916,146.45v-4.944H85.171v-.933l8.3-13.349h2.086v13.047h3.132v1.235H95.553v4.944Zm-6.124-6.179h6.124v-9.807Z" transform="translate(37.878 56.58)" fill="#97ce1c"/>
          <path id="パス_701" data-name="パス 701" d="M99.522,140.049a1.731,1.731,0,1,1-3.462,0,1.731,1.731,0,0,1,3.462,0" transform="translate(42.72 61.526)" fill="#97ce1c"/>
          <path id="パス_702" data-name="パス 702" d="M113.026,140.535c0,3.626-2.582,6.455-7.279,6.455-2.611,0-5.41-.906-5.41-2.829a1.368,1.368,0,0,1,1.345-1.429c2.252,0,1.786,3.021,4.175,3.021,3.215,0,4.285-1.949,4.285-4.56a4.407,4.407,0,0,0-4.7-4.587h-.5V135.4h.66a3.486,3.486,0,0,0,3.625-3.762c0-1.786-.961-3.462-3.186-3.462-1.95,0-3.6,1.264-3.764,3.873h-1.345a5.239,5.239,0,0,1,5.6-5.109c3.707,0,5.575,2.2,5.575,4.285a4.412,4.412,0,0,1-3.35,4.312,5.215,5.215,0,0,1,4.256,5" transform="translate(44.622 56.453)" fill="#97ce1c"/>
          <path id="パス_703" data-name="パス 703" d="M114.346,140.049a1.731,1.731,0,1,1-3.462,0,1.731,1.731,0,0,1,3.462,0" transform="translate(49.313 61.526)" fill="#97ce1c"/>
          <path id="パス_704" data-name="パス 704" d="M128.295,141.58c0,3.048-2.388,5.41-6.838,5.41-4.369,0-6.62-2.611-6.62-5,0-2.858,1.921-4.2,4.064-5.192a5.329,5.329,0,0,1-3.241-5.054c0-1.95,1.674-4.807,6.208-4.807,3.625,0,5.63,2.141,5.63,4.366,0,2.582-1.676,3.82-3.626,4.726,2.527,1.125,4.422,2.5,4.422,5.549m-2.554.685c0-2.388-1.757-3.378-5.328-4.752-2.005.907-3.709,2.007-3.709,4.369,0,1.978,1.374,3.927,4.669,3.927,3.269,0,4.367-1.923,4.367-3.544m-7.5-11.068c0,2.333,1.9,3.213,4.064,4.12,1.9-.852,3.49-1.842,3.49-3.9,0-1.868-1.237-3.3-3.765-3.3-2.362,0-3.79,1.125-3.79,3.077" transform="translate(51.071 56.453)" fill="#97ce1c"/>
          <path id="パス_705" data-name="パス 705" d="M133.874,129.142c-2,1.5-3.46,4.886-3.46,8.216s1.465,6.7,3.46,8.215l-.4.475a10.543,10.543,0,0,1,0-17.381Z" transform="translate(57.324 57.221)" fill="#97ce1c"/>
          <path id="パス_706" data-name="パス 706" d="M136.131,135.528H139.1c1.354,0,1.609-.6,1.719-1.776h.475v4.375h-.475c-.11-1.172-.366-1.776-1.719-1.776h-2.965v4.227c0,1.39.311,1.5,1.776,1.592v.457h-5.361v-.457c1.464-.092,1.774-.2,1.774-1.592v-8.71c0-1.409-.311-1.5-1.774-1.592v-.457h10.136l1.227,2.982-.386.2a5.3,5.3,0,0,0-4.792-2.361h-2.05a.5.5,0,0,0-.549.55Z" transform="translate(58.946 57.734)" fill="#97ce1c"/>
          <path id="パス_707" data-name="パス 707" d="M151.388,141.073a2.464,2.464,0,0,0,2.122,1.1v.458h-3.129l-4.445-6.295h-1.721v4.246c0,1.39.311,1.5,1.776,1.591v.458h-5.361v-.458c1.464-.091,1.774-.2,1.774-1.591v-8.71c0-1.409-.22-1.5-1.774-1.592v-.457h6.348c3.038,0,5.178.877,5.178,3.256,0,2.1-1.774,3.056-4.188,3.2Zm-6.624-10.431a.5.5,0,0,0-.549.55v4.336h2.745c2.049,0,3.184-.769,3.184-2.452,0-1.666-1.136-2.434-3.167-2.434Z" transform="translate(62.541 57.734)" fill="#97ce1c"/>
          <path id="パス_708" data-name="パス 708" d="M149.522,142.627v-.457c1.465-.092,1.776-.2,1.776-1.592v-8.71c0-1.409-.311-1.5-1.776-1.592v-.457h5.361v.457c-1.465.092-1.776.183-1.776,1.592v8.71c0,1.39.311,1.5,1.776,1.592v.457Z" transform="translate(66.496 57.734)" fill="#97ce1c"/>
          <path id="パス_709" data-name="パス 709" d="M153.439,145.573c1.994-1.518,3.459-4.886,3.459-8.216s-1.465-6.714-3.459-8.215l.4-.475a10.519,10.519,0,0,1,0,17.381Z" transform="translate(68.238 57.221)" fill="#97ce1c"/>
          <path id="パス_710" data-name="パス 710" d="M238.985,129.142c-2,1.5-3.46,4.886-3.46,8.216s1.465,6.7,3.46,8.215l-.4.475a10.543,10.543,0,0,1,0-17.381Z" transform="translate(104.069 57.221)" fill="#97ce1c"/>
          <path id="パス_711" data-name="パス 711" d="M241.243,135.528h2.965c1.354,0,1.609-.6,1.719-1.776h.475v4.375h-.475c-.11-1.172-.365-1.776-1.719-1.776h-2.965v4.227c0,1.39.311,1.5,1.776,1.592v.457h-5.361v-.457c1.464-.092,1.774-.2,1.774-1.592v-8.71c0-1.409-.311-1.5-1.774-1.592v-.457h10.136l1.227,2.982-.386.2a5.3,5.3,0,0,0-4.792-2.361h-2.05a.5.5,0,0,0-.549.55Z" transform="translate(105.692 57.734)" fill="#97ce1c"/>
          <path id="パス_712" data-name="パス 712" d="M256.5,141.073a2.459,2.459,0,0,0,2.121,1.1v.458h-3.129l-4.445-6.295h-1.721v4.246c0,1.39.312,1.5,1.776,1.591v.458H245.74v-.458c1.464-.091,1.774-.2,1.774-1.591v-8.71c0-1.409-.22-1.5-1.774-1.592v-.457h6.348c3.038,0,5.178.877,5.178,3.256,0,2.1-1.774,3.056-4.188,3.2Zm-6.626-10.431a.5.5,0,0,0-.549.55v4.336h2.745c2.049,0,3.184-.769,3.184-2.452,0-1.666-1.136-2.434-3.167-2.434Z" transform="translate(109.287 57.734)" fill="#97ce1c"/>
          <path id="パス_713" data-name="パス 713" d="M254.634,142.627v-.457c1.465-.092,1.776-.2,1.776-1.592v-8.71c0-1.409-.311-1.5-1.776-1.592v-.457H260v.457c-1.465.092-1.776.183-1.776,1.592v8.71c0,1.39.311,1.5,1.776,1.592v.457Z" transform="translate(113.242 57.734)" fill="#97ce1c"/>
          <path id="パス_714" data-name="パス 714" d="M258.55,145.573c1.994-1.518,3.459-4.886,3.459-8.216s-1.465-6.714-3.459-8.215l.4-.475a10.519,10.519,0,0,1,0,17.381Z" transform="translate(114.983 57.221)" fill="#97ce1c"/>
        </g>
      </g>
      <path id="パス_715" data-name="パス 715" d="M202.056,146.45v-4.944h-7.745v-.933l8.3-13.349h2.086v13.047h3.132v1.235h-3.132v4.944Zm-6.124-6.179h6.124v-9.807Z" transform="translate(86.415 56.58)" fill="#97ce1c"/>
      <g id="グループ_2067" data-name="グループ 2067">
        <g id="グループ_2066" data-name="グループ 2066" clip-path="url(#clip-path)">
          <path id="パス_716" data-name="パス 716" d="M208.663,140.049a1.731,1.731,0,1,1-3.462,0,1.731,1.731,0,0,1,3.462,0" transform="translate(91.258 61.526)" fill="#97ce1c"/>
          <path id="パス_717" data-name="パス 717" d="M210.483,146.579v-.688c2.8-.136,3.489-.3,3.489-2.388V131.06c0-.659-.247-.88-.852-.88h-2.608V129.6l5.081-2.666h1.016V143.5c0,2.086.714,2.252,3.489,2.388v.688Z" transform="translate(93.607 56.452)" fill="#97ce1c"/>
          <path id="パス_718" data-name="パス 718" d="M219.815,132.926a5.617,5.617,0,0,1,5.8-5.988c3.515,0,6.014,2.307,6.014,5.577,0,4.367-4.065,7.992-8.707,11.536h6.812c.935,0,1.237-.11,1.648-2.39h.743l-.659,5.52h-.743c0-.247-.082-.6-.467-.6H220.035v-1.209c5.824-5.52,8.707-8.514,8.707-12.854,0-2.748-1.153-4.34-3.542-4.34-2.225,0-4.038,1.482-4.038,4.752Z" transform="translate(97.757 56.452)" fill="#97ce1c"/>
        </g>
      </g>
      <rect id="長方形_505" data-name="長方形 505" width="38.134" height="0.761" transform="translate(235.227 194.262)" fill="#97ce1c"/>
      <g id="グループ_2069" data-name="グループ 2069">
        <g id="グループ_2068" data-name="グループ 2068" clip-path="url(#clip-path)">
          <path id="パス_719" data-name="パス 719" d="M57.886,23.649c-.019,9.333-3.685,17.228-9,24.9a82.4,82.4,0,0,1-11.972,14.3,37.418,37.418,0,0,1-18.936,9.914c-7.578,1.435-16-4-17.418-12.037A33.637,33.637,0,0,1,1.879,43.555c4.1-11.961,11.886-21.285,21.315-29.365A77.672,77.672,0,0,1,31.469,8.15C37.038,4.531,43.252,4.2,49.457,5.663c4.282,1.01,6.627,4.457,7.541,8.619a67.771,67.771,0,0,1,.887,9.368m-4.45-2.215a22.706,22.706,0,0,0-2.056-8.989c-.889-1.709-2.075-2.814-4.3-2.54a16.4,16.4,0,0,1-4.138-.454,11.685,11.685,0,0,0-7.589,1.19C22.244,17.972,12.9,28.755,6.812,42.321a27.735,27.735,0,0,0-1.138,18.9,8.965,8.965,0,0,0,3.3,4.9c3.272,2.531,6.806,3.365,10.733,1.752,5.6-2.3,10.954-4.96,15.357-9.294A83.7,83.7,0,0,0,47.375,43.012c4.042-6.5,5.611-13.7,6.062-21.57" transform="translate(0 2.156)" fill="#97ce1c"/>
          <path id="パス_720" data-name="パス 720" d="M125.339,48.641c-1.719,4.583-5.3,5.718-9.866,6.821C108.636,57.11,101.82,58.9,94.788,59.4a21.655,21.655,0,0,1-7.71-.8c-4.219-1.287-5.84-5.334-3.664-9.167a29.535,29.535,0,0,1,5.3-6.465c2.306-2.222,4.981-4.054,7.455-6.108a40.423,40.423,0,0,0,3.277-2.673c-1.793-.783-3.646-1.52-5.059-2.067-5.7-2.21-7.513-11.527-2-16.2a61.883,61.883,0,0,1,6.782-5.006,14.785,14.785,0,0,1,11.6-1.816c1.125.256,3.255,1.872,2.733,2.739-.971,1.614-3,.712-4.495.643-5.6-.26-9.457,2.791-12.88,6.65a7.669,7.669,0,0,0-1.374,2.65c-1.186,3.538.758,6.709,4.458,6.831a38.506,38.506,0,0,0,7.741-.809c1.767-.3,3.447-1.086,5.2-1.5,1.189-.2,2.312-.478,3.282.235,2.128,1.562.449,3.684-1.458,4.89a17.932,17.932,0,0,1-3.254,1.566C104.6,35.3,99.74,39.585,94.518,43.3a17.569,17.569,0,0,0-5.483,7.06,2.91,2.91,0,0,0,2.388,4.447A20.6,20.6,0,0,0,98,54.736c5.692-1.219,11.3-2.8,16.958-4.191a17.155,17.155,0,0,0,7.209-4.151c.982-.864,2.456-.754,3.155,1.234a4.048,4.048,0,0,1,.013,1.013" transform="translate(36.667 3.837)" fill="#97ce1c"/>
          <path id="パス_721" data-name="パス 721" d="M79.614,38.392c.1,2.177,3.378-3.694,4.117-4.979,2.809-4.87,6.511-12.568,9.11-17.558.823-1.573,1.131-4.561,1.867-6.189a3.256,3.256,0,0,1,1.67-1.5,1.948,1.948,0,0,1,2.537,1.043,6.187,6.187,0,0,1,.5,3.391,21.894,21.894,0,0,1-1.8,4.448c-.457.857-2.975,5.435-3.469,6.27C89.6,31.007,86.208,38.034,81.5,45.628a4.065,4.065,0,0,1-2.509,1.635c-2.554.793-3.863-1.182-4-3.418-.215-3.405-.137-6.831-.387-10.233s-.657-6.773-1.163-10.133A7.834,7.834,0,0,0,69.35,17.7a1.5,1.5,0,0,0-1.15-.153,9.768,9.768,0,0,0-5.629,4.169c-3.544,5.106-7.55,9.974-9.781,15.865a124.633,124.633,0,0,0-4.278,13.148,11.581,11.581,0,0,0,.237,7.69c.851,1.953.366,3.048-.865,3.493-1.96.714-4.012.155-4.6-1.576a9.785,9.785,0,0,1-.636-4.666,69,69,0,0,1,2.787-11.081A104.213,104.213,0,0,1,56.559,22.619a50.167,50.167,0,0,1,6.2-7.342c4.428-4.484,9.678-3.768,12.9,1.765A28.813,28.813,0,0,1,79.3,30.29c.1,1.992.2,5.541.315,8.1" transform="translate(18.942 3.565)" fill="#97ce1c"/>
          <path id="パス_722" data-name="パス 722" d="M72.382,72.031a11.551,11.551,0,0,1-1.842-3.672,2.357,2.357,0,0,1,.735-2.072,1.8,1.8,0,0,1,1.659-.087,6.972,6.972,0,0,1,2.378,1.778c2.079,2.722,4.008,5.613,4.627,9.031,3.176,17.564-.188,33.549-12,47.287-3.4,3.951-7.147,7.608-10.88,11.252a27.531,27.531,0,0,1-5.295,3.956c-6.1,3.567-12.215,1.348-14.492-5.325a23.867,23.867,0,0,1-1.263-7.086c-.176-8.254.4-16.4,3.349-24.287a34.216,34.216,0,0,1,5.214-9.388A83.547,83.547,0,0,1,60.39,77.823c5.1-3.775,5.877-4.482,11.624-5.234.363-.048.368-.558.368-.558m3.464,5.189c-1.605-.166-2.095,1.721-3.992.613-2.124-1.24-4.307.027-6.244,1.086A49.986,49.986,0,0,0,51.94,89.581c-3.2,3.618-6.461,7.218-8.3,11.731a52.928,52.928,0,0,0-3.045,27.756,14.179,14.179,0,0,0,1.553,4.512c1.695,3.229,4.3,4.119,7.518,2.442a29.232,29.232,0,0,0,5.951-4.028c3.278-2.94,6.416-6.052,9.443-9.253a42.174,42.174,0,0,0,10.52-17.959,65.988,65.988,0,0,0,2.457-14.772c.173-4.3.176-7.634-1.313-12.147a.888.888,0,0,0-.877-.641" transform="translate(16.003 29.369)" fill="#97ce1c"/>
          <path id="パス_723" data-name="パス 723" d="M106.239,108.8c4.716-5.718,9.879-11.043,13.291-17.712.915-1.786,1.812-3.584,2.859-5.292a24.006,24.006,0,0,0,3.8-10.678c.046-.8-.556-2.2-.3-2.963.432-1.167,2.332-1.3,3.574-1.229a2.254,2.254,0,0,1,2.343,2.163l0,.075a10.315,10.315,0,0,1-.6,4.042,67.031,67.031,0,0,1-4.164,8.671c-4.424,7.393-8.4,15.089-14.056,21.687-1.959,2.287-3.878,4.616-5.985,6.757-2.044,2.078-3.661,2-5.621-.14a10.557,10.557,0,0,1-1.867-3.018,25.474,25.474,0,0,1-1.677-10.035c0-5.133-1.514-9.9-3.54-14.512-1.566-3.568-3.646-3.933-6.37-.936a39.6,39.6,0,0,0-9.069,16.093,41.178,41.178,0,0,0-1.505,10.876c-.013,1.257-.633,3.506,1.164,3.907,1.274.283,1.088,1.42.9,2.442a5.662,5.662,0,0,1-3.831,4.658c-1.877.789-3.808-2.735-3.719-5.53a55.5,55.5,0,0,1,1.362-10.711,100.13,100.13,0,0,1,5.751-17.042c2.076-4.805,5.574-8.284,9.36-11.592a3.862,3.862,0,0,1,5-.286,16.285,16.285,0,0,1,6.039,7.31c2.043,5.11,2.609,10.5,3.447,15.839.4,2.547.467,4.388,1.9,7.017.524.961,1.17.555,1.51.143" transform="translate(31.961 31.533)" fill="#97ce1c"/>
          <path id="パス_724" data-name="パス 724" d="M133.77,96.6c-1.823-1.06-3.454-.358-5.032-1.146a17.628,17.628,0,0,1-4.971-3.4c-2.241-2.384-1.955-6.493-.113-8.839,5.551-7.073,11.344-11.9,20.61-13.609a21.482,21.482,0,0,1,5.949.055c1.393.142,2.7,1.726,2.177,2.333-.647.7-1.034,1.507-2.342,1.67-2.364.331-4.968-.3-7.242.308-5.855,1.556-10.206,5.525-14.1,9.906-2.251,2.533-1.335,6.066,1.686,7.605a9.829,9.829,0,0,0,7.027.925c1.939-.491,3.827-1.179,5.751-1.731,1.41-.4,3.914-.472,3.907.961-.016,3.11-1.737,5.035-4.353,6.445-3.183,1.721-6.406,3.375-9.509,5.233-3.269,1.959-6.451,4.073-9.6,6.22-1.973,1.182-5.6,3.638-4.011,5.3,1.355,1.419,4.541,2.135,7.2,1.5a102.045,102.045,0,0,0,14.868-4.89c3.534-1.449,7.053-2.936,10.6-4.343a6.563,6.563,0,0,1,2.855-.62,2.172,2.172,0,0,1,1.482,1.482c.222,2.278-.873,3.756-3.1,4.484-5.153,1.683-10.461,2.991-15.434,5.1a44.049,44.049,0,0,1-12.144,3.313,52.592,52.592,0,0,1-6.6.022,4.594,4.594,0,0,1-1.185-.209c-4.369-1.238-5.819-6.266-2.533-9.424a56.821,56.821,0,0,1,6.711-5.088c3.607-2.554,7.271-5.026,10.889-7.566.289-.2,1.231-.613,1.013-1.216a2.325,2.325,0,0,0-.457-.776" transform="translate(50.618 30.879)" fill="#97ce1c"/>
          <path id="パス_725" data-name="パス 725" d="M180.634,38.577c9.479-5.25,14.41-13.7,18.961-22.691,1.206-2.384,1.472-5.374,1.634-8.119.15-2.589-1.791-3.729-3.993-2.6a20.838,20.838,0,0,0-6.757,4.879c-1.689,2-3.635,3.836-4.292,6.449-.67,2.67-3.67,3.553-4.35,6.3-.618,2.5-2.15,4.772-2.852,7.263-2.284,8.108-4.388,16.257-6.49,24.41a17.061,17.061,0,0,0-.048,2.946,49.11,49.11,0,0,1-.656,6.5,5.742,5.742,0,0,1-1.914,2.921,3.115,3.115,0,0,1-2.657.591,2.817,2.817,0,0,1-1.345-2.313A82.341,82.341,0,0,1,167.86,54.5c3.524-12.757,6.17-25.765,10.713-38.232a3.491,3.491,0,0,0,.357-1.141c-.053-3.191.844-5.48,4.6-5.733.839-.056,1.625-1.072,2.4-1.689,1.884-1.5,3.675-3.128,5.642-4.508A21.48,21.48,0,0,1,196.3.631c5.454-2.037,9.713,1.008,9.548,6.933a21.375,21.375,0,0,1-2.271,9.912A92.6,92.6,0,0,1,197.2,27.652c-2.689,4.919-6.852,7.271-10.349,11.536a19.017,19.017,0,0,0,5.668,8.975c10.1,7.95,20.365,15.685,32.6,20.228,2.04.758,2.754,1.864,2.132,2.954-.889,1.553-2.314,1.459-3.69.981a80.388,80.388,0,0,1-7.856-3,113.759,113.759,0,0,1-20.293-12.9,131.342,131.342,0,0,1-10.989-9.353c-2.127-2.031-3.093-3.889-4.038-7.442a1.943,1.943,0,0,1,.251-1.05" transform="translate(73.769 0)" fill="#97ce1c"/>
          <path id="パス_726" data-name="パス 726" d="M143.3,35.081c3.366-1.914,3.723-4.474,4.185-7.6,1.053-7.128,3.606-13.957,4.314-21.171.272-2.772,1.752-3.417,4.651-2.273.35.139.7.282,1.281.522,2.835-1.947,5.715-4.249,9.516-4.4a32.968,32.968,0,0,1,5.983,0c7.137,1.024,10.928,7.331,8.684,14.238a29.288,29.288,0,0,1-7.472,11.516A35.288,35.288,0,0,1,156.3,36.041c-2.154.446-4.278,1.034-6.468,1.575-1.663,2.676-2.171,5.642-2.7,8.586-1.607,8.881-3.222,17.763-4.729,26.661-.351,2.075-.842,3.905-2.8,5.02-1.072.61-2.787-.049-2.8-1.227a22.413,22.413,0,0,1,.41-4.742c.955-4.515,2.07-8.995,3.08-13.5,1.271-5.676,2.4-11.389,3.8-17.032.519-2.106-1.167-2.965-1.348-5.581-.014-.227.558-.724.558-.724m8-1.656c3.2-.825,6-1.242,8.563-2.268,7.279-2.913,13.388-7.349,16.83-14.66a15.686,15.686,0,0,0,1.42-5.759c.191-3.834-1.76-5.926-5.571-6.566A12.355,12.355,0,0,0,159.3,11.378c-.561,1.355-.77,2.593-2.564,2.835-.585.082-1.274.928-1.539,1.582a61.523,61.523,0,0,0-2.876,7.911c-.724,2.848-1.849,5.72-1.026,9.722" transform="translate(60.837 0.008)" fill="#97ce1c"/>
          <path id="パス_727" data-name="パス 727" d="M225.324,52.108c-1.011-7.209,2.329-13.144,3.54-19.592,1.183-6.3,3.16-12.066,3.909-19.2.139-1.323-1.862-2.229-2.728-3.528-1.238-1.865-.754-3.678,1.335-4.373a35.093,35.093,0,0,1,7.576-1.881,113.028,113.028,0,0,1,12.035-.353A20.679,20.679,0,0,1,261.232,6.4c5.023,2.95,6.484,6.4,5.244,12.162a20.3,20.3,0,0,1-4.094,8.648,164.325,164.325,0,0,1-11.539,13.094c-3.41,3.362-7.424,6.116-11.2,9.1-4.011,3.18-8.433,5.821-13.78,3.368a.827.827,0,0,1-.542-.672M237.711,14.85A187.948,187.948,0,0,0,232.2,38.779a43.08,43.08,0,0,0-.555,5.97c-.043,2.628,1.521,3.525,3.943,2.382a25.981,25.981,0,0,0,2.638-1.435A73.3,73.3,0,0,0,258.8,25.821a26.743,26.743,0,0,0,3.581-6.893c1.579-4.646-.275-8.3-4.778-10.208a10.059,10.059,0,0,0-2.281-.725c-5.353-.876-10.694-1.185-16.126.441,0,0-.873,4.333-1.488,6.415" transform="translate(100.123 1.401)" fill="#97ce1c"/>
          <path id="パス_728" data-name="パス 728" d="M327.215,14.776c-1.695,9.321-4.13,21.09-6.071,29.342-3.16,13.434-3.612,15.223-7.693,29.566-.585,2.059-1.164,2.247-.685,5.837-.052,1.384-1.825,2.781-2.251,3.113-.985.722-2.085,1.789-3.381,1.1-1.562-.828-1.248-3.479-.994-4.96.542-3.16,2.216-5.435,3.282-9.363,2.255-8.316,3.106-10.805,5.146-19.171,1.708-7,3.31-12.542,5.295-20.782,1.237-5.135,3.489-15.8,3.645-22.47a.555.555,0,0,0-.537-.517c-1.007-.055-3.181.134-4.18.137-3.2.23-6.386.662-9.589.835a5.925,5.925,0,0,1-2.788-.831c-.923-.471-.795-2.715.147-3.112a7.784,7.784,0,0,1,2.288-.587Q324.729,1.5,340.616.167a8.753,8.753,0,0,1,2.975.066,2.685,2.685,0,0,1,1.644,1.452c.14.967.3,1.773-.381,2.439-.49.458-2.294.465-3.085.549-4.178.436-6.571.852-11.176,1.228-2.241.182-2.566,4.412-3.378,8.875" transform="translate(135.99 0.031)" fill="#97ce1c"/>
          <path id="パス_729" data-name="パス 729" d="M202.668,11.62a.831.831,0,0,1,.228-.919c6.393-5.736,16.19-6.646,22.893-2.125a11.268,11.268,0,0,1,5.3,8.338,20.572,20.572,0,0,1-.563,8.93A51.786,51.786,0,0,1,224.621,38.3a24.266,24.266,0,0,1-8.385,7.614c-4.522,2.582-8.771,1.946-12.688-1.588a14.733,14.733,0,0,1-5.084-11.686,36.8,36.8,0,0,1,3.051-13.989c.611-1.474,1.31-2.309,2.034-3.759,0,0,.283-.318-.881-3.268m7.924,3.512A8.909,8.909,0,0,0,206.2,20.6c-.932,3.051-1.624,6.181-2.312,9.3a11.484,11.484,0,0,0,.758,6.475c2.525,6.935,6.534,8.2,12.286,3.691,5.431-4.253,8.416-10.1,10.094-16.639.941-3.661.6-7.365-2.092-10.162a11.086,11.086,0,0,0-9.976-3.58c-.194.025-.614.341-.536.522.672,1.526,1.992,2.222,2.45,3.538.25.877-1.209,1.176-2.086,1.424a9.919,9.919,0,0,1-3.933-.065Z" transform="translate(88.257 2.539)" fill="#97ce1c"/>
          <path id="パス_730" data-name="パス 730" d="M265.139,42.508a7.229,7.229,0,0,0,4.9-2.063c6.428-5.75,9.658-13.185,14.2-20.515a34.04,34.04,0,0,0,1.754-3.151c2.616-5.38,2.626-5.8.477-11.205,2.114-1.471,2.9-1.555,4-.462a5.639,5.639,0,0,1,1.674,5.506,26.034,26.034,0,0,1-2.275,6.806C284.1,27.571,279.851,37.31,271.185,45.272c-.152.136-1.066.808-1.209.949-4.991,2.615-10.672.656-11.553-3.96a33.36,33.36,0,0,1-.717-10.146,84.57,84.57,0,0,1,2.918-12.877c1.112-4.054,2.69-7.973,4.083-11.946a8.53,8.53,0,0,1,.769-1.625,2.745,2.745,0,0,1,3.238-.779,2.062,2.062,0,0,1,1.309,2.427,22.334,22.334,0,0,1-1.943,5,39.529,39.529,0,0,0-4.412,12.419,100.831,100.831,0,0,0-1.075,11.345,13.175,13.175,0,0,0,.217,3.912c.391.958.39,1.357,1.173,2.031a2.108,2.108,0,0,0,1.157.487" transform="translate(114.558 1.944)" fill="#97ce1c"/>
          <path id="パス_731" data-name="パス 731" d="M312.718,38.245c-2.748,4.239-4.947,5.961-8.923,8.325-4.357,2.592-10.724,2.511-14.316-1.065a15.522,15.522,0,0,1-4.265-9.1c-.863-5.806.617-11.218,2.949-16.375,1.974-4.367,4.015-8.742,7.465-12.293,1.2-1.237,1.738-3.1,2.679-4.61a2.6,2.6,0,0,1,4.145-.042,3.964,3.964,0,0,1,.178,5,18.526,18.526,0,0,1-2.618,2.429A29.419,29.419,0,0,0,289.829,29.74a15.671,15.671,0,0,0,2.631,11.484,6.582,6.582,0,0,0,8.7,2.072,36.6,36.6,0,0,0,7.24-4.769,18.892,18.892,0,0,0,3.008-3.282c.857-.951,1.417-2.424,2.353-1.527.721.689.173,2.653-1.042,4.528" transform="translate(126.731 0.923)" fill="#97ce1c"/>
          <path id="パス_732" data-name="パス 732" d="M210.782,73.911c2.144-.884,7.734-1.778,10.947-.836,4.167,1.088,8.574,4.57,6.426,10.88A25.329,25.329,0,0,1,217.88,96.908c-1.984,1.332-4.169,2.358-6.656,3.742a19.564,19.564,0,0,0,1.669,2.872c1.924,2.313,3.889,4.6,5.962,6.773a40.981,40.981,0,0,0,14.124,10c5.736,2.364,12.94,5.474,19.242,6.023,2.82.247,3.849,1.7,3.307,2.989-1.156,2.788-4.639,2.879-6.711,2.255-2.491-.75-4.957-1.611-7.372-2.588-6.511-2.635-13.007-5.353-18.763-9.457a62.388,62.388,0,0,1-7.9-6.456,161.97,161.97,0,0,1-11.471-12.325c-.709-.874-1.154-1.006-1.357-.6-2.1,4.3-2.856,8.993-3.889,13.583a6.527,6.527,0,0,0,.432,2.9c.763,2.823-.332,5.088-2.166,7.056a2.694,2.694,0,0,1-3.248.835c-1.371-.63-1.492-1.768-1.212-3.031a214.393,214.393,0,0,1,8.233-28.22c1.011-2.728,2.615-5.321.9-8.566-.955-1.8,1.576-2.888,3.054-3.934,2.975-2.108,4.291-5.845,6.724-6.849m-6.724,19.245c5.312,3.846,7.085,3.935,11.63.815a20.022,20.022,0,0,0,3.256-2.624c2.339-2.47,4.5-5.135,5.237-8.554.727-3.388-2.715-6.657-6.121-6.04-2.405.435-3.092.633-4.7,2.186-.857.828-1.24,2.521-1.927,3.5-1.695,2.411-2.345,5.093-5.461,6.282-1.068.407-1.67,2.653-1.911,4.435" transform="translate(85.277 32.319)" fill="#97ce1c"/>
          <path id="パス_733" data-name="パス 733" d="M269.109,91.055c-1.9-.143-3.519-.136-5.087-.407a9.3,9.3,0,0,1-7.682-10.672,9.4,9.4,0,0,1,.413-1.612,6.041,6.041,0,0,1,2.628-3.077,81.126,81.126,0,0,1,10.448-4.6,10.3,10.3,0,0,1,5.3-.068c3.213.7,3.808,2.71,1.856,6.172-.368.545-.815.428-1.237.3-1.677-.5-2.8-2.286-4.908-1.939a16.631,16.631,0,0,0-7.567,3.515c-1.588,1.234-1.7,3.066-1.289,4.953a3.8,3.8,0,0,0,3.376,3.008,15.391,15.391,0,0,0,4.762,0c2.174-.331,4.284-1.1,6.458-1.436a3.356,3.356,0,0,1,3.545,1.55c.42,2.654-1.322,4.363-3.992,5.894-4.253,2.44-7.211,6.363-10.609,9.753a14.251,14.251,0,0,0-2.719,4.633c-1.008,2.42-.16,4.583,2.4,5.263a22.694,22.694,0,0,0,8.272.916,73.3,73.3,0,0,0,20.875-5.607c8.262-3.652,12.426-9.6,20.655-13.33,1.117-.506,2.255-1.1,3.323-.136,1.032.93.954,2.307.682,3.516a6.477,6.477,0,0,1-.884,1.841c-2.53,3.6-10.552,6.732-17.5,10.21a90.175,90.175,0,0,1-19.219,6.919c-5.11,1.16-10.276,1.917-15.524.86a22.87,22.87,0,0,1-2.353-.5c-6.423-2.031-8.787-6.183-5.2-12.38a31.682,31.682,0,0,1,6.589-7.748c1.773-1.578,4.154-3.045,4.778-5.725" transform="translate(113.947 31.264)" fill="#97ce1c"/>
          <path id="パス_734" data-name="パス 734" d="M239.677,94.23c-2.975-1.075-4.929-1.594-6.7-2.473a22.809,22.809,0,0,1-4.99-3.242,4.623,4.623,0,0,1-.392-6.935c6.377-6.3,13.436-11.517,22.639-12.846a13.887,13.887,0,0,1,4.151.121,1.971,1.971,0,0,1,1.764,2.091c-.415,1.232-1.531,1.1-2.463,1.15-7.1.39-13.141,3.4-18.757,7.478A11.222,11.222,0,0,0,233.1,81.14c-2.426,2.741-2.012,4.929,1.271,6.761A14.465,14.465,0,0,0,245.4,89.638c1.609-.419,3.157-.828,4.307.933A6.351,6.351,0,0,1,245.65,96q-1.632.782-3.255,1.578A22.811,22.811,0,0,0,233,105.787a1.852,1.852,0,0,0,2.095,2.287,31.431,31.431,0,0,0,6.547-.809c5.451-1.362,10.85-2.939,16.273-4.414a4.876,4.876,0,0,1,2.294-.406c.569.16,1.4,1.134,1.312,1.583a4.712,4.712,0,0,1-3.778,4.135c-5.3,1.114-10.571,2.39-15.876,3.489a57.642,57.642,0,0,1-6.559.87,10.071,10.071,0,0,1-6.331-1.565c-3.112-1.934-3.376-5.1-.592-7.411,3.531-2.936,7.081-5.845,11.288-9.316" transform="translate(100.6 30.522)" fill="#97ce1c"/>
          <path id="パス_735" data-name="パス 735" d="M193.272,80.494a32.493,32.493,0,0,1-1.14,4.9A110.616,110.616,0,0,0,187.808,101c-1.323,5.847-3.365,11.53-5.02,17.3-3.259,11.364-6.555,22.728-9.646,34.14-.868,3.2-2.092,9.415-1.735,10.518,1.289,3.983-1.523,7.605-3.96,11.117a3.408,3.408,0,0,1-2.518,1.058c-1.029-.009-1.946-1.677-1.659-2.822a28.135,28.135,0,0,1,1.488-4.565c2.541-5.7,3.922-11.767,5.673-17.714,2.144-7.28,4.19-14.59,6.192-21.911q3.166-11.583,6.163-23.214c1.6-6.205,2.952-12.477,4.7-18.64a28.043,28.043,0,0,0,.686-7.128,2.415,2.415,0,0,1,2.342-2.271,2.732,2.732,0,0,1,2.635,2.047c.064.393.068.793.129,1.572" transform="translate(72.586 34.187)" fill="#97ce1c"/>
          <path id="パス_736" data-name="パス 736" d="M207.73,69.756c-4.2,1.047-6.023.994-9.908,1.9-4.1.954-8.161,2.049-12.276,2.939s-8.268,1.621-12.415,2.379a4.84,4.84,0,0,1-1.783-.077c-1.072-.212-2.01-.861-1.81-1.991A5.032,5.032,0,0,1,171,72.54a2.685,2.685,0,0,1,1.7-.432c8.137-.2,15.743-3.051,23.6-4.659,3.532-.722,7.088-1.393,10.663-1.823,1.8-.218,4.6,1.367,2.861,3.345a7.185,7.185,0,0,1-2.1.786" transform="translate(75.386 29.176)" fill="#97ce1c"/>
        </g>
      </g>
    </g>
  </g>
</svg>
