<svg xmlns="http://www.w3.org/2000/svg" width="131.558" height="68.707" viewBox="0 0 131.558 68.707">
  <g id="グループ_1055" data-name="グループ 1055" transform="translate(-121.901 -228.794)">
    <path id="パス_745" data-name="パス 745" d="M1.946-6.426c.028-1.344.35-1.862,1.148-1.862.686,0,1.148.574,1.148,1.442,0,.784-.336,1.358-1.274,2.212C.84-2.8.378-2,.294,0H5.866V-1.722H2.324c.182-.378.322-.532,1.246-1.33a15.749,15.749,0,0,0,1.316-1.19,3.665,3.665,0,0,0,.966-2.576A2.82,2.82,0,0,0,3.066-9.94,2.381,2.381,0,0,0,.9-8.736a4.314,4.314,0,0,0-.5,2.31ZM9.618-9.94a2.291,2.291,0,0,0-2.17,1.218,8.773,8.773,0,0,0-.7,3.92c0,3.43.91,5.068,2.828,5.068a2.317,2.317,0,0,0,2.24-1.442A9.839,9.839,0,0,0,12.4-4.844,12,12,0,0,0,12-8.036a3.164,3.164,0,0,0-.574-1.092A2.251,2.251,0,0,0,9.618-9.94ZM9.59-8.372c.868,0,1.162.882,1.162,3.528S10.458-1.3,9.576-1.3,8.4-2.184,8.4-4.7C8.4-7.532,8.666-8.372,9.59-8.372Zm5.124,1.946c.028-1.344.35-1.862,1.148-1.862.686,0,1.148.574,1.148,1.442,0,.784-.336,1.358-1.274,2.212C13.608-2.8,13.146-2,13.062,0h5.572V-1.722H15.092c.182-.378.322-.532,1.246-1.33a15.749,15.749,0,0,0,1.316-1.19,3.665,3.665,0,0,0,.966-2.576A2.82,2.82,0,0,0,15.834-9.94a2.381,2.381,0,0,0-2.17,1.2,4.314,4.314,0,0,0-.5,2.31ZM21.6-4.354c1.33.014,1.82.406,1.82,1.442,0,.966-.49,1.61-1.218,1.61s-1.148-.574-1.162-1.624l-.014-.126H19.46a3.621,3.621,0,0,0,.7,2.422,2.622,2.622,0,0,0,2.086.9c1.68,0,2.828-1.3,2.828-3.206a2.279,2.279,0,0,0-1.246-2.324,2.085,2.085,0,0,0,.994-1.96A2.494,2.494,0,0,0,22.246-9.94a2.415,2.415,0,0,0-2.184,1.19,3.71,3.71,0,0,0-.462,2h1.484c.014-1.106.364-1.624,1.092-1.624.644,0,1.036.5,1.036,1.316,0,.882-.434,1.3-1.358,1.3H21.6Z" transform="translate(122.167 228.5) rotate(90)" fill="#fff"/>
    <g id="グループ_2039" data-name="グループ 2039" transform="translate(8641 12324.914)">
      <g id="グループ_1145" data-name="グループ 1145" transform="translate(-8493 -12096)">
        <g id="グループ_1151" data-name="グループ 1151" transform="translate(0 0)">
          <path id="パス_647" data-name="パス 647" d="M6.837,17.164a6,6,0,0,1-4.708-2.054A10.129,10.129,0,0,1,0,8.605,10.166,10.166,0,0,1,2.128,2.054,6.034,6.034,0,0,1,6.933,0a6.034,6.034,0,0,1,5.615,3.551,11.5,11.5,0,0,1,1.125,5.054,10.129,10.129,0,0,1-2.129,6.5,6,6,0,0,1-4.708,2.054M6.764,1.819c-2.972,0-4.97,2.718-4.97,6.762s2.026,6.763,5.042,6.763,5.042-2.718,5.042-6.763c0-4.108-2.008-6.762-5.114-6.762" transform="translate(0 0)" fill="#fff"/>
          <path id="パス_648" data-name="パス 648" d="M40.814,22.17a.18.18,0,0,1-.185-.176V14.741c0-2.25-.684-3.253-2.217-3.253-1.815,0-2.941,1.572-2.941,4.1v6.4a.18.18,0,0,1-.185.176H34.1a.181.181,0,0,1-.185-.176v-11.6a.181.181,0,0,1,.185-.176h1.087a.18.18,0,0,1,.185.176v1.185a.178.178,0,0,0,.184.175.189.189,0,0,0,.158-.084,3.387,3.387,0,0,1,3.057-1.8c2.167,0,3.409,1.489,3.409,4.086v8.034A.181.181,0,0,1,42,22.17Z" transform="translate(-18.239 -5.31)" fill="#fff"/>
          <path id="パス_649" data-name="パス 649" d="M60.852,22.382c-2.877,0-4.664-2.313-4.664-6.036,0-3.931,1.887-6.472,4.808-6.472a3.666,3.666,0,0,1,3.538,2.266,9.516,9.516,0,0,1,.875,4.369.173.173,0,0,1-.054.131.186.186,0,0,1-.132.054H58.439a.563.563,0,0,0-.4.166.517.517,0,0,0-.152.4,4.362,4.362,0,0,0,.593,2.231,2.7,2.7,0,0,0,2.422,1.3,2.782,2.782,0,0,0,2.784-2.2.18.18,0,0,1,.178-.143h1.168a.182.182,0,0,1,.184.214,4.287,4.287,0,0,1-4.361,3.716m.073-10.9c-1.579,0-2.764,1.249-3.018,3.181a.512.512,0,0,0,.136.416.57.57,0,0,0,.417.179H63.2a.569.569,0,0,0,.412-.176.509.509,0,0,0,.14-.408,4.363,4.363,0,0,0-.619-2,2.564,2.564,0,0,0-2.2-1.19" transform="translate(-30.215 -5.31)" fill="#fff"/>
          <path id="パス_650" data-name="パス 650" d="M89.9,17.191V.942h5.626c2.472,0,4.133,1.836,4.133,4.568,0,2.9-1.622,4.775-4.133,4.775H92.2a.541.541,0,0,0-.554.527v6.379a.181.181,0,0,1-.185.176H90.079a.18.18,0,0,1-.184-.176M92.2,2.67a.541.541,0,0,0-.554.527V8.03a.541.541,0,0,0,.554.527h2.673a2.645,2.645,0,0,0,2.99-2.978c0-1.958-.954-2.909-2.917-2.909Z" transform="translate(-48.342 -0.507)" fill="#fff"/>
          <path id="パス_651" data-name="パス 651" d="M114.442,22.094v-11.6a.18.18,0,0,1,.185-.176h1.086a.18.18,0,0,1,.185.176v1.423a.178.178,0,0,0,.185.174.185.185,0,0,0,.163-.093c.833-1.457,1.517-1.938,2.62-1.938,1.033,0,1.572,1.5.608,1.925-.638.283-1.157-.11-1.472-.139-1.613-.145-2.007,1.5-2.007,3.384v6.864a.18.18,0,0,1-.185.176h-1.183a.18.18,0,0,1-.185-.176" transform="translate(-61.542 -5.41)" fill="#fff"/>
          <path id="パス_652" data-name="パス 652" d="M131.646,22.359c-2.774,0-4.712-2.558-4.712-6.22,0-3.747,1.923-6.266,4.785-6.266,2.731,0,4.64,2.567,4.64,6.243s-1.938,6.243-4.713,6.243m-.048-10.9c-1.845,0-3.038,1.826-3.038,4.652s1.212,4.652,3.086,4.652,3.087-1.826,3.087-4.652-1.23-4.652-3.135-4.652" transform="translate(-68.26 -5.31)" fill="#fff"/>
          <path id="パス_653" data-name="パス 653" d="M155.2,17.58c-2.7,0-4.446-2.567-4.446-6.541,0-3.625,1.641-5.967,4.181-5.967a3.088,3.088,0,0,1,2.908,1.8.186.186,0,0,0,.162.091.178.178,0,0,0,.185-.175V1.119a.18.18,0,0,1,.185-.176h1.183a.18.18,0,0,1,.185.176V17.191a.18.18,0,0,1-.185.176h-1.087a.18.18,0,0,1-.185-.176V15.97a.179.179,0,0,0-.186-.176.181.181,0,0,0-.16.092,2.846,2.846,0,0,1-2.74,1.694m.024-10.9c-1.888,0-2.845,1.511-2.845,4.492,0,3.059,1.037,4.813,2.845,4.813a2.564,2.564,0,0,0,2-.952,5.056,5.056,0,0,0,.937-3.4c0-4.092-1.6-4.951-2.941-4.951" transform="translate(-81.067 -0.507)" fill="#fff"/>
          <path id="パス_654" data-name="パス 654" d="M178.858,22.782c-2.1,0-3.312-1.322-3.312-3.628V10.794a.18.18,0,0,1,.185-.176h1.183a.18.18,0,0,1,.185.176v7.7c0,2.234,1.14,2.7,2.1,2.7,1.787,0,2.942-1.592,2.942-4.056V10.794a.18.18,0,0,1,.185-.176h1.183a.18.18,0,0,1,.185.176v11.6a.18.18,0,0,1-.185.176h-1.087a.18.18,0,0,1-.185-.176V21.01a.178.178,0,0,0-.184-.175.188.188,0,0,0-.162.09,3.087,3.087,0,0,1-3.03,1.857" transform="translate(-94.401 -5.71)" fill="#fff"/>
          <path id="パス_655" data-name="パス 655" d="M201.858,22.382c-2.76,0-4.543-2.369-4.543-6.036,0-3.931,1.887-6.472,4.808-6.472,2.252,0,3.506,1.376,3.833,4.205h-1.508c-.3-1.792-1.075-2.592-2.493-2.592-1.857,0-2.966,1.756-2.966,4.7,0,2.971,1.01,4.607,2.845,4.607,1.355,0,2.234-.949,2.612-2.822h1.508c-.42,2.928-1.8,4.412-4.1,4.412" transform="translate(-106.107 -5.31)" fill="#fff"/>
          <path id="パス_656" data-name="パス 656" d="M221.437,18.7c-1.321,0-1.935-.788-1.935-2.481V8.437a.542.542,0,0,0-.555-.527H218.1V6.723h.845A.542.542,0,0,0,219.5,6.2V3.374h1.553V6.2a.542.542,0,0,0,.555.527h1.135V7.91h-1.135a.542.542,0,0,0-.555.527v7.67c0,.712.33,1.029,1.071,1.029h.6v1.42a5.982,5.982,0,0,1-.68.08,2.808,2.808,0,0,1-.6.069" transform="translate(-117.285 -1.814)" fill="#fff"/>
        </g>
      </g>
      <g id="グループ_1147" data-name="グループ 1147" transform="translate(-8493 -12072.372)">
        <g id="グループ_1150" data-name="グループ 1150" transform="translate(0 0)">
          <path id="パス_657" data-name="パス 657" d="M6.837,17.164a6,6,0,0,1-4.708-2.054A10.129,10.129,0,0,1,0,8.605,10.166,10.166,0,0,1,2.128,2.054,6.034,6.034,0,0,1,6.933,0a6.034,6.034,0,0,1,5.615,3.551,11.5,11.5,0,0,1,1.125,5.054,10.129,10.129,0,0,1-2.129,6.5,6,6,0,0,1-4.708,2.054M6.764,1.819c-2.972,0-4.97,2.718-4.97,6.762s2.026,6.763,5.042,6.763,5.042-2.718,5.042-6.763c0-4.108-2.008-6.762-5.114-6.762" transform="translate(0 0)" fill="#fff"/>
          <path id="パス_658" data-name="パス 658" d="M40.814,22.17a.18.18,0,0,1-.185-.176V14.741c0-2.25-.684-3.253-2.217-3.253-1.815,0-2.941,1.572-2.941,4.1v6.4a.18.18,0,0,1-.185.176H34.1a.181.181,0,0,1-.185-.176v-11.6a.181.181,0,0,1,.185-.176h1.087a.18.18,0,0,1,.185.176v1.185a.178.178,0,0,0,.184.175.189.189,0,0,0,.158-.084,3.387,3.387,0,0,1,3.057-1.8c2.167,0,3.409,1.489,3.409,4.086v8.034A.181.181,0,0,1,42,22.17Z" transform="translate(-18.239 -5.31)" fill="#fff"/>
          <path id="パス_659" data-name="パス 659" d="M60.852,22.382c-2.877,0-4.664-2.313-4.664-6.036,0-3.931,1.887-6.472,4.808-6.472a3.666,3.666,0,0,1,3.538,2.266,9.516,9.516,0,0,1,.875,4.369.173.173,0,0,1-.054.131.186.186,0,0,1-.132.054H58.439a.563.563,0,0,0-.4.166.517.517,0,0,0-.152.4,4.362,4.362,0,0,0,.593,2.231,2.7,2.7,0,0,0,2.422,1.3,2.782,2.782,0,0,0,2.784-2.2.18.18,0,0,1,.178-.143h1.168a.182.182,0,0,1,.184.214,4.287,4.287,0,0,1-4.361,3.716m.073-10.9c-1.579,0-2.764,1.249-3.018,3.181a.512.512,0,0,0,.136.416.57.57,0,0,0,.417.179H63.2a.569.569,0,0,0,.412-.176.509.509,0,0,0,.14-.408,4.363,4.363,0,0,0-.619-2,2.564,2.564,0,0,0-2.2-1.19" transform="translate(-30.215 -5.31)" fill="#fff"/>
          <path id="パス_660" data-name="パス 660" d="M107.652,22.094v-11.6a.18.18,0,0,1,.185-.176h1.086a.18.18,0,0,1,.185.176v1.423a.178.178,0,0,0,.185.174.185.185,0,0,0,.163-.093c.833-1.457,1.517-1.938,2.62-1.938,1.033,0,1.572,1.5.608,1.925-.638.283-1.157-.11-1.472-.139-1.613-.145-2.007,1.5-2.007,3.384v6.864a.18.18,0,0,1-.185.176h-1.183a.18.18,0,0,1-.185-.176" transform="translate(-57.891 -5.41)" fill="#fff"/>
          <path id="パス_661" data-name="パス 661" d="M87.412,17.367V3.289a.542.542,0,0,0-.555-.527H82.583V.943h11.38V2.762H89.713a.542.542,0,0,0-.555.527V17.367Z" transform="translate(-44.41 -0.507)" fill="#fff"/>
          <path id="パス_662" data-name="パス 662" d="M125.123,22.382c-2.877,0-4.664-2.313-4.664-6.036,0-3.931,1.887-6.472,4.808-6.472a3.666,3.666,0,0,1,3.538,2.266,9.516,9.516,0,0,1,.875,4.369.173.173,0,0,1-.054.131.186.186,0,0,1-.132.054H122.71a.563.563,0,0,0-.4.166.517.517,0,0,0-.152.4,4.362,4.362,0,0,0,.593,2.231,2.7,2.7,0,0,0,2.422,1.3,2.782,2.782,0,0,0,2.784-2.2.18.18,0,0,1,.178-.143H129.3a.182.182,0,0,1,.184.214,4.287,4.287,0,0,1-4.361,3.716m.073-10.9c-1.579,0-2.764,1.249-3.018,3.181a.512.512,0,0,0,.136.416.57.57,0,0,0,.417.179h4.736a.569.569,0,0,0,.412-.176.508.508,0,0,0,.14-.408,4.363,4.363,0,0,0-.619-2,2.564,2.564,0,0,0-2.2-1.19" transform="translate(-64.778 -5.31)" fill="#fff"/>
          <path id="パス_663" data-name="パス 663" d="M148.464,22.382c-2.877,0-4.664-2.313-4.664-6.036,0-3.931,1.887-6.472,4.808-6.472a3.666,3.666,0,0,1,3.538,2.266,9.516,9.516,0,0,1,.875,4.369.173.173,0,0,1-.054.131.186.186,0,0,1-.132.054h-6.785a.563.563,0,0,0-.4.166.517.517,0,0,0-.152.4,4.362,4.362,0,0,0,.593,2.231,2.7,2.7,0,0,0,2.422,1.3,2.782,2.782,0,0,0,2.784-2.2.18.18,0,0,1,.178-.143h1.168a.182.182,0,0,1,.184.214,4.287,4.287,0,0,1-4.361,3.716m.073-10.9c-1.579,0-2.764,1.249-3.018,3.181a.512.512,0,0,0,.136.416.57.57,0,0,0,.417.179h4.736a.569.569,0,0,0,.412-.176.508.508,0,0,0,.14-.408,4.363,4.363,0,0,0-.619-2,2.564,2.564,0,0,0-2.2-1.19" transform="translate(-77.329 -5.31)" fill="#fff"/>
        </g>
      </g>
      <g id="グループ_1149" data-name="グループ 1149" transform="translate(-8493 -12049.195)">
        <g id="グループ_1152" data-name="グループ 1152" transform="translate(0)">
          <path id="パス_664" data-name="パス 664" d="M6.308,17.17C2.417,17.17,0,13.89,0,8.608,0,3.3,2.509,0,6.549,0a5.4,5.4,0,0,1,4.823,2.571,5.627,5.627,0,0,1,.864,2.442.181.181,0,0,1-.184.2H10.729a.186.186,0,0,1-.179-.137A3.978,3.978,0,0,0,9.244,2.715,4.186,4.186,0,0,0,6.6,1.82c-3.007,0-4.8,2.563-4.8,6.857,0,4.24,1.706,6.673,4.681,6.673a3.732,3.732,0,0,0,3.217-1.714A6.477,6.477,0,0,0,10.7,11a.186.186,0,0,1,.181-.144h1.3a.182.182,0,0,1,.182.212c-.458,2.324-.982,3.476-2.016,4.48a5.6,5.6,0,0,1-4.04,1.625" transform="translate(0)" fill="#fff"/>
          <path id="パス_665" data-name="パス 665" d="M33.508,22.386a3.115,3.115,0,0,1-3.217-3.423,3.342,3.342,0,0,1,3.062-3.63s2.28-.241,3.022-.347c.7-.1.848-.6.848-1.53,0-1.383-.836-2.084-2.484-2.084a2.209,2.209,0,0,0-2.5,2.168.183.183,0,0,1-.181.149H31a.182.182,0,0,1-.185-.191,4,4,0,0,1,.6-2.085A3.872,3.872,0,0,1,34.86,9.873c2.422,0,3.868,1.219,3.868,3.262v6.906c0,.508.236.8.648.8a1.966,1.966,0,0,0,.511-.07v1.167a1.5,1.5,0,0,1-.922.334c-1.073,0-1.526-.419-1.673-1.549a.179.179,0,0,0-.183-.154.189.189,0,0,0-.143.065,4.23,4.23,0,0,1-3.46,1.753m3.465-6.379a15.061,15.061,0,0,1-2.917.69c-1.617.256-2.138.846-2.138,2.082,0,1.359.694,2.107,1.952,2.107a3.169,3.169,0,0,0,3.3-2.91V16.185c0-.1.024-.256-.2-.178" transform="translate(-16.284 -5.308)" fill="#fff"/>
          <path id="パス_666" data-name="パス 666" d="M116.258,22.386a3.115,3.115,0,0,1-3.217-3.423,3.342,3.342,0,0,1,3.062-3.63s2.28-.241,3.022-.347c.7-.1.848-.6.848-1.53,0-1.383-.836-2.084-2.484-2.084a2.209,2.209,0,0,0-2.5,2.168.183.183,0,0,1-.181.149h-1.06a.182.182,0,0,1-.185-.191,4,4,0,0,1,.6-2.085,3.872,3.872,0,0,1,3.447-1.541c2.422,0,3.868,1.219,3.868,3.262v6.906c0,.508.236.8.648.8a1.966,1.966,0,0,0,.511-.07v1.167a1.5,1.5,0,0,1-.922.334c-1.073,0-1.526-.419-1.673-1.549a.179.179,0,0,0-.183-.154.189.189,0,0,0-.143.065,4.23,4.23,0,0,1-3.46,1.753m3.465-6.379a15.061,15.061,0,0,1-2.917.69c-1.617.256-2.138.846-2.138,2.082,0,1.359.694,2.107,1.952,2.107a3.169,3.169,0,0,0,3.3-2.91V16.185c0-.1.024-.256-.2-.178" transform="translate(-60.77 -5.308)" fill="#fff"/>
          <path id="パス_667" data-name="パス 667" d="M67.82,22.174v-7.8c0-1.943-.646-2.887-1.976-2.887-1.447,0-2.58,1.46-2.58,3.323v7.363H61.71v-8.35c0-1.463-.64-2.337-1.711-2.337-1.728,0-2.846,1.611-2.846,4.1v6.583H55.6V10.394a.18.18,0,0,1,.185-.176h1.088a.18.18,0,0,1,.185.176v1.184a.178.178,0,0,0,.185.174.187.187,0,0,0,.158-.084,3.308,3.308,0,0,1,2.962-1.795,2.626,2.626,0,0,1,2.58,1.764.19.19,0,0,0,.316.031c1.1-1.409,1.735-1.795,2.948-1.795,1.983,0,3.167,1.476,3.167,3.95v8.35Z" transform="translate(-29.89 -5.308)" fill="#fff"/>
          <path id="パス_668" data-name="パス 668" d="M90.666,26.616V10.394a.18.18,0,0,1,.185-.176h1.087a.18.18,0,0,1,.185.176v1.184a.178.178,0,0,0,.184.174.187.187,0,0,0,.159-.085A3.116,3.116,0,0,1,95.38,9.874c2.5,0,4.182,2.4,4.182,5.969,0,3.975-1.736,6.543-4.423,6.543a2.826,2.826,0,0,1-2.577-1.366.19.19,0,0,0-.157-.082.178.178,0,0,0-.185.175v5.5a.18.18,0,0,1-.185.176H90.851a.18.18,0,0,1-.185-.176m4.351-15.128c-1.309,0-2.87.875-2.87,5.044,0,2.63,1.127,4.264,2.942,4.264s2.846-1.763,2.846-4.837c0-2.966-.982-4.471-2.919-4.471" transform="translate(-48.741 -5.308)" fill="#fff"/>
          <path id="パス_669" data-name="パス 669" d="M138.163,22.4v-11.6a.18.18,0,0,1,.185-.176h1.184a.18.18,0,0,1,.185.176V22.4a.18.18,0,0,1-.185.176h-1.184a.18.18,0,0,1-.185-.176" transform="translate(-74.275 -5.709)" fill="#fff"/>
          <path id="パス_670" data-name="パス 670" d="M150.725,27.09a4.223,4.223,0,0,1-2.5-.717,3.463,3.463,0,0,1-1.332-2.477.18.18,0,0,1,.182-.209h1.192a.184.184,0,0,1,.177.134,2.146,2.146,0,0,0,2.358,1.771,2.612,2.612,0,0,0,2.6-1.4,5.962,5.962,0,0,0,.468-2.906V20.8c0-.271-.129-.112-.173-.039a2.937,2.937,0,0,1-2.769,1.63c-2.673,0-4.4-2.568-4.4-6.543,0-3.57,1.681-5.969,4.182-5.969a3.116,3.116,0,0,1,2.913,1.793.188.188,0,0,0,.16.085.177.177,0,0,0,.184-.174V10.394a.18.18,0,0,1,.185-.176h1.087a.18.18,0,0,1,.185.176V21.143a7.43,7.43,0,0,1-.832,4.063,4.181,4.181,0,0,1-3.857,1.884m.266-15.6c-1.3,0-2.846.78-2.846,4.493,0,3.06,1.037,4.815,2.846,4.815a2.565,2.565,0,0,0,2-.952,5.059,5.059,0,0,0,.937-3.4c0-4.093-1.6-4.952-2.942-4.952" transform="translate(-78.767 -5.308)" fill="#fff"/>
          <path id="パス_671" data-name="パス 671" d="M177.777,22.174a.18.18,0,0,1-.185-.176V14.742c0-2.251-.684-3.254-2.218-3.254-1.815,0-2.942,1.572-2.942,4.1V22a.18.18,0,0,1-.185.176h-1.184a.181.181,0,0,1-.185-.176v-11.6a.181.181,0,0,1,.185-.176h1.088a.18.18,0,0,1,.185.176v1.185a.178.178,0,0,0,.184.174.189.189,0,0,0,.159-.085,3.387,3.387,0,0,1,3.058-1.8c2.167,0,3.409,1.49,3.409,4.088V22a.18.18,0,0,1-.185.176Z" transform="translate(-91.863 -5.308)" fill="#fff"/>
          <path id="パス_672" data-name="パス 672" d="M138.546,3.85a1.09,1.09,0,0,1-1.115-1.06,1.117,1.117,0,0,1,2.231,0,1.09,1.09,0,0,1-1.115,1.06" transform="translate(-73.882 -0.931)" fill="#fff"/>
        </g>
      </g>
    </g>
  </g>
</svg>
