<svg xmlns="http://www.w3.org/2000/svg" width="225.43" height="113.23" viewBox="0 0 225.43 113.23">
  <g id="グループ_2113" data-name="グループ 2113" transform="translate(-102.673 -101)">
    <path id="パス_742" data-name="パス 742" d="M3.614-11.934c.052-2.5.65-3.458,2.132-3.458,1.274,0,2.132,1.066,2.132,2.678,0,1.456-.624,2.522-2.366,4.108C1.56-5.2.7-3.718.546,0H10.894V-3.2H4.316c.338-.7.6-.988,2.314-2.47a29.248,29.248,0,0,0,2.444-2.21,6.807,6.807,0,0,0,1.794-4.784c0-3.458-2.106-5.8-5.174-5.8a4.422,4.422,0,0,0-4.03,2.236,8.011,8.011,0,0,0-.936,4.29ZM17.862-18.46a4.256,4.256,0,0,0-4.03,2.262c-.806,1.378-1.3,4.134-1.3,7.28,0,6.37,1.69,9.412,5.252,9.412a4.3,4.3,0,0,0,4.16-2.678A18.272,18.272,0,0,0,23.036-9a22.278,22.278,0,0,0-.754-5.928,5.876,5.876,0,0,0-1.066-2.028A4.18,4.18,0,0,0,17.862-18.46Zm-.052,2.912c1.612,0,2.158,1.638,2.158,6.552,0,4.94-.546,6.578-2.184,6.578-1.612,0-2.184-1.638-2.184-6.318C15.6-13.988,16.094-15.548,17.81-15.548Zm9.516,3.614c.052-2.5.65-3.458,2.132-3.458,1.274,0,2.132,1.066,2.132,2.678,0,1.456-.624,2.522-2.366,4.108C25.272-5.2,24.414-3.718,24.258,0H34.606V-3.2H28.028c.338-.7.6-.988,2.314-2.47a29.248,29.248,0,0,0,2.444-2.21,6.807,6.807,0,0,0,1.794-4.784c0-3.458-2.106-5.8-5.174-5.8a4.422,4.422,0,0,0-4.03,2.236,8.011,8.011,0,0,0-.936,4.29ZM40.118-8.086c2.47.026,3.38.754,3.38,2.678,0,1.794-.91,2.99-2.262,2.99S39.1-3.484,39.078-5.434l-.026-.234H36.14c.078,2.236.416,3.432,1.3,4.5A4.87,4.87,0,0,0,41.314.494c3.12,0,5.252-2.418,5.252-5.954,0-2.184-.78-3.64-2.314-4.316a3.872,3.872,0,0,0,1.846-3.64c0-3.042-1.9-5.044-4.784-5.044a4.486,4.486,0,0,0-4.056,2.21,6.89,6.89,0,0,0-.858,3.718h2.756c.026-2.054.676-3.016,2.028-3.016,1.2,0,1.924.936,1.924,2.444,0,1.638-.806,2.418-2.522,2.418h-.468Z" transform="translate(103.167 101) rotate(90)" fill="#fff"/>
    <g id="グループ_2040" data-name="グループ 2040" transform="translate(8647 12197)">
      <g id="グループ_1145" data-name="グループ 1145" transform="translate(-8493 -12096)">
        <g id="グループ_1151" data-name="グループ 1151" transform="translate(0 0)">
          <path id="パス_647" data-name="パス 647" d="M11.287,28.335a9.9,9.9,0,0,1-7.773-3.391A16.722,16.722,0,0,1,0,14.206,16.784,16.784,0,0,1,3.513,3.391,9.961,9.961,0,0,1,11.446,0a9.961,9.961,0,0,1,9.27,5.862,18.979,18.979,0,0,1,1.857,8.344,16.722,16.722,0,0,1-3.514,10.739,9.9,9.9,0,0,1-7.772,3.391M11.167,3c-4.907,0-8.2,4.486-8.2,11.164s3.346,11.164,8.324,11.164,8.323-4.486,8.323-11.164C19.61,7.386,16.3,3,11.167,3" transform="translate(0 0)" fill="#fff"/>
          <path id="パス_648" data-name="パス 648" d="M45.3,30.173a.3.3,0,0,1-.305-.29V17.908c0-3.714-1.129-5.371-3.661-5.371-3,0-4.856,2.595-4.856,6.772V29.883a.3.3,0,0,1-.305.29H34.222a.3.3,0,0,1-.305-.29V10.732a.3.3,0,0,1,.305-.29h1.795a.3.3,0,0,1,.305.29v1.957a.293.293,0,0,0,.3.288.313.313,0,0,0,.261-.139,5.591,5.591,0,0,1,5.047-2.964c3.577,0,5.627,2.459,5.627,6.746V29.883a.3.3,0,0,1-.305.29Z" transform="translate(-8.034 -2.339)" fill="#fff"/>
          <path id="パス_649" data-name="パス 649" d="M63.887,30.524c-4.749,0-7.7-3.818-7.7-9.966,0-6.49,3.116-10.684,7.938-10.684a6.053,6.053,0,0,1,5.842,3.742c.961,1.9,1.312,3.651,1.445,7.212a.286.286,0,0,1-.089.217.307.307,0,0,1-.217.089H59.9a.929.929,0,0,0-.665.274.853.853,0,0,0-.25.653,7.2,7.2,0,0,0,.979,3.684,4.452,4.452,0,0,0,4,2.154,4.593,4.593,0,0,0,4.6-3.626.3.3,0,0,1,.294-.237h1.928a.3.3,0,0,1,.3.354c-.87,3.907-3.47,6.134-7.2,6.134m.12-17.987c-2.608,0-4.563,2.062-4.982,5.252a.845.845,0,0,0,.224.688.941.941,0,0,0,.688.3h7.819a.94.94,0,0,0,.681-.29.839.839,0,0,0,.23-.674A7.2,7.2,0,0,0,67.645,14.5a4.233,4.233,0,0,0-3.639-1.964" transform="translate(-13.31 -2.339)" fill="#fff"/>
          <path id="パス_650" data-name="パス 650" d="M89.895,27.767V.942h9.288c4.081,0,6.823,3.031,6.823,7.541,0,4.789-2.678,7.883-6.823,7.883H93.694a.893.893,0,0,0-.915.87V27.767a.3.3,0,0,1-.306.29H90.2a.3.3,0,0,1-.3-.29m3.8-23.973a.894.894,0,0,0-.915.87v7.979a.894.894,0,0,0,.915.87h4.413c3.275,0,4.936-1.654,4.936-4.916,0-3.232-1.574-4.8-4.816-4.8Z" transform="translate(-21.294 -0.223)" fill="#fff"/>
          <path id="パス_651" data-name="パス 651" d="M114.442,29.927V10.776a.3.3,0,0,1,.305-.29h1.793a.3.3,0,0,1,.305.29v2.349a.294.294,0,0,0,.305.288.306.306,0,0,0,.269-.153c1.375-2.4,2.5-3.2,4.325-3.2,1.706,0,2.595,2.474,1,3.178-1.054.467-1.911-.182-2.431-.229-2.663-.24-3.313,2.481-3.313,5.586V29.927a.3.3,0,0,1-.305.29h-1.953a.3.3,0,0,1-.305-.29" transform="translate(-27.109 -2.383)" fill="#fff"/>
          <path id="パス_652" data-name="パス 652" d="M134.712,30.486c-4.579,0-7.778-4.222-7.778-10.268,0-6.187,3.175-10.344,7.9-10.344,4.509,0,7.659,4.238,7.659,10.306s-3.2,10.306-7.78,10.306M134.633,12.5c-3.046,0-5.015,3.015-5.015,7.681s2,7.681,5.095,7.681,5.1-3.015,5.1-7.681-2.031-7.681-5.175-7.681" transform="translate(-30.068 -2.339)" fill="#fff"/>
          <path id="パス_653" data-name="パス 653" d="M158.09,28.409c-4.459,0-7.34-4.238-7.34-10.8,0-5.984,2.709-9.851,6.9-9.851,2.157,0,3.547.862,4.8,2.975a.307.307,0,0,0,.268.15.294.294,0,0,0,.305-.289V1.233a.3.3,0,0,1,.305-.29h1.954a.3.3,0,0,1,.305.29V27.767a.3.3,0,0,1-.305.29h-1.794a.3.3,0,0,1-.305-.29V25.751a.3.3,0,0,0-.308-.29.3.3,0,0,0-.265.151,4.7,4.7,0,0,1-4.523,2.8m.04-17.987c-3.117,0-4.7,2.495-4.7,7.415,0,5.05,1.712,7.946,4.7,7.946a4.233,4.233,0,0,0,3.309-1.571c1.07-1.29,1.547-3.022,1.547-5.617,0-6.755-2.64-8.173-4.856-8.173" transform="translate(-35.71 -0.223)" fill="#fff"/>
          <path id="パス_654" data-name="パス 654" d="M181.013,30.7c-3.474,0-5.467-2.183-5.467-5.99v-13.8a.3.3,0,0,1,.305-.29H177.8a.3.3,0,0,1,.305.29v12.7c0,3.687,1.883,4.462,3.461,4.462,2.95,0,4.857-2.629,4.857-6.7V10.908a.3.3,0,0,1,.305-.29h1.954a.3.3,0,0,1,.305.29V30.059a.3.3,0,0,1-.305.29h-1.794a.3.3,0,0,1-.305-.29V27.774a.294.294,0,0,0-.3-.288.31.31,0,0,0-.268.149c-1.375,2.292-2.637,3.065-5,3.065" transform="translate(-41.584 -2.515)" fill="#fff"/>
          <path id="パス_655" data-name="パス 655" d="M204.815,30.524c-4.557,0-7.5-3.912-7.5-9.966,0-6.49,3.116-10.684,7.938-10.684,3.717,0,5.788,2.271,6.328,6.942h-2.49c-.5-2.958-1.774-4.279-4.116-4.279-3.066,0-4.9,2.9-4.9,7.756,0,4.9,1.668,7.605,4.7,7.605,2.237,0,3.688-1.567,4.312-4.658h2.489c-.693,4.834-2.967,7.284-6.761,7.284" transform="translate(-46.74 -2.339)" fill="#fff"/>
          <path id="パス_656" data-name="パス 656" d="M223.608,28.681c-2.18,0-3.2-1.3-3.2-4.1V11.732a.9.9,0,0,0-.917-.87h-1.4V8.9h1.4a.9.9,0,0,0,.917-.87V3.374h2.564V8.032a.894.894,0,0,0,.916.87h1.874v1.96h-1.874a.894.894,0,0,0-.916.87V24.4c0,1.175.545,1.7,1.767,1.7l.983,0v2.344a9.876,9.876,0,0,1-1.123.131,4.635,4.635,0,0,1-1,.114" transform="translate(-51.664 -0.799)" fill="#fff"/>
        </g>
      </g>
      <g id="グループ_1147" data-name="グループ 1147" transform="translate(-8493 -12056.992)">
        <g id="グループ_1150" data-name="グループ 1150" transform="translate(0 0)">
          <path id="パス_657" data-name="パス 657" d="M11.287,28.335a9.9,9.9,0,0,1-7.773-3.391A16.722,16.722,0,0,1,0,14.206,16.784,16.784,0,0,1,3.513,3.391,9.961,9.961,0,0,1,11.446,0a9.961,9.961,0,0,1,9.27,5.862,18.979,18.979,0,0,1,1.857,8.344,16.722,16.722,0,0,1-3.514,10.739,9.9,9.9,0,0,1-7.772,3.391M11.167,3c-4.907,0-8.2,4.486-8.2,11.164s3.346,11.164,8.324,11.164,8.323-4.486,8.323-11.164C19.61,7.386,16.3,3,11.167,3" transform="translate(0 0)" fill="#fff"/>
          <path id="パス_658" data-name="パス 658" d="M45.3,30.173a.3.3,0,0,1-.305-.29V17.908c0-3.714-1.129-5.371-3.661-5.371-3,0-4.856,2.595-4.856,6.772V29.883a.3.3,0,0,1-.305.29H34.222a.3.3,0,0,1-.305-.29V10.732a.3.3,0,0,1,.305-.29h1.795a.3.3,0,0,1,.305.29v1.957a.293.293,0,0,0,.3.288.313.313,0,0,0,.261-.139,5.591,5.591,0,0,1,5.047-2.964c3.577,0,5.627,2.459,5.627,6.746V29.883a.3.3,0,0,1-.305.29Z" transform="translate(-8.034 -2.339)" fill="#fff"/>
          <path id="パス_659" data-name="パス 659" d="M63.887,30.524c-4.749,0-7.7-3.818-7.7-9.966,0-6.49,3.116-10.684,7.938-10.684a6.053,6.053,0,0,1,5.842,3.742c.961,1.9,1.312,3.651,1.445,7.212a.286.286,0,0,1-.089.217.307.307,0,0,1-.217.089H59.9a.929.929,0,0,0-.665.274.853.853,0,0,0-.25.653,7.2,7.2,0,0,0,.979,3.684,4.452,4.452,0,0,0,4,2.154,4.593,4.593,0,0,0,4.6-3.626.3.3,0,0,1,.294-.237h1.928a.3.3,0,0,1,.3.354c-.87,3.907-3.47,6.134-7.2,6.134m.12-17.987c-2.608,0-4.563,2.062-4.982,5.252a.845.845,0,0,0,.224.688.941.941,0,0,0,.688.3h7.819a.94.94,0,0,0,.681-.29.839.839,0,0,0,.23-.674A7.2,7.2,0,0,0,67.645,14.5a4.233,4.233,0,0,0-3.639-1.964" transform="translate(-13.31 -2.339)" fill="#fff"/>
          <path id="パス_660" data-name="パス 660" d="M107.652,29.927V10.776a.3.3,0,0,1,.305-.29h1.793a.3.3,0,0,1,.305.29v2.349a.294.294,0,0,0,.305.288.305.305,0,0,0,.269-.153c1.375-2.4,2.5-3.2,4.325-3.2,1.706,0,2.595,2.474,1,3.178-1.054.467-1.911-.182-2.431-.229-2.663-.24-3.313,2.481-3.313,5.586V29.927a.3.3,0,0,1-.305.29h-1.953a.3.3,0,0,1-.305-.29" transform="translate(-25.501 -2.383)" fill="#fff"/>
          <path id="パス_661" data-name="パス 661" d="M90.555,28.057V4.817a.9.9,0,0,0-.916-.87H82.583v-3h18.786v3H94.354a.9.9,0,0,0-.917.87V28.057Z" transform="translate(-19.562 -0.223)" fill="#fff"/>
          <path id="パス_662" data-name="パス 662" d="M128.158,30.524c-4.749,0-7.7-3.818-7.7-9.966,0-6.49,3.116-10.684,7.938-10.684a6.053,6.053,0,0,1,5.842,3.742c.961,1.9,1.312,3.651,1.445,7.212a.286.286,0,0,1-.089.217.307.307,0,0,1-.217.089h-11.2a.929.929,0,0,0-.665.274.853.853,0,0,0-.25.653,7.2,7.2,0,0,0,.979,3.684,4.452,4.452,0,0,0,4,2.154,4.593,4.593,0,0,0,4.6-3.626.3.3,0,0,1,.294-.237h1.928a.3.3,0,0,1,.3.354c-.87,3.907-3.47,6.134-7.2,6.134m.12-17.987c-2.608,0-4.563,2.062-4.982,5.252a.845.845,0,0,0,.224.688.941.941,0,0,0,.688.3h7.819a.94.94,0,0,0,.681-.29.839.839,0,0,0,.23-.674,7.2,7.2,0,0,0-1.022-3.307,4.233,4.233,0,0,0-3.639-1.964" transform="translate(-28.534 -2.339)" fill="#fff"/>
          <path id="パス_663" data-name="パス 663" d="M151.5,30.524c-4.749,0-7.7-3.818-7.7-9.966,0-6.49,3.116-10.684,7.938-10.684a6.053,6.053,0,0,1,5.842,3.742c.961,1.9,1.312,3.651,1.445,7.212a.286.286,0,0,1-.089.217.307.307,0,0,1-.217.089h-11.2a.929.929,0,0,0-.665.274.853.853,0,0,0-.25.653,7.2,7.2,0,0,0,.979,3.684,4.452,4.452,0,0,0,4,2.154,4.593,4.593,0,0,0,4.6-3.626.3.3,0,0,1,.294-.237H158.4a.3.3,0,0,1,.3.354c-.87,3.907-3.47,6.134-7.2,6.134m.12-17.987c-2.608,0-4.563,2.062-4.982,5.252a.845.845,0,0,0,.224.688.941.941,0,0,0,.688.3h7.819a.939.939,0,0,0,.681-.29.839.839,0,0,0,.23-.674,7.2,7.2,0,0,0-1.022-3.307,4.233,4.233,0,0,0-3.639-1.964" transform="translate(-34.064 -2.339)" fill="#fff"/>
        </g>
      </g>
      <g id="グループ_1149" data-name="グループ 1149" transform="translate(-8493 -12018.73)">
        <g id="グループ_1152" data-name="グループ 1152" transform="translate(0)">
          <path id="パス_664" data-name="パス 664" d="M10.413,28.346C3.99,28.346,0,22.931,0,14.211,0,5.446,4.143,0,10.812,0a8.908,8.908,0,0,1,7.962,4.245A9.29,9.29,0,0,1,20.2,8.277a.3.3,0,0,1-.3.334H17.712a.307.307,0,0,1-.3-.227,6.568,6.568,0,0,0-2.156-3.9,6.91,6.91,0,0,0-4.369-1.476c-4.964,0-7.928,4.231-7.928,11.32,0,7,2.817,11.016,7.729,11.016A6.162,6.162,0,0,0,16,22.512a10.693,10.693,0,0,0,1.664-4.357.307.307,0,0,1,.3-.238H20.11a.3.3,0,0,1,.3.35c-.756,3.836-1.621,5.738-3.328,7.4a9.248,9.248,0,0,1-6.669,2.683" transform="translate(0)" fill="#fff"/>
          <path id="パス_665" data-name="パス 665" d="M35.6,30.53c-3.226,0-5.31-2.218-5.31-5.651,0-3.38,1.795-5.508,5.054-5.993,0,0,3.764-.4,4.99-.573,1.153-.164,1.4-.995,1.4-2.525,0-2.283-1.38-3.441-4.1-3.441-2.486,0-3.666,1.011-4.119,3.579a.3.3,0,0,1-.3.247h-1.75a.3.3,0,0,1-.305-.315,6.6,6.6,0,0,1,.982-3.442c1.09-1.663,3.058-2.544,5.691-2.544,4,0,6.386,2.013,6.386,5.386v11.4c0,.839.39,1.32,1.07,1.32a3.245,3.245,0,0,0,.844-.116V29.79a2.467,2.467,0,0,1-1.521.551c-1.771,0-2.519-.692-2.761-2.557a.3.3,0,0,0-.3-.254.312.312,0,0,0-.236.107c-1.771,2.055-3.425,2.893-5.712,2.893M41.321,20a24.865,24.865,0,0,1-4.815,1.14c-2.669.423-3.53,1.4-3.53,3.438,0,2.243,1.145,3.479,3.223,3.479,2.957,0,5.456-2.2,5.456-4.8V20.294c0-.16.039-.422-.334-.295" transform="translate(-7.167 -2.336)" fill="#fff"/>
          <path id="パス_666" data-name="パス 666" d="M118.351,30.53c-3.226,0-5.31-2.218-5.31-5.651,0-3.38,1.795-5.508,5.054-5.993,0,0,3.764-.4,4.99-.573,1.153-.164,1.4-.995,1.4-2.525,0-2.283-1.38-3.441-4.1-3.441-2.486,0-3.666,1.011-4.119,3.579a.3.3,0,0,1-.3.247h-1.75a.3.3,0,0,1-.305-.315,6.6,6.6,0,0,1,.982-3.442c1.09-1.663,3.058-2.544,5.691-2.544,4,0,6.386,2.013,6.386,5.386v11.4c0,.839.39,1.32,1.07,1.32a3.245,3.245,0,0,0,.844-.116V29.79a2.467,2.467,0,0,1-1.521.551c-1.771,0-2.519-.692-2.761-2.557a.3.3,0,0,0-.3-.254.312.312,0,0,0-.236.107c-1.771,2.055-3.425,2.893-5.712,2.893M124.071,20a24.865,24.865,0,0,1-4.815,1.14c-2.669.423-3.53,1.4-3.53,3.438,0,2.243,1.145,3.479,3.223,3.479,2.957,0,5.456-2.2,5.456-4.8V20.294c0-.16.039-.422-.334-.295" transform="translate(-26.747 -2.336)" fill="#fff"/>
          <path id="パス_667" data-name="パス 667" d="M75.775,30.18V17.3c0-3.207-1.067-4.767-3.263-4.767-2.389,0-4.26,2.41-4.26,5.486V30.18H65.687V16.4c0-2.415-1.056-3.857-2.825-3.857-2.854,0-4.7,2.66-4.7,6.774V30.18H55.6V10.733a.3.3,0,0,1,.305-.29h1.8a.3.3,0,0,1,.305.29v1.955a.293.293,0,0,0,.3.288.309.309,0,0,0,.261-.139c1.356-2.077,2.818-2.963,4.89-2.963,2.007,0,3.241.844,4.26,2.912a.314.314,0,0,0,.522.05c1.819-2.326,2.865-2.963,4.867-2.963,3.274,0,5.229,2.438,5.229,6.522V30.18Z" transform="translate(-13.155 -2.336)" fill="#fff"/>
          <path id="パス_668" data-name="パス 668" d="M90.666,37.513V10.733a.3.3,0,0,1,.305-.29h1.795a.3.3,0,0,1,.305.29v1.955a.293.293,0,0,0,.3.287.308.308,0,0,0,.263-.14c1.413-2.186,2.672-2.96,4.809-2.96,4.13,0,6.9,3.96,6.9,9.855,0,6.562-2.867,10.8-7.3,10.8A4.666,4.666,0,0,1,93.8,28.276a.313.313,0,0,0-.26-.135.294.294,0,0,0-.3.289v9.084a.3.3,0,0,1-.305.29H90.971a.3.3,0,0,1-.305-.29M97.85,12.538c-2.161,0-4.738,1.445-4.738,8.327,0,4.341,1.861,7.039,4.857,7.039s4.7-2.911,4.7-7.986c0-4.9-1.621-7.38-4.819-7.38" transform="translate(-21.452 -2.336)" fill="#fff"/>
          <path id="パス_669" data-name="パス 669" d="M138.163,30.066V10.909a.3.3,0,0,1,.305-.29h1.954a.3.3,0,0,1,.305.29V30.066a.3.3,0,0,1-.305.29h-1.954a.3.3,0,0,1-.305-.29" transform="translate(-32.691 -2.513)" fill="#fff"/>
          <path id="パス_670" data-name="パス 670" d="M153.463,38.3a6.972,6.972,0,0,1-4.135-1.184c-1.226-.924-1.776-1.919-2.2-4.089a.3.3,0,0,1,.3-.346H149.4a.3.3,0,0,1,.292.221,3.543,3.543,0,0,0,3.893,2.923c2.1,0,3.5-.757,4.284-2.317.57-1.083.773-2.339.773-4.8v-.8c0-.448-.214-.185-.286-.065a4.848,4.848,0,0,1-4.572,2.691c-4.412,0-7.264-4.24-7.264-10.8,0-5.894,2.775-9.855,6.9-9.855,2.137,0,3.4.775,4.809,2.96a.311.311,0,0,0,.263.14.293.293,0,0,0,.3-.287V10.733a.3.3,0,0,1,.305-.29H160.9a.3.3,0,0,1,.305.29V28.479c0,3.169-.4,5.112-1.374,6.708-1.263,2.063-3.405,3.11-6.367,3.11m.439-25.758c-2.144,0-4.7,1.287-4.7,7.418,0,5.051,1.712,7.948,4.7,7.948a4.235,4.235,0,0,0,3.31-1.572c1.07-1.289,1.547-3.022,1.547-5.619,0-6.758-2.641-8.176-4.857-8.176" transform="translate(-34.668 -2.336)" fill="#fff"/>
          <path id="パス_671" data-name="パス 671" d="M182.268,30.18a.3.3,0,0,1-.305-.29V17.911c0-3.715-1.129-5.373-3.661-5.373-3,0-4.857,2.6-4.857,6.774V29.89a.3.3,0,0,1-.305.29h-1.955a.3.3,0,0,1-.305-.29V10.733a.3.3,0,0,1,.305-.29h1.8a.3.3,0,0,1,.305.29v1.957a.293.293,0,0,0,.3.288.312.312,0,0,0,.262-.14A5.591,5.591,0,0,1,178.9,9.874c3.577,0,5.629,2.46,5.629,6.749V29.89a.3.3,0,0,1-.305.29Z" transform="translate(-40.431 -2.336)" fill="#fff"/>
          <path id="パス_672" data-name="パス 672" d="M139.272,5.229a1.8,1.8,0,0,1-1.841-1.75,1.844,1.844,0,0,1,3.683,0,1.8,1.8,0,0,1-1.841,1.75" transform="translate(-32.518 -0.41)" fill="#fff"/>
        </g>
      </g>
    </g>
  </g>
</svg>
