<svg xmlns="http://www.w3.org/2000/svg" width="175.182" height="72.411" viewBox="0 0 175.182 72.411">
  <g id="グループ_1055" data-name="グループ 1055" transform="translate(-121.901 -228.294)">
    <path id="パス_746" data-name="パス 746" d="M1.946-6.426c.028-1.344.35-1.862,1.148-1.862.686,0,1.148.574,1.148,1.442,0,.784-.336,1.358-1.274,2.212C.84-2.8.378-2,.294,0H5.866V-1.722H2.324c.182-.378.322-.532,1.246-1.33a15.749,15.749,0,0,0,1.316-1.19,3.665,3.665,0,0,0,.966-2.576A2.82,2.82,0,0,0,3.066-9.94,2.381,2.381,0,0,0,.9-8.736a4.314,4.314,0,0,0-.5,2.31ZM9.618-9.94a2.291,2.291,0,0,0-2.17,1.218,8.773,8.773,0,0,0-.7,3.92c0,3.43.91,5.068,2.828,5.068a2.317,2.317,0,0,0,2.24-1.442A9.839,9.839,0,0,0,12.4-4.844,12,12,0,0,0,12-8.036a3.164,3.164,0,0,0-.574-1.092A2.251,2.251,0,0,0,9.618-9.94ZM9.59-8.372c.868,0,1.162.882,1.162,3.528S10.458-1.3,9.576-1.3,8.4-2.184,8.4-4.7C8.4-7.532,8.666-8.372,9.59-8.372Zm5.124,1.946c.028-1.344.35-1.862,1.148-1.862.686,0,1.148.574,1.148,1.442,0,.784-.336,1.358-1.274,2.212C13.608-2.8,13.146-2,13.062,0h5.572V-1.722H15.092c.182-.378.322-.532,1.246-1.33a15.749,15.749,0,0,0,1.316-1.19,3.665,3.665,0,0,0,.966-2.576A2.82,2.82,0,0,0,15.834-9.94a2.381,2.381,0,0,0-2.17,1.2,4.314,4.314,0,0,0-.5,2.31Zm6.384,0c.028-1.344.35-1.862,1.148-1.862.686,0,1.148.574,1.148,1.442,0,.784-.336,1.358-1.274,2.212C19.992-2.8,19.53-2,19.446,0h5.572V-1.722H21.476c.182-.378.322-.532,1.246-1.33a15.75,15.75,0,0,0,1.316-1.19A3.665,3.665,0,0,0,25-6.818,2.82,2.82,0,0,0,22.218-9.94a2.381,2.381,0,0,0-2.17,1.2,4.314,4.314,0,0,0-.5,2.31Z" transform="translate(122.167 228.5) rotate(90)" fill="#fff"/>
    <path id="パス_590" data-name="パス 590" d="M10.008-50.826c4.052,0,7.188-2.586,7.188-6.964,0-4.3-3.136-6.842-7.188-6.842S2.82-62.087,2.82-57.791C2.82-53.413,5.956-50.826,10.008-50.826Zm0-2.627c-2.118,0-3.727-1.609-3.727-4.317,0-2.668,1.609-4.236,3.727-4.236s3.727,1.568,3.727,4.236C13.735-55.062,12.126-53.453,10.008-53.453Zm8.166,2.423h3.1v-4.785c0-1.914.977-2.871,2.607-2.871,1.364,0,2.179.631,2.179,2.057v5.6h3.1v-6.292c0-2.607-1.568-3.93-3.991-3.93-2.281,0-3.462.916-3.971,2.831h-.041l.122-2.668h-3.1Zm22.094-5.315c0-3.3-1.975-4.908-4.785-4.908-3.4,0-5.478,1.975-5.478,5.295,0,3.2,2.077,5.091,5.417,5.091,2.871,0,4.785-1.344,4.847-3.645H37.54c-.081.977-.855,1.405-2.057,1.405-1.385,0-2.22-.713-2.362-2.362h7.148Zm-2.729-.774H33.2a2.046,2.046,0,0,1,2.281-1.894c1.283,0,2.057.591,2.057,1.731Zm8.1,6.089h3.34v-3.828h2.729c3.5,0,5.172-1.751,5.172-4.724,0-3.238-2.057-4.847-5.478-4.847H45.644Zm3.34-6.068v-4.7h2.321a2.176,2.176,0,0,1,2.444,2.383c0,1.568-.774,2.321-2.179,2.321ZM57.72-51.03h3.1v-4.337c0-2.24.916-3.319,2.24-3.319.977,0,1.568.591,1.568,2.057,0,.305-.02.815-.061,1.3h2.81c.041-.529.1-1.425.1-2,0-2.607-1.2-3.93-3.258-3.93-1.975,0-3.055,1.12-3.482,3.034h-.041l.122-2.871h-3.1Zm15.965.163c3.319,0,5.478-1.914,5.478-5.172,0-3.279-2.159-5.213-5.478-5.213s-5.478,1.935-5.478,5.213C68.207-52.781,70.366-50.867,73.685-50.867Zm0-2.362c-1.507,0-2.383-1.039-2.383-2.81,0-1.792.876-2.851,2.383-2.851s2.383,1.059,2.383,2.851C76.067-54.268,75.192-53.229,73.685-53.229Zm10.976,2.362a3.151,3.151,0,0,0,3.36-2.321h.041c-.061,1.079-.1,1.955-.122,2.159h3.1V-65.142h-3.1V-59.6h-.02c-.448-1.039-1.507-1.649-3.136-1.649-2.932,0-4.847,2.036-4.847,5.111C79.936-52.985,81.749-50.867,84.661-50.867Zm.713-2.362c-1.425,0-2.362-1.181-2.362-2.892,0-1.67.957-2.769,2.4-2.769a2.347,2.347,0,0,1,2.525,2.423v.489A2.51,2.51,0,0,1,85.374-53.229Zm10.976,2.362a3.431,3.431,0,0,0,3.727-2.79h.041c-.02,1.1-.081,1.935-.143,2.627h3.1V-61.09h-3.1v4.358c0,2.2-1,3.3-2.668,3.3a1.852,1.852,0,0,1-2.1-2.057v-5.6h-3.1v5.966C92.114-52.17,93.743-50.867,96.349-50.867Zm12.809,0c2.973,0,5.03-1.507,5.03-4.4h-2.729a1.932,1.932,0,0,1-2.138,2.036c-1.364,0-2.179-1.059-2.179-2.831,0-1.833.794-2.831,2.24-2.831a1.92,1.92,0,0,1,2.057,2.077h2.729c0-2.79-1.935-4.439-4.887-4.439a4.88,4.88,0,0,0-5.233,5.213A4.806,4.806,0,0,0,109.158-50.867Zm11.1,0a9.834,9.834,0,0,0,1.955-.224v-2.342a7.454,7.454,0,0,1-1.405.143c-1.222,0-1.711-.326-1.711-1.364v-4.032h3.217v-2.4H119.1V-63.37H116.55l-.143,1.405c-.061.611-.224.876-.692.876h-1.2v2.4H116v4.195C116-52.252,117.12-50.867,120.256-50.867ZM10.008-32.846c4.052,0,7.188-2.586,7.188-6.964,0-4.3-3.136-6.842-7.188-6.842S2.82-44.107,2.82-39.81C2.82-35.432,5.956-32.846,10.008-32.846Zm0-2.627c-2.118,0-3.727-1.609-3.727-4.317,0-2.668,1.609-4.236,3.727-4.236s3.727,1.568,3.727,4.236C13.735-37.082,12.126-35.473,10.008-35.473Zm8.166,2.423h3.1v-4.785c0-1.914.977-2.871,2.607-2.871,1.364,0,2.179.631,2.179,2.057v5.6h3.1v-6.292c0-2.607-1.568-3.93-3.991-3.93-2.281,0-3.462.916-3.971,2.831h-.041l.122-2.668h-3.1Zm22.094-5.315c0-3.3-1.975-4.908-4.785-4.908-3.4,0-5.478,1.975-5.478,5.295,0,3.2,2.077,5.091,5.417,5.091,2.871,0,4.785-1.344,4.847-3.645H37.54c-.081.977-.855,1.405-2.057,1.405-1.385,0-2.22-.713-2.362-2.362h7.148Zm-2.729-.774H33.2a2.046,2.046,0,0,1,2.281-1.894c1.283,0,2.057.591,2.057,1.731ZM48.9-33.05h3.34V-43.822H56.03v-2.627H45.095v2.627H48.9Zm7.229,0h3.1v-4.337c0-2.24.916-3.319,2.24-3.319.977,0,1.568.591,1.568,2.057,0,.305-.02.815-.061,1.3h2.81c.041-.529.1-1.425.1-2,0-2.607-1.2-3.93-3.258-3.93-1.975,0-3.055,1.12-3.482,3.034H59.1l.122-2.871h-3.1Zm20.75-5.315c0-3.3-1.975-4.908-4.785-4.908-3.4,0-5.478,1.975-5.478,5.295,0,3.2,2.077,5.091,5.417,5.091,2.871,0,4.785-1.344,4.847-3.645H74.153c-.081.977-.855,1.405-2.057,1.405-1.385,0-2.22-.713-2.362-2.362h7.148Zm-2.729-.774H69.816A2.046,2.046,0,0,1,72.1-41.032c1.283,0,2.057.591,2.057,1.731Zm13.766.774c0-3.3-1.975-4.908-4.785-4.908-3.4,0-5.478,1.975-5.478,5.295,0,3.2,2.077,5.091,5.417,5.091,2.871,0,4.785-1.344,4.847-3.645H85.19c-.081.977-.855,1.405-2.057,1.405-1.385,0-2.22-.713-2.362-2.362h7.148Zm-2.729-.774H80.853a2.046,2.046,0,0,1,2.281-1.894c1.283,0,2.057.591,2.057,1.731Zm7.962,6.089h3.1v-4.806c0-1.894.855-2.851,2.057-2.851,1.059,0,1.67.713,1.67,1.894v5.763h3.1v-4.867c0-1.853.855-2.79,2.077-2.79,1.059,0,1.67.713,1.67,1.894v5.763h3.1v-6.476c0-2.362-1.242-3.747-3.441-3.747a3.226,3.226,0,0,0-3.441,2.627h-.02c-.224-1.629-1.466-2.627-3.4-2.627A3.365,3.365,0,0,0,96.166-40.5h-.02l.1-2.607h-3.1Zm27.878-5.315c0-3.3-1.975-4.908-4.785-4.908-3.4,0-5.478,1.975-5.478,5.295,0,3.2,2.077,5.091,5.417,5.091,2.871,0,4.785-1.344,4.847-3.645H118.3c-.081.977-.855,1.405-2.057,1.405-1.385,0-2.22-.713-2.362-2.362h7.148Zm-2.729-.774h-4.337a2.046,2.046,0,0,1,2.281-1.894c1.283,0,2.057.591,2.057,1.731Zm13.766.774c0-3.3-1.975-4.908-4.785-4.908-3.4,0-5.478,1.975-5.478,5.295,0,3.2,2.077,5.091,5.417,5.091,2.871,0,4.785-1.344,4.847-3.645h-2.729c-.081.977-.855,1.405-2.057,1.405-1.385,0-2.22-.713-2.362-2.362h7.148Zm-2.729-.774H125a2.046,2.046,0,0,1,2.281-1.894c1.283,0,2.057.591,2.057,1.731Zm8.8,6.252a9.834,9.834,0,0,0,1.955-.224v-2.342a7.454,7.454,0,0,1-1.405.143c-1.222,0-1.711-.326-1.711-1.364v-4.032h3.217v-2.4h-3.217V-45.39h-2.545l-.143,1.405c-.061.611-.224.876-.692.876h-1.2v2.4h1.487v4.195C133.879-34.271,135-32.887,138.135-32.887Zm7.514,0c3.441,0,5.254-1.242,5.254-3.36a2.286,2.286,0,0,0-1.12-2,7.093,7.093,0,0,0-2.871-.672,22.614,22.614,0,0,1-2.484-.305.831.831,0,0,1-.733-.9c0-.692.611-1.161,2-1.161,1.527,0,2.016.55,2.036,1.609h2.729c0-2.342-1.507-3.6-4.806-3.6-2.79,0-5.03,1.2-5.03,3.38a2.422,2.422,0,0,0,.957,1.975,7.1,7.1,0,0,0,3.177.774,18.73,18.73,0,0,1,2.342.285c.529.122.713.407.713.774,0,.733-.57,1.2-2.179,1.2-1.772,0-2.24-.611-2.24-1.548H140.62C140.62-34.394,142.106-32.887,145.649-32.887ZM3.559-15.069H9.892c3.38,0,5.111-1.446,5.111-3.91a2.971,2.971,0,0,0-2.423-3.1v-.02a2.715,2.715,0,0,0,1.914-2.871c0-2.2-1.873-3.5-5.03-3.5H3.559Zm3.34-7.84v-3.136H9.444c1.446,0,2.118.611,2.118,1.609s-.672,1.527-1.873,1.527Zm0,5.417v-3.4H9.81c1.283,0,2.016.631,2.016,1.568a1.731,1.731,0,0,1-1.935,1.833Zm12.91,2.586c1.833,0,2.973-.774,3.279-2.2h.02a20.4,20.4,0,0,1-.143,2.036h3.1v-6.109c0-2.688-1.873-4.113-5.071-4.113-3.055,0-4.847,1.2-4.847,3.238a5.044,5.044,0,0,0,.041.591h2.851a4.224,4.224,0,0,1-.02-.428c0-.815.672-1.3,1.833-1.3,1.425,0,2.118.489,2.118,1.711v.672H19.687c-2.668,0-3.849,1.2-3.849,2.851C15.838-15.924,17.467-14.906,19.809-14.906ZM20.42-17c-1.12,0-1.792-.407-1.792-1.181,0-.57.509-.957,1.344-.957h2.993v.2C22.965-17.716,22.028-17,20.42-17Zm11.607,2.1c2.973,0,5.03-1.507,5.03-4.4H34.328a1.932,1.932,0,0,1-2.138,2.036c-1.364,0-2.179-1.059-2.179-2.831,0-1.833.794-2.831,2.24-2.831a1.92,1.92,0,0,1,2.057,2.077h2.729c0-2.79-1.935-4.439-4.887-4.439a4.88,4.88,0,0,0-5.233,5.213A4.806,4.806,0,0,0,32.027-14.906Zm6.028-.163h3.1v-2.057l1.629-1.649,2.627,3.706h4.073L45-20.75l4.236-4.378H45.467l-4.3,4.847h-.02v-8.9h-3.1Zm21.463.163a9.834,9.834,0,0,0,1.955-.224v-2.342a7.454,7.454,0,0,1-1.405.143c-1.222,0-1.711-.326-1.711-1.364v-4.032h3.217v-2.4H58.357v-2.281H55.811L55.669-26c-.061.611-.224.876-.692.876h-1.2v2.4h1.487v4.195C55.262-16.291,56.382-14.906,59.518-14.906Zm7.82,0c3.319,0,5.478-1.914,5.478-5.172,0-3.279-2.159-5.213-5.478-5.213s-5.478,1.935-5.478,5.213C61.859-16.82,64.018-14.906,67.337-14.906Zm0-2.362c-1.507,0-2.383-1.039-2.383-2.81,0-1.792.876-2.851,2.383-2.851s2.383,1.059,2.383,2.851C69.72-18.307,68.844-17.268,67.337-17.268Zm16.454,2.4c4.785,0,6.068-2.036,6.068-4.317a2.885,2.885,0,0,0-1.466-2.729,11.584,11.584,0,0,0-3.441-.916,18.96,18.96,0,0,1-3.055-.631c-.468-.2-.652-.57-.652-1.222,0-.9.774-1.568,2.586-1.568,1.833,0,2.627.835,2.627,2.362h2.953c0-3.014-1.385-4.785-5.641-4.785-3.869,0-5.844,1.751-5.844,4.276a3.066,3.066,0,0,0,1.3,2.769,9.609,9.609,0,0,0,3.441.977,23.946,23.946,0,0,1,3.1.57,1.065,1.065,0,0,1,.774,1.12c0,.855-.509,1.67-2.769,1.67-2.24,0-2.831-.937-2.831-2.383H77.967C77.967-17.207,79.189-14.865,83.791-14.865Zm12.014-.041c2.973,0,5.03-1.507,5.03-4.4H98.106a1.932,1.932,0,0,1-2.138,2.036c-1.364,0-2.179-1.059-2.179-2.831,0-1.833.794-2.831,2.24-2.831a1.92,1.92,0,0,1,2.057,2.077h2.729c0-2.79-1.935-4.439-4.887-4.439a4.88,4.88,0,0,0-5.233,5.213A4.806,4.806,0,0,0,95.805-14.906Zm6.028-.163h3.1v-4.785c0-1.914.977-2.871,2.607-2.871,1.385,0,2.179.631,2.179,2.057v5.6h3.1v-6.292c0-2.607-1.568-3.93-3.991-3.93-2.281,0-3.462.916-3.971,2.831h-.041c.061-.753.122-1.894.122-2.281v-4.439h-3.1Zm17.309.163c3.319,0,5.478-1.914,5.478-5.172,0-3.279-2.159-5.213-5.478-5.213s-5.478,1.935-5.478,5.213C113.664-16.82,115.823-14.906,119.142-14.906Zm0-2.362c-1.507,0-2.383-1.039-2.383-2.81,0-1.792.876-2.851,2.383-2.851s2.383,1.059,2.383,2.851C121.524-18.307,120.649-17.268,119.142-17.268Zm11.729,2.362c3.319,0,5.478-1.914,5.478-5.172,0-3.279-2.159-5.213-5.478-5.213s-5.478,1.935-5.478,5.213C125.393-16.82,127.552-14.906,130.871-14.906Zm0-2.362c-1.507,0-2.383-1.039-2.383-2.81,0-1.792.876-2.851,2.383-2.851s2.383,1.059,2.383,2.851C133.254-18.307,132.378-17.268,130.871-17.268Zm6.476,2.2h3.1V-29.181h-3.1ZM9.886,3.115c3.686,0,6.231-2.077,6.231-5.152,0-.163,0-.387-.02-.652H13.165a4.224,4.224,0,0,1,.02.428C13.185-.571,12,.488,10.049.488,7.891.488,6.282-1.1,6.282-3.768c0-2.647,1.568-4.3,3.767-4.3a2.785,2.785,0,0,1,3.1,2.851c0,.1,0,.305-.02.529h2.912c.02-.183.041-.55.041-.855,0-3.075-2.525-5.152-6.19-5.152-4.134,0-7.066,2.566-7.066,6.924C2.82.549,5.752,3.115,9.886,3.115Zm11.057-.041c1.833,0,2.973-.774,3.279-2.2h.02A20.4,20.4,0,0,1,24.1,2.911h3.1V-3.2c0-2.688-1.873-4.113-5.071-4.113-3.055,0-4.847,1.2-4.847,3.238a5.044,5.044,0,0,0,.041.591H20.17a4.224,4.224,0,0,1-.02-.428c0-.815.672-1.3,1.833-1.3,1.425,0,2.118.489,2.118,1.711v.672H20.821c-2.668,0-3.849,1.2-3.849,2.851C16.973,2.056,18.6,3.074,20.943,3.074Zm.611-2.1C20.434.977,19.762.57,19.762-.2c0-.57.509-.957,1.344-.957H24.1v.2C24.1.264,23.163.977,21.554.977Zm6.679,1.935h3.1V-1.894c0-1.894.855-2.851,2.057-2.851,1.059,0,1.67.713,1.67,1.894V2.911h3.1V-1.955c0-1.853.855-2.79,2.077-2.79,1.059,0,1.67.713,1.67,1.894V2.911h3.1V-3.564c0-2.362-1.242-3.747-3.441-3.747A3.226,3.226,0,0,0,38.11-4.684h-.02c-.224-1.629-1.466-2.627-3.4-2.627a3.365,3.365,0,0,0-3.441,2.769h-.02l.1-2.607h-3.1ZM46.072,6.943h3.1V3.135c0-.367-.061-1.364-.1-2.036h.02c.448,1.222,1.588,1.975,3.421,1.975,2.831,0,4.663-2.159,4.663-5.417,0-2.973-1.833-4.969-4.643-4.969a3.247,3.247,0,0,0-3.4,2.22h-.02l.061-2.057h-3.1Zm5.7-6.231a2.368,2.368,0,0,1-2.607-2.4v-.448a2.555,2.555,0,0,1,2.586-2.81c1.405,0,2.342,1.1,2.342,2.729C54.1-.469,53.159.712,51.774.712Zm9.693,2.362c1.833,0,2.973-.774,3.279-2.2h.02a20.4,20.4,0,0,1-.143,2.036h3.1V-3.2c0-2.688-1.873-4.113-5.07-4.113-3.055,0-4.847,1.2-4.847,3.238a5.044,5.044,0,0,0,.041.591h2.851a4.225,4.225,0,0,1-.02-.428c0-.815.672-1.3,1.833-1.3,1.425,0,2.118.489,2.118,1.711v.672H61.345C58.677-2.831,57.5-1.63,57.5.02,57.5,2.056,59.125,3.074,61.467,3.074Zm.611-2.1C60.958.977,60.286.57,60.286-.2c0-.57.509-.957,1.344-.957h2.993v.2C64.623.264,63.686.977,62.078.977Zm6.761-9.184h3.1v-2.464h-3.1Zm0,11.118h3.1V-7.148h-3.1ZM80.446,1.079H77.187c-.611,0-.977-.265-.977-.713a1.243,1.243,0,0,1,.183-.652,8.443,8.443,0,0,0,1.67.163c2.973,0,4.724-1.324,4.724-3.584A3.328,3.328,0,0,0,82.3-5.539a2.691,2.691,0,0,1-.224-.916c0-.468.305-.753.957-.753a2.822,2.822,0,0,1,.611.061V-9.1a4.841,4.841,0,0,0-1.12-.1c-1.283,0-2.118.489-2.118,1.324A1.571,1.571,0,0,0,81-6.741l-.02.041a6.116,6.116,0,0,0-2.912-.611c-2.953,0-4.7,1.344-4.7,3.6A3.193,3.193,0,0,0,75.009-.795v.02a1.951,1.951,0,0,0-1.242,1.894A1.863,1.863,0,0,0,74.7,2.769v.02a1.793,1.793,0,0,0-1.812,1.833c0,1.67,2.1,2.647,5.641,2.647,3.482,0,5.539-1.222,5.539-3.523C84.07,2.077,82.726,1.079,80.446,1.079ZM78.063-5.356a1.59,1.59,0,0,1,1.812,1.649,1.585,1.585,0,0,1-1.812,1.629,1.578,1.578,0,0,1-1.792-1.629A1.583,1.583,0,0,1,78.063-5.356ZM78.491,5.4c-1.588,0-2.525-.407-2.525-1.161,0-.57.489-.916,1.324-.916h2.383c.9,0,1.3.305,1.3.855C80.975,4.968,80.059,5.4,78.491,5.4Zm6.353-2.484h3.1V-1.874c0-1.914.977-2.871,2.607-2.871,1.364,0,2.179.631,2.179,2.057v5.6h3.1V-3.381c0-2.607-1.568-3.93-3.991-3.93-2.281,0-3.462.916-3.971,2.831h-.041l.122-2.668h-3.1Z" transform="translate(146.18 293.436)" fill="#fff"/>
  </g>
</svg>
